<svg width="37" height="36" viewBox="0 0 37 36" fill="none" xmlns="http://www.w3.org/2000/svg">
<path fill-rule="evenodd" clip-rule="evenodd" d="M29.4141 20.1014L34.0282 21.3406C34.5249 19.0899 34.5106 16.7565 33.9863 14.5122C33.462 12.2678 32.4411 10.1696 30.9986 8.37197C29.5562 6.57435 27.729 5.1231 25.6515 4.12505C23.574 3.12699 21.2991 2.60755 18.9943 2.60494C16.6892 2.60614 14.4137 3.12436 12.3353 4.12142C10.257 5.11849 8.42878 6.56902 6.98526 8.36621C5.54174 10.1634 4.5197 12.2615 3.9944 14.506C3.46909 16.7504 3.4539 19.0842 3.94994 21.3353L8.56925 20.0961C8.25953 18.5533 8.29599 16.961 8.67602 15.434C9.05605 13.907 9.77017 12.4833 10.7669 11.2657C11.7636 10.048 13.0181 9.06666 14.4399 8.39242C15.8618 7.71818 17.4155 7.36783 18.9891 7.36663C20.5622 7.36861 22.1153 7.71953 23.5365 8.39411C24.9576 9.06869 26.2115 10.0501 27.2076 11.2677C28.2038 12.4853 28.9174 13.9086 29.2971 15.4352C29.6769 16.9619 29.7132 18.5537 29.4036 20.0961L29.4141 20.1014ZM34.2866 22.121C34.2549 22.121 34.2233 22.121 34.1969 22.1104L28.9026 20.692C28.8149 20.6672 28.7401 20.6095 28.6939 20.5309C28.6477 20.4522 28.6337 20.3588 28.6548 20.2701C28.9954 18.8136 29.0027 17.2989 28.6762 15.8391C28.3496 14.3794 27.6977 13.0122 26.7689 11.8396C25.8402 10.667 24.6586 9.71928 23.3124 9.06713C21.9662 8.41497 20.4902 8.07522 18.9943 8.07323C17.497 8.07345 16.0192 8.4121 14.6712 9.06388C13.3232 9.71565 12.14 10.6637 11.2099 11.8371C10.2799 13.0105 9.62716 14.379 9.30046 15.8402C8.97376 17.3014 8.98158 18.8176 9.32332 20.2754C9.34423 20.3648 9.3295 20.4588 9.28225 20.5376C9.235 20.6163 9.15894 20.6736 9.0702 20.6972L3.78648 22.1052C3.74146 22.1171 3.69454 22.12 3.6484 22.1137C3.60227 22.1074 3.55783 22.092 3.51765 22.0685C3.47746 22.045 3.44233 22.0138 3.41425 21.9766C3.38618 21.9395 3.36573 21.8971 3.35408 21.8521C3.04475 20.5887 2.88894 19.2927 2.89004 17.9921C2.89004 13.6944 4.56163 9.64991 7.60426 6.60729C9.09698 5.10805 10.8723 3.91987 12.8275 3.11156C14.7826 2.30326 16.8787 1.89089 18.9943 1.89834C23.292 1.89834 27.3365 3.56994 30.3739 6.61256C33.4165 9.65519 35.0933 13.6997 35.0933 18.0026C35.0933 19.3051 34.9352 20.6023 34.6293 21.8521C34.6105 21.9287 34.5664 21.9969 34.5043 22.0456C34.4422 22.0944 34.3655 22.1209 34.2866 22.121Z" fill="black"/>
<path fill-rule="evenodd" clip-rule="evenodd" d="M18.9891 6.15907C18.8963 6.15768 18.8078 6.11985 18.7426 6.05374C18.6775 5.98763 18.641 5.89856 18.641 5.80576V2.25164C18.6349 2.20198 18.6394 2.15159 18.6543 2.10381C18.6691 2.05602 18.6939 2.01194 18.7271 1.97446C18.7602 1.93699 18.801 1.90698 18.8466 1.88643C18.8922 1.86588 18.9417 1.85526 18.9917 1.85526C19.0417 1.85526 19.0912 1.86588 19.1368 1.88643C19.1824 1.90698 19.2232 1.93699 19.2563 1.97446C19.2895 2.01194 19.3143 2.05602 19.3291 2.10381C19.3439 2.15159 19.3485 2.20198 19.3424 2.25164V5.80049C19.3424 5.9956 19.1842 6.15907 18.9891 6.15907ZM22.5643 5.00951C22.5106 5.00887 22.4578 4.996 22.4098 4.97189C22.3619 4.94777 22.32 4.91305 22.2875 4.87035C22.255 4.82766 22.2326 4.77811 22.2221 4.72547C22.2115 4.67283 22.2132 4.61849 22.2268 4.56657L22.7277 2.68931C22.7572 2.60493 22.8175 2.53485 22.8966 2.49318C22.9757 2.45151 23.0676 2.44136 23.1538 2.46476C23.2401 2.48816 23.3143 2.54338 23.3614 2.6193C23.4086 2.69521 23.4252 2.78618 23.408 2.87388L22.907 4.74585C22.8872 4.82156 22.8427 4.88853 22.7807 4.93625C22.7187 4.98397 22.6425 5.00974 22.5643 5.00951ZM28.7603 8.58473C28.6893 8.5877 28.6192 8.56892 28.5593 8.53091C28.4994 8.4929 28.4525 8.43747 28.4249 8.37206C28.3974 8.30665 28.3905 8.23438 28.4052 8.16495C28.4199 8.09551 28.4555 8.03223 28.5071 7.98359L29.8782 6.61256C29.9089 6.57292 29.9477 6.54028 29.992 6.5168C30.0363 6.49332 30.0851 6.47954 30.1352 6.47638C30.1852 6.47322 30.2354 6.48075 30.2823 6.49847C30.3292 6.51619 30.3718 6.5437 30.4072 6.57916C30.4427 6.61462 30.4702 6.65722 30.4879 6.70413C30.5057 6.75105 30.5132 6.80119 30.51 6.85124C30.5069 6.90129 30.4931 6.95009 30.4696 6.9944C30.4461 7.03871 30.4135 7.07752 30.3738 7.10824L29.0028 8.47927C28.939 8.54497 28.8518 8.58287 28.7603 8.58473ZM32.3302 14.7754C32.2468 14.7721 32.1673 14.7394 32.1058 14.6832C32.0442 14.6269 32.0046 14.5506 31.9938 14.4679C31.9831 14.3852 32.002 14.3013 32.0471 14.2312C32.0923 14.161 32.1608 14.1091 32.2406 14.0847L34.1125 13.5837C34.2002 13.5665 34.2912 13.5831 34.3671 13.6303C34.443 13.6774 34.4982 13.7516 34.5216 13.8379C34.5451 13.9241 34.5349 14.016 34.4932 14.0951C34.4516 14.1742 34.3815 14.2345 34.2971 14.2639L32.4198 14.7649C32.3888 14.7728 32.3622 14.7764 32.3302 14.7754ZM15.4138 5.00951C15.3365 5.00858 15.2616 4.98228 15.2006 4.93465C15.1396 4.88702 15.096 4.82069 15.0764 4.74585L14.5754 2.87915C14.5612 2.83397 14.5562 2.78639 14.5608 2.73924C14.5653 2.6921 14.5793 2.64635 14.6019 2.60471C14.6245 2.56308 14.6552 2.52641 14.6922 2.49689C14.7292 2.46737 14.7718 2.44559 14.8175 2.43286C14.8631 2.42013 14.9108 2.4167 14.9578 2.42278C15.0047 2.42886 15.05 2.44432 15.0909 2.46824C15.1318 2.49217 15.1674 2.52407 15.1957 2.56205C15.224 2.60002 15.2444 2.6433 15.2556 2.68931L15.7566 4.56657C15.7703 4.61892 15.7718 4.67372 15.761 4.72675C15.7502 4.77978 15.7274 4.82962 15.6943 4.87243C15.6611 4.91523 15.6186 4.94985 15.57 4.97362C15.5214 4.99739 15.468 5.00967 15.4138 5.00951ZM9.22313 8.58473C9.17688 8.5845 9.13114 8.57505 9.08859 8.55694C9.04604 8.53884 9.00752 8.51243 8.97529 8.47927L7.60426 7.10824C7.56462 7.07752 7.53198 7.03871 7.5085 6.9944C7.48502 6.95009 7.47124 6.90129 7.46808 6.85124C7.46492 6.80119 7.47245 6.75105 7.49017 6.70413C7.50789 6.65722 7.5354 6.61462 7.57086 6.57916C7.60632 6.5437 7.64892 6.51619 7.69583 6.49847C7.74274 6.48075 7.79289 6.47322 7.84294 6.47638C7.89299 6.47954 7.94179 6.49332 7.9861 6.5168C8.03041 6.54028 8.06922 6.57292 8.09994 6.61256L9.47096 7.98359C9.51959 8.03298 9.55261 8.09558 9.56592 8.16359C9.57923 8.23161 9.57224 8.30204 9.54583 8.36611C9.51941 8.43019 9.47473 8.48508 9.41735 8.52395C9.35997 8.56282 9.29243 8.58396 9.22313 8.58473ZM5.64791 14.7754C5.61627 14.7754 5.5899 14.7754 5.55827 14.7649L3.68101 14.2639C3.59011 14.2395 3.51265 14.1799 3.46568 14.0983C3.4187 14.0167 3.40606 13.9198 3.43054 13.8289C3.45501 13.738 3.5146 13.6605 3.59618 13.6136C3.67777 13.5666 3.77467 13.554 3.86557 13.5784L5.73228 14.0847C5.81203 14.1091 5.88055 14.161 5.9257 14.2312C5.97086 14.3013 5.98974 14.3852 5.97901 14.4679C5.96827 14.5506 5.92861 14.6269 5.86705 14.6832C5.80549 14.7394 5.73126 14.7721 5.64791 14.7754ZM25.0901 7.79375C25.0285 7.79347 24.968 7.77707 24.9147 7.74619C24.8614 7.71531 24.8171 7.67102 24.7861 7.61771C24.7552 7.56441 24.7388 7.50394 24.7385 7.44232C24.7381 7.3807 24.7539 7.32006 24.7843 7.26643L26.5613 4.18162C26.5813 4.13592 26.6106 4.09496 26.6475 4.06142C26.6844 4.02788 26.728 4.00253 26.7754 3.98703C26.8228 3.97153 26.8729 3.96624 26.9225 3.97151C26.9721 3.97677 27.02 3.99247 27.063 4.01756C27.1061 4.04266 27.1434 4.0766 27.1724 4.11713C27.2015 4.15767 27.2216 4.20389 27.2315 4.25275C27.2414 4.30162 27.2408 4.35203 27.2298 4.40066C27.2188 4.44929 27.1977 4.49505 27.1678 4.53493L25.3907 7.61446C25.36 7.66865 25.3156 7.71376 25.2619 7.74525C25.2082 7.77673 25.1471 7.79347 25.0848 7.79375H25.0901ZM29.5512 12.2549C29.4733 12.2554 29.3973 12.2301 29.3352 12.183C29.2731 12.1359 29.2283 12.0695 29.2079 11.9943C29.1874 11.9191 29.1924 11.8392 29.2221 11.7671C29.2518 11.695 29.3045 11.6347 29.3719 11.5957L32.4568 9.81865C32.537 9.78207 32.6281 9.77684 32.712 9.804C32.796 9.83116 32.8667 9.88875 32.9103 9.96543C32.954 10.0421 32.9673 10.1323 32.9478 10.2184C32.9283 10.3044 32.8773 10.38 32.8048 10.4303L29.7252 12.2074C29.6724 12.2382 29.6124 12.2546 29.5512 12.2549ZM34.74 18.3507H31.1859C31.1363 18.3568 31.0859 18.3522 31.0381 18.3374C30.9903 18.3226 30.9462 18.2978 30.9087 18.2646C30.8713 18.2315 30.8413 18.1907 30.8207 18.1451C30.8002 18.0995 30.7895 18.05 30.7895 18C30.7895 17.95 30.8002 17.9005 30.8207 17.8549C30.8413 17.8093 30.8713 17.7685 30.9087 17.7354C30.9462 17.7022 30.9903 17.6774 31.0381 17.6626C31.0859 17.6477 31.1363 17.6432 31.1859 17.6493H34.74C34.8256 17.6598 34.9044 17.7013 34.9616 17.7659C35.0187 17.8305 35.0503 17.9138 35.0503 18C35.0503 18.0862 35.0187 18.1695 34.9616 18.2341C34.9044 18.2987 34.8256 18.3401 34.74 18.3507ZM12.8933 7.79375C12.831 7.79347 12.7699 7.77673 12.7162 7.74525C12.6625 7.71376 12.6181 7.66865 12.5874 7.61446L10.8104 4.53493C10.7858 4.49471 10.7695 4.44998 10.7625 4.40338C10.7554 4.35677 10.7578 4.30923 10.7694 4.26355C10.7811 4.21788 10.8017 4.17499 10.8302 4.13741C10.8586 4.09984 10.8943 4.06834 10.9351 4.04477C10.9759 4.02119 11.021 4.00602 11.0678 4.00015C11.1146 3.99428 11.162 3.99783 11.2074 4.01058C11.2528 4.02333 11.2952 4.04504 11.332 4.07441C11.3689 4.10379 11.3995 4.14024 11.422 4.18162L13.1991 7.26116C13.2295 7.31479 13.2453 7.37543 13.2449 7.43705C13.2446 7.49867 13.2282 7.55913 13.1972 7.61244C13.1663 7.66574 13.122 7.71004 13.0687 7.74092C13.0154 7.7718 12.9549 7.78819 12.8933 7.78848V7.79375ZM8.42688 12.2549C8.36703 12.2521 8.3089 12.2339 8.25813 12.2021L5.17332 10.4303C5.13194 10.4078 5.09549 10.3772 5.06611 10.3403C5.03674 10.3035 5.01503 10.2611 5.00228 10.2157C4.98953 10.1703 4.98598 10.1229 4.99185 10.0761C4.99772 10.0294 5.01289 9.98423 5.03646 9.94342C5.06004 9.90261 5.09154 9.86692 5.12911 9.83847C5.16669 9.81001 5.20958 9.78937 5.25525 9.77774C5.30093 9.76611 5.34847 9.76374 5.39507 9.77077C5.44168 9.7778 5.48641 9.79408 5.52663 9.81865L8.60616 11.5957C8.67327 11.6345 8.72575 11.6943 8.75552 11.7659C8.78529 11.8374 8.7907 11.9168 8.77091 11.9918C8.75113 12.0667 8.70725 12.1331 8.64603 12.1806C8.58481 12.2281 8.50438 12.2542 8.42688 12.2549ZM6.79746 18.3507H3.24334C3.19368 18.3568 3.14329 18.3522 3.09551 18.3374C3.04772 18.3226 3.00364 18.2978 2.96616 18.2646C2.92869 18.2315 2.89868 18.1907 2.87813 18.1451C2.85758 18.0995 2.84695 18.05 2.84695 18C2.84695 17.95 2.85758 17.9005 2.87813 17.8549C2.89868 17.8093 2.92869 17.7685 2.96616 17.7354C3.00364 17.7022 3.04772 17.6774 3.09551 17.6626C3.14329 17.6477 3.19368 17.6432 3.24334 17.6493H6.79219C6.87779 17.6598 6.95658 17.7013 7.01372 17.7659C7.07087 17.8305 7.10241 17.9138 7.10241 18C7.10241 18.0862 7.07087 18.1695 7.01372 18.2341C6.95658 18.2987 6.88306 18.3401 6.79746 18.3507ZM18.9891 25.6804C18.3842 25.6811 17.8044 25.922 17.3772 26.3502C16.95 26.7784 16.7103 27.3588 16.711 27.9637C16.7117 28.5685 16.9527 29.1483 17.3809 29.5756C17.8091 30.0028 18.3895 30.2424 18.9943 30.2417C19.5992 30.2417 20.1793 30.0014 20.607 29.5737C21.0347 29.146 21.275 28.5659 21.275 27.961C21.275 27.3562 21.0347 26.7761 20.607 26.3484C20.1793 25.9207 19.5939 25.6804 18.9891 25.6804ZM18.9891 30.9377C18.5971 30.937 18.2091 30.8592 17.8473 30.7085C17.4854 30.5579 17.1568 30.3375 16.8802 30.0598C16.6035 29.7822 16.3842 29.4528 16.2349 29.0904C16.0855 28.728 16.009 28.3398 16.0097 27.9478C16.0104 27.5559 16.0883 27.1679 16.2389 26.8061C16.3895 26.4442 16.61 26.1156 16.8876 25.8389C17.1652 25.5623 17.4947 25.343 17.857 25.1937C18.2194 25.0443 18.6077 24.9678 18.9996 24.9685C19.7912 24.9699 20.5498 25.2857 21.1085 25.8464C21.6672 26.4071 21.9803 27.1668 21.9789 27.9584C21.9775 28.75 21.6618 29.5086 21.101 30.0673C20.5403 30.626 19.7806 30.9391 18.9891 30.9377Z" fill="black"/>
<path fill-rule="evenodd" clip-rule="evenodd" d="M20.861 26.4608L20.8083 26.4555C20.7162 26.4412 20.6334 26.3911 20.5781 26.316C20.5228 26.2409 20.4994 26.147 20.513 26.0548L22.0106 16.6843L18.6252 25.5433C18.5873 25.6234 18.5206 25.6864 18.4384 25.7196C18.3562 25.7529 18.2645 25.754 18.1815 25.7228C18.0985 25.6916 18.0303 25.6303 17.9904 25.5512C17.9505 25.472 17.9418 25.3807 17.9661 25.2954L22.5643 13.262C22.5979 13.1838 22.6588 13.1203 22.7355 13.0834C22.8123 13.0464 22.8998 13.0384 22.982 13.0609C23.0642 13.0834 23.1355 13.1348 23.1827 13.2057C23.23 13.2765 23.2501 13.3621 23.2392 13.4466L21.2091 26.1655C21.1953 26.2479 21.1529 26.3228 21.0891 26.3769C21.0254 26.431 20.9446 26.4607 20.861 26.4608ZM19.6377 34.1017C19.606 34.1017 19.5797 34.1017 19.548 34.0911L15.4402 32.9837C15.3936 32.9706 15.3501 32.9481 15.3126 32.9175C15.275 32.8869 15.2442 32.8489 15.2219 32.8059C15.1996 32.7629 15.1865 32.7157 15.1832 32.6674C15.1799 32.6191 15.1866 32.5706 15.2029 32.525L16.4527 29.2556C16.468 29.2106 16.4922 29.1691 16.5239 29.1337C16.5556 29.0983 16.5942 29.0696 16.6372 29.0494C16.6803 29.0293 16.727 29.018 16.7745 29.0163C16.822 29.0146 16.8694 29.0225 16.9138 29.0395C16.9582 29.0566 16.9987 29.0824 17.0328 29.1155C17.067 29.1486 17.0942 29.1882 17.1126 29.232C17.1311 29.2758 17.1406 29.3229 17.1404 29.3704C17.1403 29.418 17.1306 29.465 17.1118 29.5087L16.0044 32.409L19.3529 33.3054L19.8433 30.2417C19.864 30.1557 19.9162 30.0806 19.9896 30.0312C20.063 29.9818 20.1523 29.9618 20.2397 29.9751C20.3272 29.9883 20.4065 30.0339 20.462 30.1028C20.5175 30.1717 20.5451 30.2589 20.5394 30.3472L19.9857 33.8064C19.972 33.8888 19.9295 33.9637 19.8658 34.0177C19.802 34.0718 19.7212 34.1015 19.6377 34.1017Z" fill="black"/>
<path fill-rule="evenodd" clip-rule="evenodd" d="M18.9891 7.3719C20.5631 7.37233 22.1174 7.72211 23.5399 8.39601C24.9623 9.06991 26.2175 10.0511 27.2148 11.2689C28.2121 12.4866 28.9267 13.9106 29.307 15.438C29.6874 16.9654 29.7239 18.5581 29.4141 20.1014L34.0334 21.3406C34.2444 20.3597 34.3657 19.3578 34.392 18.3507H31.1912C31.1415 18.3568 31.0912 18.3523 31.0434 18.3374C30.9956 18.3226 30.9515 18.2978 30.914 18.2646C30.8765 18.2315 30.8465 18.1907 30.826 18.1451C30.8054 18.0995 30.7948 18.05 30.7948 18C30.7948 17.95 30.8054 17.9005 30.826 17.8549C30.8465 17.8093 30.8765 17.7685 30.914 17.7354C30.9515 17.7022 30.9956 17.6774 31.0434 17.6626C31.0912 17.6477 31.1415 17.6432 31.1912 17.6493H34.392C34.3675 16.5383 34.2225 15.4333 33.9596 14.3536L32.4304 14.7649C32.3427 14.7821 32.2517 14.7655 32.1758 14.7183C32.0999 14.6712 32.0447 14.597 32.0213 14.5107C31.9979 14.4245 32.008 14.3326 32.0497 14.2535C32.0914 14.1744 32.1615 14.1141 32.2458 14.0847L33.7751 13.6734C33.4637 12.6091 33.0375 11.5818 32.5042 10.6096L29.7305 12.2074C29.6508 12.2534 29.556 12.2659 29.4671 12.2421C29.3782 12.2184 29.3022 12.1604 29.2559 12.0809C29.232 12.041 29.2162 11.9969 29.2093 11.951C29.2025 11.905 29.2047 11.8582 29.216 11.8131C29.2273 11.7681 29.2473 11.7257 29.275 11.6884C29.3026 11.6511 29.3374 11.6196 29.3772 11.5957L32.1509 9.99795C31.5721 9.05086 30.8933 8.1687 30.126 7.36663L29.0134 8.47927C28.9809 8.51292 28.942 8.53969 28.899 8.55797C28.8559 8.57625 28.8097 8.58567 28.7629 8.58567C28.7161 8.58567 28.6699 8.57625 28.6268 8.55797C28.5838 8.53969 28.5449 8.51292 28.5124 8.47927C28.4474 8.41318 28.4109 8.32417 28.4109 8.23143C28.4109 8.1387 28.4474 8.04968 28.5124 7.98359L29.6303 6.87095C28.8266 6.1034 27.9427 5.42453 26.9937 4.84605L25.396 7.61447C25.3774 7.66164 25.3488 7.70425 25.3122 7.7394C25.2757 7.77455 25.232 7.80142 25.1841 7.81818C25.1363 7.83494 25.0854 7.84121 25.0349 7.83655C24.9844 7.83188 24.9355 7.81641 24.8915 7.79116C24.8475 7.76592 24.8095 7.73151 24.78 7.69026C24.7505 7.64901 24.7302 7.60189 24.7205 7.55211C24.7109 7.50233 24.712 7.45105 24.7239 7.40176C24.7358 7.35247 24.7582 7.30631 24.7896 7.26644L26.3873 4.49275C25.412 3.9569 24.3812 3.529 23.3131 3.21664L22.907 4.74586C22.8953 4.79087 22.8747 4.83312 22.8466 4.8702C22.8185 4.90728 22.7834 4.93847 22.7433 4.96197C22.7031 4.98547 22.6587 5.00084 22.6126 5.00719C22.5665 5.01354 22.5196 5.01075 22.4746 4.99897C22.4296 4.9872 22.3874 4.96668 22.3503 4.93858C22.3132 4.91048 22.282 4.87535 22.2585 4.83519C22.235 4.79504 22.2197 4.75065 22.2133 4.70456C22.207 4.65847 22.2097 4.61158 22.2215 4.56657L22.6381 3.03735C21.5782 2.77369 20.4761 2.63132 19.3424 2.60495V5.8005C19.3318 5.88609 19.2904 5.96489 19.2258 6.02203C19.1612 6.07917 19.0779 6.11072 18.9917 6.11072C18.9055 6.11072 18.8222 6.07917 18.7576 6.02203C18.693 5.96489 18.6515 5.88609 18.641 5.8005V2.60495C17.53 2.62945 16.425 2.77443 15.3453 3.03735L15.7566 4.56657C15.7804 4.65748 15.7671 4.7541 15.7196 4.83519C15.6721 4.91629 15.5944 4.9752 15.5035 4.99897C15.4126 5.02275 15.316 5.00944 15.2349 4.96197C15.1538 4.9145 15.0949 4.83677 15.0711 4.74586L14.6651 3.21664C13.5893 3.53303 12.5663 3.96543 11.6013 4.49275L13.1991 7.26644C13.2357 7.34672 13.2409 7.43779 13.2138 7.52173C13.1866 7.60567 13.129 7.67641 13.0523 7.72003C12.9757 7.76366 12.8854 7.77702 12.7994 7.75749C12.7134 7.73795 12.6377 7.68694 12.5874 7.61447L10.9896 4.85132C10.0405 5.43137 9.15985 6.11161 8.35833 6.87623L9.47097 7.98887C9.51061 8.01959 9.54325 8.05839 9.56673 8.1027C9.59021 8.14701 9.60399 8.19582 9.60715 8.24586C9.61031 8.29591 9.60278 8.34606 9.58506 8.39297C9.56734 8.43989 9.53983 8.48249 9.50437 8.51795C9.46891 8.55341 9.42631 8.58091 9.3794 8.59863C9.33249 8.61635 9.28234 8.62389 9.23229 8.62073C9.18224 8.61757 9.13344 8.60379 9.08913 8.58031C9.04482 8.55683 9.00601 8.52418 8.97529 8.48455L7.86265 7.37718C7.09574 8.17761 6.41689 9.058 5.83775 10.0032L8.60617 11.601C8.65082 11.6213 8.69073 11.6508 8.72338 11.6874C8.75603 11.724 8.78069 11.767 8.7958 11.8137C8.8109 11.8604 8.81612 11.9097 8.81112 11.9585C8.80611 12.0073 8.791 12.0546 8.76673 12.0972C8.74247 12.1398 8.70959 12.177 8.67019 12.2062C8.63079 12.2354 8.58573 12.2562 8.53788 12.267C8.49004 12.2779 8.44045 12.2787 8.39229 12.2693C8.34413 12.26 8.29844 12.2407 8.25814 12.2127L5.48445 10.6149C4.95713 11.5799 4.52473 12.6029 4.20834 13.6786L5.73756 14.0899C5.7861 14.0979 5.83244 14.116 5.8736 14.143C5.91476 14.1699 5.94984 14.2052 5.97659 14.2464C6.00334 14.2877 6.02117 14.3342 6.02894 14.3827C6.0367 14.4313 6.03424 14.481 6.0217 14.5286C6.00916 14.5761 5.98682 14.6206 5.95612 14.659C5.92541 14.6975 5.88702 14.7291 5.84339 14.7518C5.79977 14.7746 5.75187 14.7879 5.70277 14.7911C5.65367 14.7943 5.60446 14.7871 5.55827 14.7702L4.02905 14.3589C3.76539 15.4188 3.62302 16.5209 3.59665 17.6546H6.7922C6.87779 17.6651 6.95659 17.7066 7.01373 17.7712C7.07087 17.8358 7.10242 17.919 7.10242 18.0053C7.10242 18.0915 7.07087 18.1748 7.01373 18.2394C6.95659 18.304 6.87779 18.3454 6.7922 18.3559H3.59665C3.61774 19.3631 3.73902 20.365 3.95523 21.3458L8.57453 20.1066C8.26481 18.5638 8.30127 16.9715 8.6813 15.4445C9.06133 13.9175 9.77545 12.4939 10.7722 11.2762C11.7689 10.0585 13.0234 9.07721 14.4452 8.40297C15.867 7.72873 17.4208 7.37838 18.9943 7.37718L18.9891 7.3719ZM21.2671 27.9584C21.2671 27.6589 21.2081 27.3623 21.0935 27.0856C20.9789 26.8089 20.8109 26.5575 20.5991 26.3457C20.3873 26.134 20.1359 25.966 19.8592 25.8514C19.5825 25.7367 19.2859 25.6777 18.9864 25.6777C18.6869 25.6777 18.3904 25.7367 18.1137 25.8514C17.837 25.966 17.5855 26.134 17.3738 26.3457C17.162 26.5575 16.994 26.8089 16.8794 27.0856C16.7648 27.3623 16.7058 27.6589 16.7058 27.9584C16.7058 28.5633 16.9461 29.1434 17.3738 29.5711C17.8015 29.9988 18.3816 30.239 18.9864 30.239C19.5913 30.239 20.1714 29.9988 20.5991 29.5711C21.0268 29.1434 21.2671 28.5633 21.2671 27.9584Z" fill="#FF9801"/>
<path fill-rule="evenodd" clip-rule="evenodd" d="M20.6079 25.4536L22.0106 16.6843L18.8414 24.9791C19.4652 24.9502 20.0825 25.1161 20.6079 25.4536ZM19.7484 30.8376C19.2475 30.9696 18.7207 30.9685 18.2204 30.8344C17.72 30.7003 17.2633 30.4378 16.8956 30.0729L15.9992 32.409L19.3529 33.3054L19.7484 30.8376Z" fill="#FFE600"/>
</svg>
