<svg width="37" height="36" viewBox="0 0 37 36" fill="none" xmlns="http://www.w3.org/2000/svg">
<g clip-path="url(#clip0_44_1617)">
<path d="M18.9864 12.0938C18.404 12.0938 17.9318 11.6215 17.9318 11.0391V3.86719C17.9318 3.28472 18.404 2.8125 18.9864 2.8125C19.5689 2.8125 20.0411 3.28472 20.0411 3.86719V11.0391C20.0411 11.6215 19.569 12.0938 18.9864 12.0938Z" fill="#E2DFF4"/>
<path d="M20.0411 11.0391V3.86719C20.0411 3.28472 19.5689 2.8125 18.9865 2.8125V12.0938C19.569 12.0938 20.0411 11.6215 20.0411 11.0391Z" fill="#D5D3EA"/>
<path d="M12.6583 23.6953L9.84583 34.9453H28.1271L25.3146 23.6953H12.6583Z" fill="#5F6C75"/>
<path d="M18.9865 34.9453H28.1271L25.3146 23.6953H18.9865V34.9453Z" fill="#424C52"/>
<path d="M3.39264 23.6953L5.19046 32.6844C5.45336 33.999 6.60768 34.9453 7.94833 34.9453H9.84578L12.6583 22.6406L3.39264 23.6953Z" fill="#BEE75E"/>
<path d="M25.3146 22.6406L28.1271 34.9453H30.0245C31.3652 34.9453 32.5195 33.999 32.7824 32.6844L34.5803 23.6953L25.3146 22.6406Z" fill="#00DA80"/>
<path d="M24.0347 22.8818L26.0808 22.3692L29.1628 34.6722L27.1167 35.1847L24.0347 22.8818Z" fill="#E2DFF4"/>
<path d="M8.8205 34.7027L11.9026 22.3999L13.9487 22.9125L10.8666 35.2153L8.8205 34.7027ZM18.9864 30.7266C18.4039 30.7266 17.9317 31.1988 17.9317 31.7812V34.9453H20.0411V31.7812C20.0411 31.1988 19.569 30.7266 18.9864 30.7266Z" fill="#F1F1F4"/>
<path d="M20.0411 34.9453V31.7812C20.0411 31.1988 19.5689 30.7266 18.9865 30.7266V34.9453H20.0411Z" fill="#E2DFF4"/>
<path d="M17.9318 22.6406V26.8594C17.9318 27.4418 18.404 27.9141 18.9864 27.9141C19.5689 27.9141 20.0411 27.4418 20.0411 26.8594V22.6406H17.9318Z" fill="#F1F1F4"/>
<path d="M18.9865 27.9141C19.5689 27.9141 20.0411 27.4418 20.0411 26.8594V22.6406H18.9865V27.9141Z" fill="#E2DFF4"/>
<path d="M33.1183 13.8516H4.85459C3.07976 13.8516 1.74861 15.4753 2.09672 17.2157L3.39265 23.6953H34.5803L35.8762 17.2157C36.2242 15.4753 34.8931 13.8516 33.1183 13.8516Z" fill="#BDFDFF"/>
<path d="M33.1183 13.8516H18.9865V23.6953H34.5803L35.8762 17.2157C36.2243 15.4753 34.8932 13.8516 33.1183 13.8516Z" fill="#AED0FF"/>
<path d="M30.0243 36H7.94814C6.11116 36 4.51633 34.6925 4.15605 32.8913L1.0623 17.4225C0.834137 16.2819 1.12629 15.1119 1.86365 14.2123C2.60102 13.3128 3.69122 12.7969 4.85439 12.7969H33.1181C34.2813 12.7969 35.3714 13.3128 36.1088 14.2123C36.8462 15.1119 37.1383 16.2819 36.9101 17.4225L33.8164 32.8913C33.4561 34.6925 31.8614 36 30.0243 36ZM4.85439 14.9062C4.59425 14.9058 4.33727 14.9633 4.10212 15.0746C3.86698 15.1859 3.65957 15.3482 3.49497 15.5496C3.32972 15.7505 3.21128 15.9857 3.14827 16.2381C3.08526 16.4905 3.07925 16.7537 3.13068 17.0087L6.22443 32.4775C6.38819 33.2963 7.11311 33.8906 7.94814 33.8906H30.0244C30.8593 33.8906 31.5843 33.2963 31.748 32.4776L34.8418 17.0088C34.8932 16.7538 34.8872 16.4905 34.8242 16.2381C34.7612 15.9858 34.6427 15.7506 34.4775 15.5497C34.3129 15.3482 34.1055 15.186 33.8703 15.0747C33.6352 14.9634 33.3782 14.9059 33.118 14.9063H4.85439V14.9062Z" fill="#424C52"/>
<path d="M33.8164 32.8913L36.9102 17.4225C37.1383 16.2819 36.8462 15.1119 36.1088 14.2123C35.3714 13.3128 34.2812 12.7969 33.1181 12.7969H18.9865V14.9062H33.1181C33.6468 14.9062 34.1422 15.1407 34.4775 15.5496C34.6427 15.7505 34.7612 15.9857 34.8242 16.2381C34.8872 16.4905 34.8932 16.7537 34.8418 17.0087L31.748 32.4775C31.5843 33.2963 30.8593 33.8906 30.0243 33.8906H18.9865V36H30.0243C31.8614 36 33.4561 34.6925 33.8164 32.8913Z" fill="#2D2D2D"/>
<path d="M22.5021 17.7188H15.4708C13.7262 17.7188 12.3068 16.2994 12.3068 14.5547V11.0391C12.3068 10.4566 12.779 9.98438 13.3615 9.98438H24.6114C25.1939 9.98438 25.6661 10.4566 25.6661 11.0391V14.5547C25.6661 16.2994 24.2467 17.7188 22.5021 17.7188Z" fill="#5F6C75"/>
<path d="M24.6115 9.98438H18.9865V17.7188H22.5021C24.2467 17.7188 25.6661 16.2994 25.6661 14.5547V11.0391C25.6661 10.4566 25.194 9.98438 24.6115 9.98438Z" fill="#424C52"/>
<path d="M28.8302 4.21875H9.1427C8.56023 4.21875 8.08801 3.74653 8.08801 3.16406V1.05469C8.08801 0.472219 8.56023 0 9.1427 0H28.8302C29.4127 0 29.8849 0.472219 29.8849 1.05469V3.16406C29.8849 3.74653 29.4127 4.21875 28.8302 4.21875Z" fill="#F1F1F4"/>
<path d="M28.8302 4.21875C29.4127 4.21875 29.8849 3.74653 29.8849 3.16406V1.05469C29.8849 0.472219 29.4127 0 28.8302 0H18.9865V4.21875H28.8302Z" fill="#E2DFF4"/>
</g>
<defs>
<clipPath id="clip0_44_1617">
<rect width="36" height="36" fill="white" transform="translate(0.986206)"/>
</clipPath>
</defs>
</svg>
