<svg width="37" height="36" viewBox="0 0 37 36" fill="none" xmlns="http://www.w3.org/2000/svg">
<g clip-path="url(#clip0_44_1528)">
<mask id="mask0_44_1528" style="mask-type:luminance" maskUnits="userSpaceOnUse" x="0" y="0" width="37" height="36">
<path d="M0.985352 0.000102997H36.9852V36H0.985352V0.000102997Z" fill="white"/>
</mask>
<g mask="url(#mask0_44_1528)">
<path d="M33.4696 15.1876C33.4696 7.18806 26.9848 0.703226 18.9853 0.703226C10.9858 0.703226 4.50098 7.18806 4.50098 15.1876C4.50098 23.1871 10.9858 29.6719 18.9853 29.6719C26.9848 29.6719 33.4696 23.1871 33.4696 15.1876Z" fill="#898998"/>
<path d="M30.6572 15.1876C30.6572 8.7414 25.4315 3.51572 18.9853 3.51572C12.5392 3.51572 7.31348 8.7414 7.31348 15.1876C7.31348 21.6337 12.5392 26.8594 18.9853 26.8594C25.4315 26.8594 30.6572 21.6337 30.6572 15.1876Z" fill="white"/>
<path d="M30.4617 13.0518L22.8678 11.2196C20.3161 10.6039 17.6545 10.6039 15.1027 11.2196L7.50897 13.0518L7.84078 17.1652H13.9975C15.6649 17.1652 17.0165 18.5168 17.0165 20.1842V26.5556H20.954V20.1842C20.954 18.5168 22.3056 17.1652 23.9729 17.1652H30.1298L30.4617 13.0518Z" fill="#686C83"/>
<path d="M20.5556 15.0469C20.5556 14.1797 19.8525 13.4766 18.9853 13.4766C18.118 13.4766 17.4149 14.1797 17.4149 15.0469C17.4149 15.9142 18.118 16.6172 18.9853 16.6172C19.8525 16.6172 20.5556 15.9142 20.5556 15.0469Z" fill="#898998"/>
<path d="M30.1306 17.1661C30.2803 17.3183 30.4753 17.418 30.6863 17.4502C30.8974 17.4824 31.1132 17.4455 31.3015 17.3449L33.611 16.1113L34.2087 15.162C34.8711 15.5924 35.3528 16.2505 35.5629 17.012L36.1469 19.1295C36.2449 19.4846 36.266 19.8565 36.2088 20.2205C36.1517 20.5844 36.0175 20.9319 35.8154 21.2399L34.9821 22.5097L30.6492 23.4237L29.7291 22.478C29.113 21.8445 28.7682 20.9957 28.7682 20.112V18.4162C28.7682 18.159 28.8537 17.9091 29.0112 17.7058C29.1687 17.5025 29.3893 17.3573 29.6384 17.2931L30.1306 17.1661Z" fill="#FEDA9B"/>
<path d="M33.4697 35.2969L30.6493 23.4237L34.9821 22.5097L36.2822 25.6143V35.2969H33.4697Z" fill="#36D28F"/>
<path d="M7.84005 17.1661C7.69032 17.3183 7.49536 17.418 7.28429 17.4502C7.07323 17.4824 6.8574 17.4455 6.66907 17.3449L4.35959 16.1113L3.76194 15.162C3.09954 15.5924 2.61777 16.2505 2.40773 17.012L1.82371 19.1295C1.72573 19.4846 1.70462 19.8565 1.76179 20.2205C1.81896 20.5844 1.95309 20.9319 2.15523 21.2399L2.98851 22.5097L7.32143 23.4237L8.24147 22.478C8.85766 21.8445 9.20242 20.9957 9.20242 20.112V18.4162C9.20241 18.159 9.11692 17.9091 8.9594 17.7058C8.80188 17.5025 8.58127 17.3573 8.33224 17.2931L7.84005 17.1661Z" fill="#FEDA9B"/>
<path d="M4.50097 35.2969L7.32134 23.4237L2.98848 22.5097L1.68848 25.6143V35.2969H4.50097Z" fill="#36D28F"/>
</g>
</g>
<defs>
<clipPath id="clip0_44_1528">
<rect width="36" height="36" fill="white" transform="translate(0.985352)"/>
</clipPath>
</defs>
</svg>
