<svg width="37" height="36" viewBox="0 0 37 36" fill="none" xmlns="http://www.w3.org/2000/svg">
<path d="M12.8037 2.8125H25.1787V30.9375H12.8037V2.8125Z" fill="#3E3D42"/>
<path d="M18.9912 20.25C20.8552 20.25 22.3662 18.739 22.3662 16.875C22.3662 15.011 20.8552 13.5 18.9912 13.5C17.1272 13.5 15.6162 15.011 15.6162 16.875C15.6162 18.739 17.1272 20.25 18.9912 20.25Z" fill="#FFDA44"/>
<path d="M18.9912 11.25C20.8552 11.25 22.3662 9.73896 22.3662 7.875C22.3662 6.01104 20.8552 4.5 18.9912 4.5C17.1272 4.5 15.6162 6.01104 15.6162 7.875C15.6162 9.73896 17.1272 11.25 18.9912 11.25Z" fill="#D80027"/>
<path d="M18.9912 29.25C20.8552 29.25 22.3662 27.739 22.3662 25.875C22.3662 24.011 20.8552 22.5 18.9912 22.5C17.1272 22.5 15.6162 24.011 15.6162 25.875C15.6162 27.739 17.1272 29.25 18.9912 29.25Z" fill="#91CC04"/>
<path d="M16.46 1.125H21.5225C21.8954 1.125 22.2531 1.27316 22.5168 1.53688C22.7806 1.8006 22.9287 2.15829 22.9287 2.53125V2.8125H15.0537V2.53125C15.0537 2.15829 15.2019 1.8006 15.4656 1.53688C15.7293 1.27316 16.087 1.125 16.46 1.125ZM16.7412 30.9375H21.2412V34.875H16.7412V30.9375ZM26.8662 11.25H25.1787V4.5H27.9912L26.8662 11.25ZM26.8662 20.8125H25.1787V14.0625H27.9912L26.8662 20.8125ZM26.8662 29.8125H25.1787V23.0625H27.9912L26.8662 29.8125ZM11.1162 11.25H12.8037V4.5H9.99121L11.1162 11.25ZM11.1162 20.8125H12.8037V14.0625H9.99121L11.1162 20.8125ZM11.1162 29.8125H12.8037V23.0625H9.99121L11.1162 29.8125Z" fill="#2D2D30"/>
<path d="M18.9912 12.9375C18.2124 12.9375 17.4512 13.1684 16.8036 13.6011C16.1561 14.0337 15.6514 14.6487 15.3534 15.3682C15.0554 16.0877 14.9774 16.8794 15.1294 17.6432C15.2813 18.407 15.6563 19.1086 16.207 19.6592C16.7576 20.2099 17.4592 20.5849 18.223 20.7368C18.9868 20.8888 19.7785 20.8108 20.498 20.5128C21.2175 20.2148 21.8325 19.7101 22.2651 19.0626C22.6978 18.415 22.9287 17.6538 22.9287 16.875C22.9275 15.8311 22.5123 14.8302 21.7741 14.0921C21.036 13.3539 20.0351 12.9387 18.9912 12.9375ZM18.9912 19.6875C18.4349 19.6875 17.8912 19.5225 17.4287 19.2135C16.9661 18.9045 16.6057 18.4652 16.3928 17.9513C16.1799 17.4374 16.1242 16.8719 16.2327 16.3263C16.3413 15.7807 16.6091 15.2796 17.0025 14.8863C17.3958 14.4929 17.8969 14.2251 18.4425 14.1165C18.9881 14.008 19.5536 14.0637 20.0675 14.2766C20.5814 14.4895 21.0207 14.8499 21.3297 15.3125C21.6387 15.775 21.8037 16.3187 21.8037 16.875C21.8029 17.6207 21.5063 18.3355 20.979 18.8628C20.4517 19.3901 19.7369 19.6867 18.9912 19.6875ZM18.9912 3.9375C18.2124 3.9375 17.4512 4.16843 16.8036 4.60109C16.1561 5.03375 15.6514 5.6487 15.3534 6.36818C15.0554 7.08767 14.9774 7.87937 15.1294 8.64317C15.2813 9.40697 15.6563 10.1086 16.207 10.6592C16.7576 11.2099 17.4592 11.5849 18.223 11.7368C18.9868 11.8888 19.7785 11.8108 20.498 11.5128C21.2175 11.2148 21.8325 10.7101 22.2651 10.0626C22.6978 9.41504 22.9287 8.65376 22.9287 7.875C22.9275 6.83107 22.5123 5.83023 21.7741 5.09206C21.036 4.35389 20.0351 3.93867 18.9912 3.9375ZM18.9912 10.6875C18.4349 10.6875 17.8912 10.5226 17.4287 10.2135C16.9661 9.90447 16.6057 9.46521 16.3928 8.9513C16.1799 8.43738 16.1242 7.87188 16.2327 7.32631C16.3413 6.78074 16.6091 6.2796 17.0025 5.88626C17.3958 5.49293 17.8969 5.22506 18.4425 5.11654C18.9881 5.00802 19.5536 5.06372 20.0675 5.27659C20.5814 5.48946 21.0207 5.84995 21.3297 6.31246C21.6387 6.77497 21.8037 7.31874 21.8037 7.875C21.8029 8.62066 21.5063 9.33555 20.979 9.86281C20.4517 10.3901 19.7369 10.6867 18.9912 10.6875ZM18.9912 21.9375C18.2124 21.9375 17.4512 22.1684 16.8036 22.6011C16.1561 23.0337 15.6514 23.6487 15.3534 24.3682C15.0554 25.0877 14.9774 25.8794 15.1294 26.6432C15.2813 27.407 15.6563 28.1086 16.207 28.6592C16.7576 29.2099 17.4592 29.5849 18.223 29.7368C18.9868 29.8888 19.7785 29.8108 20.498 29.5128C21.2175 29.2148 21.8325 28.7101 22.2651 28.0626C22.6978 27.415 22.9287 26.6538 22.9287 25.875C22.9275 24.8311 22.5123 23.8302 21.7741 23.0921C21.036 22.3539 20.0351 21.9387 18.9912 21.9375ZM18.9912 28.6875C18.4349 28.6875 17.8912 28.5226 17.4287 28.2135C16.9661 27.9045 16.6057 27.4652 16.3928 26.9513C16.1799 26.4374 16.1242 25.8719 16.2327 25.3263C16.3413 24.7807 16.6091 24.2796 17.0025 23.8863C17.3958 23.4929 17.8969 23.2251 18.4425 23.1165C18.9881 23.008 19.5536 23.0637 20.0675 23.2766C20.5814 23.4895 21.0207 23.8499 21.3297 24.3125C21.6387 24.775 21.8037 25.3187 21.8037 25.875C21.8029 26.6207 21.5063 27.3355 20.979 27.8628C20.4517 28.3901 19.7369 28.6867 18.9912 28.6875Z" fill="black"/>
<path d="M26.8662 21.375C26.9993 21.375 27.1281 21.3278 27.2296 21.2418C27.3312 21.1558 27.399 21.0366 27.421 20.9053L28.546 14.1553C28.5594 14.0747 28.5551 13.9922 28.5334 13.9134C28.5117 13.8347 28.4731 13.7616 28.4203 13.6992C28.3675 13.6369 28.3018 13.5868 28.2277 13.5524C28.1536 13.518 28.0729 13.5001 27.9912 13.5H25.7412V11.8125H26.8662C26.9993 11.8125 27.1281 11.7653 27.2296 11.6793C27.3312 11.5933 27.399 11.4741 27.421 11.3428L28.546 4.59281C28.5594 4.51222 28.5551 4.42969 28.5334 4.35093C28.5117 4.27217 28.4731 4.19908 28.4203 4.13673C28.3675 4.07438 28.3018 4.02426 28.2277 3.98986C28.1536 3.95545 28.0729 3.93759 27.9912 3.9375H25.7412V2.8125C25.7412 2.66332 25.6819 2.52024 25.5765 2.41475C25.471 2.30926 25.3279 2.25 25.1787 2.25H23.4708C23.4026 1.78173 23.1682 1.35362 22.8105 1.04382C22.4528 0.73401 21.9957 0.563176 21.5225 0.5625H16.46C15.9867 0.563176 15.5296 0.73401 15.1719 1.04382C14.8142 1.35362 14.5798 1.78173 14.5116 2.25H12.8037C12.6545 2.25 12.5114 2.30926 12.406 2.41475C12.3005 2.52024 12.2412 2.66332 12.2412 2.8125V3.9375H9.9912C9.90951 3.93759 9.82882 3.95545 9.75472 3.98986C9.68062 4.02426 9.6149 4.07438 9.56212 4.13673C9.50933 4.19908 9.47075 4.27217 9.44905 4.35093C9.42734 4.42969 9.42304 4.51222 9.43644 4.59281L10.5614 11.3428C10.5834 11.4741 10.6512 11.5933 10.7528 11.6793C10.8543 11.7653 10.9831 11.8125 11.1162 11.8125H12.2412V13.5H9.9912C9.90951 13.5001 9.82882 13.518 9.75472 13.5524C9.68062 13.5868 9.6149 13.6369 9.56212 13.6992C9.50933 13.7616 9.47075 13.8347 9.44905 13.9134C9.42734 13.9922 9.42304 14.0747 9.43644 14.1553L10.5614 20.9053C10.5834 21.0366 10.6512 21.1558 10.7528 21.2418C10.8543 21.3278 10.9831 21.375 11.1162 21.375H12.2412V22.5H9.9912C9.90951 22.5001 9.82882 22.518 9.75472 22.5524C9.68062 22.5868 9.6149 22.6369 9.56212 22.6992C9.50933 22.7616 9.47075 22.8347 9.44905 22.9134C9.42734 22.9922 9.42304 23.0747 9.43644 23.1553L10.5614 29.9053C10.5834 30.0366 10.6512 30.1558 10.7528 30.2418C10.8543 30.3278 10.9831 30.375 11.1162 30.375H12.2412V30.9375C12.2412 31.0867 12.3005 31.2298 12.406 31.3352C12.5114 31.4407 12.6545 31.5 12.8037 31.5H16.1787V34.875C16.1787 35.0242 16.238 35.1673 16.3435 35.2727C16.4489 35.3782 16.592 35.4375 16.7412 35.4375H21.2412C21.3904 35.4375 21.5335 35.3782 21.639 35.2727C21.7444 35.1673 21.8037 35.0242 21.8037 34.875V31.5H25.1787C25.3279 31.5 25.471 31.4407 25.5765 31.3352C25.6819 31.2298 25.7412 31.0867 25.7412 30.9375V30.375H26.8662C26.9993 30.375 27.1281 30.3278 27.2296 30.2418C27.3312 30.1558 27.399 30.0366 27.421 29.9053L28.546 23.1553C28.5594 23.0747 28.5551 22.9922 28.5334 22.9134C28.5117 22.8347 28.4731 22.7616 28.4203 22.6992C28.3675 22.6369 28.3018 22.5868 28.2277 22.5524C28.1536 22.518 28.0729 22.5001 27.9912 22.5H25.7412V21.375H26.8662ZM25.7412 5.0625H27.3275L26.3895 10.6875H25.7412V5.0625ZM25.7412 14.625H27.3275L26.3895 20.25H25.7412V14.625ZM12.2412 29.25H11.5929L10.655 23.625H12.2412V29.25ZM12.2412 20.25H11.5929L10.655 14.625H12.2412V20.25ZM12.2412 10.6875H11.5929L10.655 5.0625H12.2412V10.6875ZM16.46 1.6875H21.5225C21.6969 1.6877 21.8669 1.74187 22.0093 1.84259C22.1517 1.9433 22.2594 2.08562 22.3177 2.25H15.6647C15.723 2.08562 15.8307 1.9433 15.9731 1.84259C16.1155 1.74187 16.2856 1.6877 16.46 1.6875ZM20.6787 34.3125H17.3037V31.5H20.6787V34.3125ZM24.6162 30.375H13.3662V3.375H24.6162V30.375ZM27.3275 23.625L26.3895 29.25H25.7412V23.625H27.3275Z" fill="black"/>
</svg>
