<svg width="37" height="36" viewBox="0 0 37 36" fill="none" xmlns="http://www.w3.org/2000/svg">
<g clip-path="url(#clip0_44_1576)">
<path d="M26.534 31.6508C26.6848 31.5348 26.8071 31.3837 26.894 31.2097L28.4966 28.0161C28.7171 27.569 29.1701 27.2903 29.6695 27.2903C29.8089 27.2903 29.9365 27.3135 30.0643 27.3484C30.6566 27.5342 31.0629 28.1324 30.9643 28.7884L30.1803 34.2929C30.0876 34.9374 29.5359 35.4193 28.8798 35.4193H9.09143C8.4353 35.4193 7.88369 34.9374 7.79093 34.2929L7.00691 28.7884C6.9953 28.7247 6.9953 28.6606 6.9953 28.5968C6.9953 27.8882 7.56999 27.2903 8.30175 27.2903C8.37716 27.2903 8.45257 27.296 8.5282 27.3135C8.93458 27.3774 9.28863 27.6387 9.47465 28.0161L11.0771 31.2097C11.1642 31.3837 11.2863 31.5348 11.4372 31.6508C11.6681 31.835 11.9547 31.9353 12.2501 31.9355H25.7211C26.023 31.9355 26.3075 31.8309 26.534 31.6508Z" fill="#969FAA"/>
<path d="M30.0759 27.3076L30.0643 27.3485C29.9365 27.3136 29.8089 27.2903 29.6695 27.2903C29.1701 27.2903 28.7171 27.569 28.4966 28.0161L26.894 31.2097C26.807 31.3837 26.6848 31.5349 26.534 31.6508V29.6129C26.534 28.9742 26.0114 28.4516 25.3727 28.4516V25.6298C26.9173 26.251 28.4849 26.8143 30.0759 27.3076Z" fill="#CF9E76"/>
<path d="M36.405 22.0645V30.1935H35.2437C34.605 30.1935 34.0824 29.671 34.0824 29.0323V23.2258C34.0824 22.5871 34.605 22.0645 35.2437 22.0645H36.405Z" fill="#969FAA"/>
<path d="M25.3727 25.6297C20.867 23.8237 16.57 21.5361 12.552 18.7896C11.7564 18.2614 10.9728 17.704 10.2062 17.1348C9.74743 16.7922 9.30033 16.4438 8.85317 16.0956L3.88879 12.1935V8.12903L8.53962 11.7813L8.85317 12.0311C10.5546 13.3721 12.3198 14.6208 14.1431 15.7821C17.6964 18.0638 21.459 19.9974 25.3727 21.5653C27.084 22.2521 28.8236 22.8661 30.5869 23.4058C31.7426 23.7655 32.9082 24.0927 34.0823 24.3871V28.4516C32.7353 28.1148 31.394 27.7374 30.0759 27.3076C28.4848 26.8143 26.9173 26.251 25.3727 25.6297Z" fill="#FF826E"/>
<path d="M30.5985 23.3653L30.5869 23.4058C28.8236 22.8661 27.084 22.252 25.3727 21.5652V19.5446C25.3727 18.9291 25.6166 18.3368 26.052 17.9014L27.6953 16.2581H27.7069C27.7009 16.3452 27.6953 16.4264 27.6953 16.5135C27.6953 17.1001 27.8985 17.6632 28.2759 18.1163L29.0249 19.0105C30.0411 20.2355 30.5985 21.7742 30.5985 23.3653Z" fill="#CF9E76"/>
<path d="M26.9578 8.22776C28.4616 8.87213 29.4372 10.3529 29.4372 11.9903C29.4372 12.8788 29.1525 13.7382 28.6184 14.4465L28.1945 15.0097C27.9221 15.3741 27.7535 15.8055 27.7069 16.2581H27.6953L26.052 17.9013C25.6165 18.3368 25.3727 18.929 25.3727 19.5446V21.5652C21.459 19.9974 17.6964 18.0638 14.1431 15.782L14.3753 15.4277C14.6364 15.5845 14.9444 15.6774 15.2695 15.6774H22.7016C23.5669 15.6774 24.3044 15.0387 24.4263 14.1794L24.5366 13.4013L24.8734 11.0439L25.3727 7.5484L26.9578 8.22776Z" fill="#ECC19C"/>
<path d="M26.534 29.6129V31.6508C26.303 31.8349 26.0164 31.9353 25.7211 31.9355H12.2501C11.9482 31.9355 11.6637 31.8309 11.4372 31.6508V29.6129C11.4372 28.9742 11.9598 28.4516 12.5985 28.4516H25.3727C26.0114 28.4516 26.534 28.9742 26.534 29.6129Z" fill="#DFB28B"/>
<path d="M25.3727 25.6298V28.4516H12.5985V19.5446C12.5985 19.3121 12.5637 19.0799 12.4998 18.8652L12.5521 18.7896C16.5701 21.5361 20.8671 23.8238 25.3727 25.6298Z" fill="#ECC19C"/>
<path d="M25.3727 6.96775V7.5484H12.5985V6.96775C12.5985 3.43743 15.4553 0.580658 18.9856 0.580658C20.7508 0.580658 22.3475 1.29485 23.5029 2.45048C24.6585 3.60582 25.3727 5.20259 25.3727 6.96775Z" fill="#DFB28B"/>
<path d="M25.3727 7.5484L24.8734 11.0439L24.7921 11.0323H13.1792L13.0978 11.0439L12.5985 7.5484H25.3727Z" fill="#FCD770"/>
<path d="M24.8734 11.0439L24.5366 13.4013L24.2114 13.3548H13.7598L13.4346 13.4013L13.0978 11.0439L13.1791 11.0323H24.792L24.8734 11.0439Z" fill="#DFB28B"/>
<path d="M24.5366 13.4013L24.4262 14.1793C24.3045 15.0387 23.567 15.6774 22.7017 15.6774H15.2695C14.9443 15.6774 14.6364 15.5844 14.3753 15.4277C13.9398 15.1665 13.6203 14.7135 13.545 14.1793L13.4346 13.4014L13.7598 13.3548H24.2114L24.5366 13.4013Z" fill="#FCD770"/>
<path d="M14.3753 15.4277L14.1431 15.782C12.3199 14.6207 10.5547 13.3721 8.85322 12.0311L8.53967 11.7814C8.61537 10.2311 9.57337 8.84324 11.0134 8.22768L12.5985 7.5484L13.0978 11.0439L13.4346 13.4013L13.5449 14.1794C13.6204 14.7135 13.9398 15.1665 14.3753 15.4277Z" fill="#ECC19C"/>
<path d="M12.5985 19.5446V28.4516C11.9598 28.4516 11.4372 28.9742 11.4372 29.6129V31.6508C11.2864 31.5348 11.1641 31.3837 11.0772 31.2097L9.47462 28.0161C9.28866 27.6387 8.93462 27.3774 8.52831 27.3136L8.53397 27.2903L8.09283 26.4021C7.61648 25.4613 7.37268 24.416 7.37268 23.3653C7.37268 21.7742 7.9301 20.2356 8.94623 19.0105L9.69526 18.1163C9.92752 17.8376 10.0959 17.5064 10.1888 17.1579L10.2062 17.1347C10.9728 17.704 11.7564 18.2614 12.552 18.7895L12.4998 18.8653C12.565 19.0859 12.5983 19.3147 12.5985 19.5447V19.5446Z" fill="#CF9E76"/>
<path d="M3.8888 12.1935V13.3548C3.8888 13.9935 3.36622 14.5161 2.72751 14.5161H1.56622V6.38708H2.72751C3.36622 6.38708 3.8888 6.90967 3.8888 7.54838V12.1935Z" fill="#969FAA"/>
<path d="M35.2437 21.4839C34.2834 21.4839 33.5017 22.2656 33.5017 23.2258V23.6324C32.7115 23.4242 31.9293 23.2043 31.1619 22.9709C31.0765 21.3903 30.4882 19.8655 29.4698 18.6382L28.7219 17.7451C28.4304 17.3944 28.2759 16.9688 28.2759 16.5135C28.2759 16.4443 28.2805 16.38 28.2847 16.3173C28.3205 15.9698 28.4499 15.6385 28.6592 15.3587L29.0825 14.7959C29.6938 13.9843 30.0179 13.0141 30.0179 11.9903C30.0189 11.0756 29.751 10.1807 29.2477 9.41691C28.7443 8.65311 28.0276 8.05406 27.1866 7.6942L25.9517 7.16509L25.9533 6.96774C25.9533 5.10561 25.2292 3.3554 23.9135 2.03988C22.5979 0.724137 20.8484 0 18.9856 0C15.1434 0 12.0179 3.12554 12.0179 6.96774V7.16567L10.7846 7.69406C9.47811 8.25264 8.51671 9.39128 8.13791 10.7308L4.46947 7.84698V7.54839C4.46947 6.58814 3.68777 5.80645 2.72753 5.80645H0.985596V15.0968H2.72753C3.67761 15.0968 4.44907 14.3321 4.46656 13.3863L8.49682 16.554L8.55779 16.6017C8.87025 16.8452 9.18721 17.0874 9.50475 17.3289C9.43507 17.4781 9.35335 17.6204 9.25043 17.744L8.49965 18.6405C7.39824 19.9673 6.79205 21.6452 6.79205 23.3653C6.79205 24.5119 7.06256 25.653 7.57316 26.6603L7.65735 26.8305C6.93431 27.0953 6.41412 27.7834 6.41412 28.5968C6.41412 28.696 6.41753 28.7952 6.43139 28.8704L7.21534 34.3754C7.34947 35.3014 8.15605 36 9.0914 36H28.8798C29.8151 36 30.6217 35.3014 30.7553 34.3749L31.5386 28.8749C31.5648 28.7014 31.5593 28.5307 31.5392 28.364C32.1904 28.5536 32.8447 28.7326 33.5017 28.901V29.0323C33.5017 29.9925 34.2834 30.7742 35.2437 30.7742H36.9856V21.4839H35.2437ZM28.5784 19.3807C29.3397 20.2994 29.8151 21.417 29.9631 22.5888C28.6156 22.1569 27.2726 21.6837 25.9533 21.1635V19.5445C25.9533 19.0846 26.1384 18.6358 26.4626 18.3118L27.2808 17.4935C27.4021 17.8536 27.5839 18.1933 27.8305 18.4887L28.5784 19.3807ZM28.8566 11.9903C28.8566 12.7598 28.6139 13.4884 28.1546 14.0974L27.7301 14.6625C27.4475 15.0405 27.262 15.4796 27.1722 15.9607L25.6415 17.4914C25.1017 18.031 24.792 18.7792 24.792 19.5447V20.6961C21.757 19.4343 18.8138 17.9477 16.012 16.2581H22.7017C23.8508 16.2581 24.8397 15.3993 25.0011 14.2606L25.8408 8.38052L26.7297 8.76128C27.3615 9.03199 27.8999 9.48233 28.278 10.0564C28.6561 10.6304 28.8573 11.3029 28.8566 11.9903ZM14.6739 14.9295C14.3748 14.7501 14.1681 14.4396 14.1199 14.0974L14.0966 13.9356H23.8746L23.8513 14.0974C23.7708 14.667 23.2766 15.0968 22.7017 15.0968H15.2695C15.0617 15.0968 14.8561 15.0388 14.6739 14.9295ZM24.0401 12.7742H13.931L13.7655 11.6129H24.2062L24.0401 12.7742ZM24.3715 10.4516H13.5996L13.2679 8.12903H24.7033L24.3715 10.4516ZM18.9856 1.16129C20.5381 1.16129 21.9968 1.76516 23.0926 2.86069C24.1882 3.95652 24.792 5.41575 24.792 6.96774H13.1791C13.1791 3.76599 15.7838 1.16129 18.9856 1.16129ZM11.2416 8.76121L12.1358 8.37827L12.9702 14.2601C12.9736 14.2834 12.9835 14.304 12.9875 14.3273C11.6881 13.4501 10.4233 12.5292 9.21501 11.5769L9.15404 11.5287C9.31372 10.3158 10.1047 9.24721 11.2416 8.76121ZM3.30818 13.3548C3.30818 13.6746 3.0479 13.9355 2.72753 13.9355H2.14689V6.96774H2.72753C3.0479 6.96774 3.30818 7.2286 3.30818 7.54839V13.3548ZM9.3916 19.383L10.1413 18.4877C10.2592 18.3467 10.3607 18.1911 10.4519 18.029C10.9709 18.406 11.4726 18.759 11.9552 19.0841C11.9946 19.2333 12.0179 19.3901 12.0179 19.5446V27.9779C11.378 28.2061 10.9146 28.7935 10.8682 29.4987L9.99554 27.759C9.78005 27.3218 9.40328 26.9994 8.95785 26.837L8.61164 26.1395C8.18102 25.2901 7.95334 24.3308 7.95334 23.3654C7.95334 21.9154 8.46481 20.501 9.3916 19.3831V19.383ZM27.103 29.4986C27.0566 28.793 26.5927 28.2055 25.9533 27.9779V26.4797C26.7201 26.7764 27.4926 27.0583 28.2703 27.3252C28.1532 27.4543 28.0546 27.599 27.9774 27.7553L27.103 29.4986ZM24.792 27.871H19.5662V29.0323H25.3727C25.6931 29.0323 25.9533 29.2931 25.9533 29.6129V31.3149C25.8786 31.3409 25.8002 31.3543 25.7211 31.3548H12.2501C12.1712 31.3548 12.0927 31.3403 12.0179 31.3143V29.6129C12.0179 29.2931 12.2781 29.0323 12.5985 29.0323H18.4049V27.871H13.1791V19.9027C16.8286 22.3061 20.7275 24.3599 24.792 26.017V27.871ZM29.6062 34.2099C29.554 34.5688 29.2421 34.8387 28.8798 34.8387H9.0914C8.72901 34.8387 8.41713 34.5688 8.3656 34.211L7.57824 28.6827C7.57374 28.6543 7.57599 28.6252 7.57599 28.5968C7.57599 28.1967 7.90173 27.871 8.3018 27.871C8.3423 27.871 8.37322 27.8732 8.39702 27.8792L8.43818 27.8872C8.65933 27.922 8.8521 28.066 8.95611 28.2764L10.5586 31.4699C10.6876 31.7265 10.8637 31.942 11.076 32.105C11.4097 32.3706 11.8236 32.5155 12.2501 32.5161H25.7212C26.1456 32.5161 26.5624 32.3704 26.8882 32.1116C27.1082 31.942 27.2848 31.7265 27.4132 31.4705L29.0174 28.2733C29.1719 27.9608 29.5271 27.8055 29.8906 27.903C30.2286 28.0085 30.443 28.3524 30.3896 28.7071L29.6062 34.2099ZM30.2478 26.7534C28.723 26.2807 27.1557 25.7208 25.5893 25.0908C21.1142 23.2973 16.8382 21.0158 12.8738 18.3059C12.137 17.8171 11.3779 17.2813 10.5546 16.6697C10.1197 16.3451 9.69585 16.0154 9.27198 15.685L4.46947 11.9114V9.32349L8.17819 12.2361L8.49399 12.4879C10.1861 13.8212 11.9819 15.0945 13.8295 16.2714C17.39 18.558 21.2008 20.5205 25.1566 22.1051C26.8802 22.7961 28.6499 23.4214 30.4145 23.961C31.4184 24.2739 32.4561 24.5643 33.5017 24.8342V27.7026C32.3626 27.4035 31.2704 27.0864 30.2478 26.7534ZM35.8243 29.6129H35.2437C34.9233 29.6129 34.663 29.352 34.663 29.0323V23.2258C34.663 22.906 34.9233 22.6452 35.2437 22.6452H35.8243V29.6129Z" fill="black"/>
</g>
<defs>
<clipPath id="clip0_44_1576">
<rect width="36" height="36" fill="white" transform="translate(0.985596)"/>
</clipPath>
</defs>
</svg>
