<svg width="37" height="36" viewBox="0 0 37 36" fill="none" xmlns="http://www.w3.org/2000/svg">
<g clip-path="url(#clip0_44_1490)">
<path d="M36.8615 12.7125L33.0935 19.6341C32.8945 20.0011 32.4972 20.2149 32.081 20.1811C31.8773 20.1643 31.6829 20.0887 31.5214 19.9635C31.3599 19.8383 31.2382 19.6689 31.1712 19.4759L30.5904 17.8052C29.8099 18.3031 28.8304 19.0364 27.8714 20.0517C26.3379 21.6759 23.5323 25.5178 22.5332 28.9146C22.2237 30.0665 20.4323 29.7991 20.4667 28.6137L20.5019 17.9972C20.5026 17.7764 20.5722 17.562 20.7015 17.3834C21.3688 16.4588 22.1057 15.5841 22.8904 14.7839C24.85 12.7842 26.816 11.5277 28.3242 10.7627L27.704 8.80313C27.5754 8.39673 27.704 7.95306 28.0296 7.67813C28.3551 7.40391 28.8136 7.35188 29.1926 7.54735L36.4186 11.2711C36.5435 11.3354 36.6544 11.424 36.7445 11.5317C36.8347 11.6394 36.9025 11.764 36.9439 11.8983C37.0268 12.1697 36.9972 12.4636 36.8615 12.7125Z" fill="#6680FF"/>
<path d="M18.99 7.7492e-09L21.8586 14.92L18.99 29.8399L15.3688 24.7338V7.875H13.6462C13.2271 7.875 12.8474 7.6268 12.6794 7.24219C12.5974 7.05409 12.572 6.84615 12.6063 6.64384C12.6407 6.44153 12.7332 6.25362 12.8727 6.10313L18.2166 0.3375C18.3153 0.231032 18.435 0.1461 18.5681 0.0880249C18.7011 0.0299497 18.8448 -1.75937e-05 18.99 7.7492e-09Z" fill="#FF4D4D"/>
<path d="M25.3006 7.24219C25.1326 7.6268 24.7529 7.875 24.3338 7.875H22.6112L22.5887 34.9137L18.99 29.8399V7.7492e-09C19.1352 -1.75937e-05 19.2788 0.0299497 19.4119 0.0880249C19.545 0.1461 19.6647 0.231032 19.7634 0.3375L25.1072 6.10313C25.2467 6.25362 25.3393 6.44153 25.3737 6.64384C25.408 6.84615 25.3826 7.05409 25.3006 7.24219Z" fill="#E62E2E"/>
<path d="M18.99 20.1213L20.9071 32.56L18.99 36H16.4236C15.8414 36 15.3689 35.5275 15.3689 34.9453C15.3689 34.2443 15.3401 33.6044 15.2796 32.9892C15.03 30.4193 14.4872 28.0237 13.6666 25.8687C12.8011 23.5919 11.6037 21.6351 10.1081 20.0517C9.14899 19.0364 8.17024 18.303 7.38977 17.8052L6.80899 19.4758C6.74192 19.6689 6.62023 19.8383 6.45872 19.9635C6.2972 20.0887 6.10281 20.1643 5.89915 20.1811C5.4836 20.2148 5.08563 20.0011 4.88665 19.6341L1.11846 12.7125C1.0513 12.5891 1.00944 12.4535 0.995313 12.3137C0.981187 12.1739 0.995085 12.0326 1.03619 11.8983C1.07756 11.764 1.14533 11.6394 1.23552 11.5317C1.32572 11.424 1.43652 11.3354 1.56143 11.2711L8.78751 7.54733C8.97261 7.45183 9.18184 7.41329 9.38881 7.43657C9.59578 7.45984 9.79122 7.54389 9.95048 7.67811C10.1098 7.81255 10.2257 7.99112 10.2836 8.19132C10.3415 8.39153 10.3389 8.6044 10.276 8.80311L9.65587 10.7627C11.1641 11.5277 13.13 12.7842 15.0897 14.7839C15.8744 15.5841 16.6113 16.4587 17.2785 17.3833C17.9009 18.2433 18.4725 19.158 18.99 20.1213Z" fill="#FFC34D"/>
<path d="M22.5886 34.9137C22.5977 35.1984 22.4901 35.4748 22.2919 35.6794C22.1936 35.7809 22.0759 35.8615 21.9458 35.9166C21.8157 35.9717 21.6759 36.0001 21.5346 36H18.99V20.1213C19.4892 21.0488 19.9392 22.0205 20.3351 23.0309C21.697 26.5078 22.4551 30.5051 22.5886 34.9137Z" fill="#FF7733"/>
</g>
<defs>
<clipPath id="clip0_44_1490">
<rect width="36" height="36" fill="white" transform="translate(0.98999)"/>
</clipPath>
</defs>
</svg>
