<svg width="34" height="34" viewBox="0 0 34 34" fill="none" xmlns="http://www.w3.org/2000/svg">
<path d="M19.3281 14.3192C19.6833 14.3192 20.0586 14.1731 20.418 13.88C20.5195 13.7963 20.5837 13.6758 20.5967 13.5448C20.6096 13.4139 20.5702 13.2831 20.487 13.1812C20.4039 13.0792 20.2837 13.0143 20.1529 13.0006C20.022 12.9869 19.891 13.0255 19.7886 13.108C19.3296 13.4823 19.143 13.2686 19.0533 13.1661C18.9661 13.0673 18.8434 13.007 18.7119 12.9985C18.5804 12.99 18.4509 13.0339 18.3517 13.1206C18.2526 13.2074 18.1918 13.3299 18.1828 13.4614C18.1738 13.5928 18.2172 13.7225 18.3036 13.822C18.5933 14.1531 18.9493 14.3192 19.3281 14.3192ZM15.5281 18.0947C15.9526 17.8451 16.6974 17.8451 17.1219 18.0947C17.1783 18.1279 17.2406 18.1496 17.3054 18.1587C17.3702 18.1677 17.4361 18.1639 17.4994 18.1475C17.5627 18.1311 17.6222 18.1024 17.6744 18.063C17.7266 18.0236 17.7705 17.9742 17.8037 17.9178C17.8706 17.804 17.8896 17.6682 17.8564 17.5404C17.8233 17.4125 17.7407 17.3031 17.6269 17.2361C16.8969 16.8068 15.7533 16.8068 15.0233 17.2361C14.966 17.2688 14.9158 17.3126 14.8756 17.3648C14.8354 17.4171 14.806 17.4768 14.789 17.5405C14.7721 17.6042 14.7679 17.6707 14.7769 17.736C14.7858 17.8013 14.8076 17.8642 14.841 17.921C14.8744 17.9779 14.9188 18.0275 14.9715 18.067C15.0243 18.1066 15.0844 18.1353 15.1483 18.1514C15.2122 18.1676 15.2787 18.1709 15.3439 18.1611C15.4091 18.1514 15.4717 18.1288 15.5281 18.0947ZM13.5836 13.166C13.4939 13.2687 13.307 13.482 12.8482 13.108C12.6349 12.9341 12.3213 12.9661 12.1475 13.1793C11.9736 13.3925 12.0056 13.7062 12.2187 13.88C12.5782 14.1731 12.9534 14.3192 13.3087 14.3192C13.6874 14.3192 14.0434 14.153 14.3332 13.822C14.5143 13.6151 14.4934 13.3004 14.2864 13.1193C14.0794 12.9381 13.7648 12.959 13.5836 13.166ZM27.875 4.42768C28.1501 4.42768 28.373 4.20476 28.373 3.92964C28.373 3.87067 28.3771 3.81276 28.3852 3.75645C28.4716 3.14405 28.9981 2.6899 29.616 2.6899C29.6248 2.6899 29.6337 2.68997 29.6425 2.69016C30.2913 2.70371 30.826 3.21909 30.8597 3.86383C30.8778 4.20589 30.7578 4.53134 30.5219 4.78004C30.2839 5.03092 29.9625 5.16911 29.617 5.16911C29.5516 5.1691 29.4868 5.18198 29.4264 5.207C29.3659 5.23203 29.311 5.26872 29.2648 5.31497C29.2185 5.36122 29.1818 5.41612 29.1568 5.47655C29.1318 5.53698 29.1189 5.60175 29.1189 5.66716V7.4837C29.1189 7.75882 29.3418 7.98175 29.617 7.98175C29.8921 7.98175 30.115 7.75882 30.115 7.4837V6.10856C30.5429 6.01041 30.9388 5.78775 31.2446 5.46548C31.6705 5.01644 31.8871 4.42895 31.8544 3.81143C31.7936 2.64859 30.8311 1.71864 29.6632 1.69434C28.5302 1.67083 27.5568 2.49732 27.399 3.61613C27.3842 3.72 27.3768 3.82479 27.3769 3.9297C27.3769 3.99511 27.3898 4.05987 27.4149 4.12029C27.4399 4.18071 27.4766 4.23561 27.5228 4.28185C27.5691 4.3281 27.624 4.36478 27.6844 4.3898C27.7448 4.41482 27.8096 4.42769 27.875 4.42768ZM29.617 9.47217C29.3418 9.47217 29.1189 9.69702 29.1189 9.97208C29.1189 10.2472 29.3418 10.4701 29.617 10.4701C29.8921 10.4701 30.115 10.2472 30.115 9.97208V9.96829C30.115 9.69323 29.8921 9.47217 29.617 9.47217ZM3.36259 4.74723C3.49327 4.73964 3.6157 4.68091 3.70342 4.58376C3.79114 4.4866 3.83709 4.35881 3.83133 4.22804C3.82557 4.09727 3.76857 3.97402 3.67265 3.88495C3.57673 3.79588 3.4496 3.74814 3.31876 3.75207C2.28149 3.79769 1.74008 4.65606 1.75735 5.44051C1.77501 6.24283 2.35833 7.10631 3.5974 7.10631C4.50478 7.10631 5.23166 6.69951 5.64411 5.96081C6.12715 5.09573 6.07787 3.90786 5.52152 3.00513C4.99797 2.15559 4.10813 1.69367 3.08255 1.73797C1.33939 1.81593 -0.0709472 3.31916 0.00276375 5.02049C0.0105122 5.15099 0.0692542 5.27322 0.166316 5.3608C0.263378 5.44837 0.390978 5.49428 0.521586 5.48862C0.652194 5.48295 0.77534 5.42617 0.864455 5.33051C0.953569 5.23486 1.00151 5.10801 0.997928 4.97733C0.947525 3.81469 1.92257 2.78692 3.12625 2.73313C3.97811 2.69707 4.43764 3.14498 4.67351 3.52781C5.04054 4.12341 5.08198 4.92427 4.77438 5.47531C4.54243 5.89075 4.13542 6.11029 3.5974 6.11029C2.9862 6.11029 2.76062 5.75302 2.75324 5.41873C2.74787 5.17947 2.87032 4.76888 3.36259 4.74723Z" fill="#FFA70A"/>
<path d="M26.3216 23.5431L25.8791 23.3868C26.9025 21.3727 26.6201 19.8863 25.827 18.2006C25.4108 17.3159 25.2251 16.3446 25.2479 15.164C25.59 14.9551 25.8804 14.6714 26.0972 14.3342C26.6002 13.5555 26.6598 12.5649 26.2489 11.8104C26.1194 11.5713 25.9448 11.3594 25.7347 11.1867C25.7888 10.8103 25.8276 10.4974 25.8567 10.2025C26.0269 8.50266 25.7272 6.80485 24.9897 5.29258C24.9614 5.23319 24.9216 5.18001 24.8727 5.13608C24.8237 5.09216 24.7665 5.05837 24.7044 5.03667C24.6423 5.01497 24.5765 5.00578 24.5109 5.00964C24.4452 5.0135 24.381 5.03034 24.3218 5.05917C24.2627 5.088 24.2099 5.12826 24.1664 5.17762C24.1229 5.22698 24.0896 5.28446 24.0685 5.34676C24.0473 5.40905 24.0388 5.47491 24.0432 5.54054C24.0477 5.60617 24.0651 5.67027 24.0944 5.72913C24.7508 7.07499 25.0174 8.58746 24.8655 10.1038C24.8446 10.3129 24.8202 10.5217 24.7924 10.73C24.5641 10.6754 24.3185 10.6468 24.057 10.6468H23.7022C18.9221 10.6468 16.379 8.92334 13.7776 6.84077C12.4654 5.76718 11.6225 3.77513 11.5239 2.40112C12.9265 1.49427 14.5944 0.996094 16.325 0.996094C18.877 0.996094 21.2758 2.06929 22.9059 3.94055C22.9488 3.9901 23.001 4.0307 23.0597 4.06002C23.1183 4.08934 23.1821 4.1068 23.2475 4.11141C23.3128 4.11602 23.3785 4.10767 23.4406 4.08686C23.5028 4.06605 23.5602 4.03317 23.6096 3.99012C23.659 3.94707 23.6995 3.89469 23.7286 3.83599C23.7577 3.77728 23.775 3.7134 23.7794 3.64801C23.7838 3.58262 23.7752 3.517 23.7542 3.45493C23.7332 3.39285 23.7002 3.33552 23.6569 3.28625C21.8375 1.19777 19.1652 0 16.325 0C13.5546 0 10.9249 1.14949 9.11039 3.1539C7.41511 5.02642 6.58988 7.42741 6.77097 9.94028L4.50957 11.8733C3.55843 12.6877 1.57919 14.3823 2.16596 17.211L2.954 21.0191L2.35721 21.1441C2.23341 21.17 2.12412 21.2421 2.0515 21.3457C1.97889 21.4492 1.94839 21.5765 1.96621 21.7018L2.47581 25.2783C2.49444 25.4091 2.56424 25.5271 2.66987 25.6064C2.72218 25.6457 2.7817 25.6742 2.84505 25.6905C2.90839 25.7067 2.97432 25.7104 3.03907 25.7011C3.10381 25.6919 3.16611 25.67 3.2224 25.6367C3.27869 25.6034 3.32787 25.5594 3.36713 25.5071C3.40639 25.4548 3.43496 25.3953 3.45122 25.3319C3.46748 25.2686 3.4711 25.2026 3.46188 25.1379L3.01808 22.0234L7.05014 21.1791L8.17553 25.1881L9.48154 29.847C9.6524 30.457 9.55465 31.1093 9.20608 31.6836C8.81316 32.3309 8.16304 32.7913 7.42288 32.9465C6.678 33.1021 5.89328 32.9394 5.27032 32.5002C4.7232 32.1145 4.3747 31.559 4.28883 30.9359L3.8038 27.414C3.76628 27.1416 3.5144 26.9507 3.24247 26.9886C3.17768 26.9975 3.11528 27.0191 3.05883 27.0522C3.00239 27.0852 2.953 27.1291 2.9135 27.1812C2.874 27.2333 2.84515 27.2927 2.82861 27.356C2.81206 27.4193 2.80814 27.4852 2.81707 27.55L3.3021 31.0718C3.42602 31.9715 3.92114 32.7679 4.69644 33.3144C5.33347 33.7635 6.09469 34.0001 6.86433 34C7.119 34 7.3746 33.9741 7.62688 33.9214C7.97536 33.8478 8.31148 33.7246 8.62496 33.5555H28.7846C29.2756 33.5555 29.6752 33.1556 29.6752 32.664V28.9633C29.6753 27.1448 29.3276 24.6044 26.3216 23.5431ZM24.2003 13.3753V11.6473C24.7581 11.6789 25.1625 11.8981 25.3741 12.2867C25.6131 12.7254 25.5685 13.317 25.2606 13.7937C25.0926 14.0537 24.7347 14.443 24.0629 14.5604C24.1525 14.1603 24.2003 13.763 24.2003 13.3753ZM23.7432 15.5897C23.9138 15.5851 24.0838 15.5677 24.2517 15.5376C24.2719 16.7036 24.4899 17.6985 24.9256 18.6247C25.6367 20.136 25.8515 21.32 24.9315 23.0521L20.3446 21.4317V19.8435C21.865 18.755 23.1087 17.1949 23.7432 15.5897ZM13.7307 8.07254C16.1314 9.93484 18.7768 11.5257 23.2043 11.6366V13.3753C23.2043 13.8627 23.1104 14.3727 22.9405 14.8856C22.9298 14.91 22.921 14.9354 22.9143 14.9617C22.1916 17.0506 20.2041 19.1704 18.0001 19.9858C17.3716 20.2178 16.8393 20.3259 16.325 20.3259C15.8106 20.3259 15.2783 20.2178 14.6501 19.986C12.1273 19.0531 9.81005 16.3329 9.48453 13.9216C9.46646 13.7891 9.44282 13.1964 9.43512 12.8703L9.49874 12.7867C9.83063 12.3508 9.99957 11.9118 10.0481 11.4999C11.0571 11.255 11.9572 10.6954 12.6706 9.86438C13.1205 9.34017 13.489 8.71316 13.7307 8.07254ZM19.3486 20.4653V22.0193C19.3486 23.2469 17.8275 23.8892 16.325 23.8892C14.8224 23.8892 13.3014 23.2469 13.3014 22.0193V20.4641C13.6293 20.6407 13.9646 20.7945 14.3048 20.9204C15.0472 21.1944 15.6891 21.3221 16.3249 21.3221C16.9607 21.3221 17.6026 21.1944 18.3453 20.9202C18.6865 20.7941 19.0217 20.6407 19.3486 20.4653ZM9.84876 3.82241C10.0868 3.55996 10.3412 3.31287 10.6104 3.08264C10.8728 4.53023 11.6868 6.27619 12.9049 7.40005C12.599 8.42045 11.6937 10.0188 9.92712 10.5026C9.81742 10.216 9.64848 9.96745 9.44488 9.77513C8.96842 9.3253 8.33902 9.18392 7.74369 9.35093C7.72237 7.3013 8.45549 5.36131 9.84876 3.82241ZM6.81845 14.9482C7.27891 17.1347 6.86938 18.0904 6.39511 19.1969C6.23567 19.5689 6.07217 19.9523 5.92987 20.396L3.92898 20.8149L3.1414 17.0088C2.71016 14.9302 3.95587 13.6586 5.1571 12.6301L7.61273 10.531C8.06981 10.1396 8.5055 10.2582 8.76096 10.4992C9.11644 10.835 9.23743 11.4858 8.70624 12.1833L6.90956 14.5438C6.86623 14.6007 6.83566 14.6663 6.81994 14.736C6.80422 14.8058 6.80371 14.8782 6.81845 14.9482ZM7.8834 20.4616C7.84926 20.34 7.7702 20.2359 7.66223 20.1704C7.55425 20.1049 7.42543 20.0829 7.30182 20.1087L7.07438 20.1564C7.15154 19.9615 7.23156 19.7737 7.31065 19.5893C7.81308 18.417 8.28848 17.3077 7.83851 14.968L8.50364 14.0942C8.8022 16.196 10.3335 18.4226 12.3053 19.8397V21.4317L8.53013 22.7655L7.8834 20.4616ZM28.6792 32.5595H24.6363V29.9949C24.6363 29.7198 24.4134 29.4969 24.1383 29.4969C23.8631 29.4969 23.6402 29.7198 23.6402 29.9949V32.5595H9.80839C9.8985 32.4448 9.98175 32.3249 10.0577 32.2003C10.5508 31.3879 10.6868 30.4567 10.4407 29.5781L9.13463 24.919L8.79988 23.7266L12.348 22.4729C12.4816 23.1834 12.9309 23.7943 13.6483 24.223C14.3631 24.6501 15.3136 24.8853 16.3249 24.8853C17.3362 24.8853 18.2868 24.6501 19.0015 24.223C19.7189 23.7943 20.1683 23.1834 20.3018 22.4729L24.9594 24.1184C24.9833 24.1288 25.0075 24.1375 25.0322 24.1441L25.9898 24.4823C27.8748 25.1478 28.6791 26.488 28.6791 28.9634V32.5595H28.6792Z" fill="#FFA70A"/>
<path d="M32.8339 15.0775C32.3099 14.2281 31.4221 13.7663 30.3955 13.8116C29.5463 13.8486 28.7236 14.2364 28.1382 14.8757C27.5724 15.4938 27.2808 16.2812 27.3171 17.0929C27.3294 17.3678 27.5622 17.5821 27.8369 17.5682C27.9022 17.5653 27.9663 17.5495 28.0256 17.5218C28.0848 17.4941 28.1381 17.455 28.1822 17.4068C28.2263 17.3585 28.2605 17.302 28.2828 17.2405C28.3051 17.179 28.3151 17.1137 28.3121 17.0484C28.2878 16.5027 28.4869 15.97 28.8729 15.5483C29.2809 15.1025 29.8517 14.8322 30.4389 14.8067C31.2892 14.7693 31.7501 15.2178 31.9861 15.6004C32.3536 16.196 32.3953 16.9971 32.0875 17.5484C31.8556 17.9642 31.4482 18.1839 30.9097 18.1839C30.2992 18.1839 30.0738 17.8266 30.0665 17.4923C30.0612 17.2531 30.1839 16.8426 30.6767 16.8209C30.8087 16.8151 30.933 16.7571 31.0222 16.6597C31.1114 16.5623 31.1583 16.4334 31.1525 16.3015C31.1403 16.0266 30.9096 15.8152 30.633 15.8257C29.5951 15.8714 29.0534 16.7297 29.0706 17.5142C29.0882 18.3165 29.6712 19.18 30.9097 19.18C31.8177 19.18 32.5449 18.7729 32.9574 18.0338C33.4404 17.1683 33.3908 15.9802 32.8339 15.0775Z" fill="#FFA70A"/>
</svg>
