<svg width="36" height="36" viewBox="0 0 36 36" fill="none" xmlns="http://www.w3.org/2000/svg">
<path d="M28.5 33.5625H7.5C6.95317 33.5619 6.42891 33.3444 6.04225 32.9578C5.65559 32.5711 5.4381 32.0468 5.4375 31.5V4.50001C5.4381 3.95318 5.65559 3.42892 6.04225 3.04226C6.42891 2.65559 6.95317 2.4381 7.5 2.43751H23.3783C23.6493 2.43678 23.9178 2.48983 24.1682 2.59359C24.4186 2.69736 24.6459 2.84977 24.837 3.04201L29.958 8.16301C30.1502 8.35409 30.3027 8.58141 30.4064 8.83181C30.5102 9.08221 30.5632 9.35071 30.5625 9.62176V31.5C30.5619 32.0468 30.3444 32.5711 29.9578 32.9578C29.5711 33.3444 29.0468 33.5619 28.5 33.5625ZM7.5 3.56251C7.25142 3.56271 7.01308 3.66154 6.83731 3.83731C6.66153 4.01309 6.5627 4.25143 6.5625 4.50001V31.5C6.5627 31.7486 6.66153 31.9869 6.83731 32.1627C7.01308 32.3385 7.25142 32.4373 7.5 32.4375H28.5C28.7486 32.4373 28.9869 32.3385 29.1627 32.1627C29.3385 31.9869 29.4373 31.7486 29.4375 31.5V9.62176C29.438 9.49846 29.4139 9.3763 29.3668 9.26236C29.3197 9.14842 29.2504 9.04497 29.163 8.95801L24.042 3.83701C23.955 3.7496 23.8516 3.68033 23.7376 3.63321C23.6237 3.58609 23.5015 3.56206 23.3783 3.56251H7.5Z" fill="white"/>
<path d="M13.4999 13.6876C13.426 13.6876 13.3529 13.6731 13.2847 13.6448C13.2165 13.6164 13.1545 13.5749 13.1024 13.5226L11.6024 12.0226C11.5471 11.9711 11.5028 11.909 11.472 11.84C11.4413 11.771 11.4248 11.6965 11.4234 11.621C11.4221 11.5455 11.436 11.4705 11.4643 11.4004C11.4926 11.3304 11.5347 11.2668 11.5881 11.2134C11.6415 11.1599 11.7051 11.1178 11.7752 11.0895C11.8452 11.0612 11.9202 11.0474 11.9958 11.0487C12.0713 11.05 12.1458 11.0665 12.2148 11.0973C12.2838 11.128 12.3459 11.1724 12.3974 11.2276L13.4999 12.3301L16.1024 9.72763C16.209 9.62827 16.35 9.57418 16.4958 9.57675C16.6415 9.57932 16.7805 9.63835 16.8836 9.74141C16.9866 9.84447 17.0457 9.98351 17.0483 10.1292C17.0508 10.275 16.9967 10.416 16.8974 10.5226L13.8974 13.5226C13.8452 13.5749 13.7833 13.6164 13.7151 13.6448C13.6469 13.6731 13.5737 13.6876 13.4999 13.6876Z" fill="white"/>
<path d="M9.75 13.3125C9.60082 13.3125 9.45774 13.2532 9.35225 13.1477C9.24676 13.0423 9.1875 12.8992 9.1875 12.75V9C9.1875 8.85082 9.24676 8.70774 9.35225 8.60225C9.45774 8.49676 9.60082 8.4375 9.75 8.4375H13.5C13.6492 8.4375 13.7923 8.49676 13.8977 8.60225C14.0032 8.70774 14.0625 8.85082 14.0625 9C14.0625 9.14918 14.0032 9.29226 13.8977 9.39775C13.7923 9.50324 13.6492 9.5625 13.5 9.5625H10.3125V12.75C10.3125 12.8992 10.2532 13.0423 10.1477 13.1477C10.0423 13.2532 9.89918 13.3125 9.75 13.3125ZM13.5 21.5625H9.75C9.60082 21.5625 9.45774 21.5032 9.35225 21.3977C9.24676 21.2923 9.1875 21.1492 9.1875 21V17.25C9.1875 17.1008 9.24676 16.9577 9.35225 16.8523C9.45774 16.7468 9.60082 16.6875 9.75 16.6875H13.5C13.6492 16.6875 13.7923 16.7468 13.8977 16.8523C14.0032 16.9577 14.0625 17.1008 14.0625 17.25V21C14.0625 21.1492 14.0032 21.2923 13.8977 21.3977C13.7923 21.5032 13.6492 21.5625 13.5 21.5625ZM10.3125 20.4375H12.9375V17.8125H10.3125V20.4375ZM13.5 29.0625H9.75C9.60082 29.0625 9.45774 29.0032 9.35225 28.8977C9.24676 28.7923 9.1875 28.6492 9.1875 28.5V24.75C9.1875 24.6008 9.24676 24.4577 9.35225 24.3523C9.45774 24.2468 9.60082 24.1875 9.75 24.1875H13.5C13.6492 24.1875 13.7923 24.2468 13.8977 24.3523C14.0032 24.4577 14.0625 24.6008 14.0625 24.75V28.5C14.0625 28.6492 14.0032 28.7923 13.8977 28.8977C13.7923 29.0032 13.6492 29.0625 13.5 29.0625ZM10.3125 27.9375H12.9375V25.3125H10.3125V27.9375ZM26.25 14.0625H16.5C16.3508 14.0625 16.2077 14.0032 16.1023 13.8977C15.9968 13.7923 15.9375 13.6492 15.9375 13.5C15.9375 13.3508 15.9968 13.2077 16.1023 13.1023C16.2077 12.9968 16.3508 12.9375 16.5 12.9375H26.25C26.3992 12.9375 26.5423 12.9968 26.6477 13.1023C26.7532 13.2077 26.8125 13.3508 26.8125 13.5C26.8125 13.6492 26.7532 13.7923 26.6477 13.8977C26.5423 14.0032 26.3992 14.0625 26.25 14.0625ZM26.25 21.5625H16.5C16.3508 21.5625 16.2077 21.5032 16.1023 21.3977C15.9968 21.2923 15.9375 21.1492 15.9375 21C15.9375 20.8508 15.9968 20.7077 16.1023 20.6023C16.2077 20.4968 16.3508 20.4375 16.5 20.4375H26.25C26.3992 20.4375 26.5423 20.4968 26.6477 20.6023C26.7532 20.7077 26.8125 20.8508 26.8125 21C26.8125 21.1492 26.7532 21.2923 26.6477 21.3977C26.5423 21.5032 26.3992 21.5625 26.25 21.5625ZM26.25 29.0625H16.5C16.3508 29.0625 16.2077 29.0032 16.1023 28.8977C15.9968 28.7923 15.9375 28.6492 15.9375 28.5C15.9375 28.3508 15.9968 28.2077 16.1023 28.1023C16.2077 27.9968 16.3508 27.9375 16.5 27.9375H26.25C26.3992 27.9375 26.5423 27.9968 26.6477 28.1023C26.7532 28.2077 26.8125 28.3508 26.8125 28.5C26.8125 28.6492 26.7532 28.7923 26.6477 28.8977C26.5423 29.0032 26.3992 29.0625 26.25 29.0625ZM30 10.3125H24C23.652 10.3121 23.3184 10.1737 23.0724 9.92764C22.8263 9.68158 22.6879 9.34797 22.6875 9V3C22.6875 2.85082 22.7468 2.70774 22.8523 2.60225C22.9577 2.49676 23.1008 2.4375 23.25 2.4375C23.3992 2.4375 23.5423 2.49676 23.6477 2.60225C23.7532 2.70774 23.8125 2.85082 23.8125 3V9C23.8131 9.04955 23.833 9.0969 23.8681 9.13194C23.9031 9.16697 23.9505 9.18692 24 9.1875H30C30.1492 9.1875 30.2923 9.24676 30.3977 9.35225C30.5032 9.45774 30.5625 9.60082 30.5625 9.75C30.5625 9.89918 30.5032 10.0423 30.3977 10.1477C30.2923 10.2532 30.1492 10.3125 30 10.3125Z" fill="white"/>
</svg>
