<svg width="36" height="36" viewBox="0 0 36 36" fill="none" xmlns="http://www.w3.org/2000/svg">
<path d="M26.2281 24.6488C26.0789 24.6488 25.9358 24.708 25.8304 24.8135C25.7249 24.919 25.6656 25.0621 25.6656 25.2113V29.9306C25.6649 30.645 25.3808 31.3299 24.8756 31.835C24.3705 32.3401 23.6856 32.6243 22.9712 32.625H7.78373C7.06937 32.6243 6.38447 32.3401 5.87934 31.835C5.37421 31.3299 5.0901 30.645 5.08936 29.9306V6.06938C5.09025 5.35506 5.37441 4.67025 5.87951 4.16515C6.38461 3.66005 7.06941 3.37589 7.78373 3.375H19.1547V6.50869C19.1557 7.40347 19.5116 8.26131 20.1443 8.89402C20.777 9.52673 21.6349 9.88265 22.5297 9.88369H25.6656V13.8381C25.6656 13.9119 25.6802 13.9851 25.7085 14.0533C25.7368 14.1215 25.7783 14.1835 25.8306 14.2357C25.8828 14.2879 25.9448 14.3293 26.0131 14.3576C26.0814 14.3858 26.1545 14.4003 26.2284 14.4003C26.3023 14.4002 26.3754 14.3857 26.4436 14.3574C26.5119 14.3291 26.5738 14.2876 26.6261 14.2353C26.6783 14.1831 26.7197 14.121 26.7479 14.0528C26.7761 13.9845 26.7906 13.9114 26.7906 13.8375V9.32062C26.7906 9.24667 26.7761 9.17344 26.7478 9.10511C26.7195 9.03677 26.6781 8.97468 26.6258 8.92238L20.1194 2.42156C20.0111 2.31495 19.8663 2.2536 19.7144 2.25H7.78373C6.77114 2.25119 5.80035 2.65397 5.08434 3.36998C4.36833 4.086 3.96555 5.05678 3.96436 6.06938V29.9306C3.96555 30.9432 4.36833 31.914 5.08434 32.63C5.80035 33.346 6.77114 33.7488 7.78373 33.75H22.9712C23.9838 33.7488 24.9546 33.346 25.6706 32.63C26.3866 31.914 26.7894 30.9432 26.7906 29.9306V25.2113C26.7906 25.0621 26.7313 24.919 26.6259 24.8135C26.5204 24.708 26.3773 24.6488 26.2281 24.6488ZM20.2797 4.17206L24.8697 8.75869H22.5297C21.9332 8.75794 21.3613 8.52065 20.9395 8.09886C20.5177 7.67706 20.2804 7.1052 20.2797 6.50869V4.17206Z" fill="white"/>
<path d="M24.3774 13.4999C24.3774 13.3508 24.3181 13.2077 24.2126 13.1022C24.1071 12.9967 23.9641 12.9374 23.8149 12.9374H12.7629C12.6137 12.9374 12.4706 12.9967 12.3651 13.1022C12.2596 13.2077 12.2004 13.3508 12.2004 13.4999C12.2004 13.6491 12.2596 13.7922 12.3651 13.8977C12.4706 14.0032 12.6137 14.0624 12.7629 14.0624H23.816C23.9652 14.0624 24.1083 14.0032 24.2138 13.8977C24.3192 13.7922 24.3785 13.6491 24.3785 13.4999H24.3774ZM22.628 17.9999C22.628 17.8508 22.5687 17.7077 22.4633 17.6022C22.3578 17.4967 22.2147 17.4374 22.0655 17.4374H12.7618C12.6126 17.4374 12.4695 17.4967 12.364 17.6022C12.2585 17.7077 12.1993 17.8508 12.1993 17.9999C12.1993 18.1491 12.2585 18.2922 12.364 18.3977C12.4695 18.5032 12.6126 18.5624 12.7618 18.5624H22.0655C22.2147 18.5624 22.3578 18.5032 22.4633 18.3977C22.5687 18.2922 22.628 18.1491 22.628 17.9999ZM12.7618 21.9374C12.6126 21.9374 12.4695 21.9967 12.364 22.1022C12.2585 22.2077 12.1993 22.3508 12.1993 22.4999C12.1993 22.6491 12.2585 22.7922 12.364 22.8977C12.4695 23.0032 12.6126 23.0624 12.7618 23.0624H17.5655C17.7147 23.0624 17.8578 23.0032 17.9633 22.8977C18.0687 22.7922 18.128 22.6491 18.128 22.4999C18.128 22.3508 18.0687 22.2077 17.9633 22.1022C17.8578 21.9967 17.7147 21.9374 17.5655 21.9374H12.7618ZM28.0426 14.4061C27.8722 14.5912 17.1048 25.3333 16.5676 25.8811C16.5144 25.9343 16.4723 25.9976 16.4439 26.0673L14.5218 30.4908C14.4791 30.5943 14.468 30.708 14.4899 30.8178C14.5118 30.9275 14.5658 31.0283 14.6449 31.1074C14.724 31.1866 14.8248 31.2405 14.9345 31.2624C15.0443 31.2843 15.1581 31.2732 15.2615 31.2305L19.685 29.3084C19.7545 29.2799 19.8176 29.2378 19.8706 29.1847L30.2116 18.8448C30.9125 18.1192 32.1247 17.2074 32.0308 16.0593C32.0254 15.5997 31.8854 15.1518 31.6279 14.7711C31.3704 14.3904 31.0068 14.0936 30.5822 13.9176C30.1576 13.7415 29.6907 13.694 29.2394 13.7809C28.7881 13.8677 28.3716 14.0851 28.0426 14.4061ZM16.1221 29.6302L17.1515 27.2609L18.4914 28.5997L16.1221 29.6302ZM19.4735 27.9911L17.7607 26.2788L27.3063 16.7332L29.0191 18.4454L19.4735 27.9911ZM30.5508 16.9143L29.8145 17.6501L28.1023 15.9378L28.838 15.2015C29.0651 14.9744 29.3732 14.8468 29.6944 14.8468C30.0156 14.8468 30.3237 14.9744 30.5508 15.2015C30.7779 15.4286 30.9056 15.7367 30.9056 16.0579C30.9056 16.3791 30.7779 16.6872 30.5508 16.9143ZM8.06488 14.0624C8.18756 14.0625 8.3069 14.0224 8.40463 13.9483L10.6546 12.2428C10.7735 12.1526 10.8518 12.019 10.8721 11.8712C10.8925 11.7234 10.8533 11.5736 10.7632 11.4547C10.6731 11.3358 10.5394 11.2576 10.3916 11.2372C10.2439 11.2168 10.094 11.256 9.97513 11.3461L7.98894 12.8519L7.20257 12.5049C7.06606 12.4447 6.91124 12.4412 6.77215 12.4951C6.63306 12.5491 6.5211 12.6561 6.46091 12.7926C6.40071 12.9291 6.39721 13.0839 6.45117 13.223C6.50512 13.3621 6.61212 13.4741 6.74863 13.5343C7.17217 13.7461 7.6124 13.9227 8.06488 14.0624ZM6.74863 18.0348C7.17219 18.2464 7.61242 18.4229 8.06488 18.5624C8.18756 18.5625 8.3069 18.5224 8.40463 18.4483L10.6546 16.7428C10.7735 16.6526 10.8518 16.519 10.8721 16.3712C10.8925 16.2234 10.8533 16.0736 10.7632 15.9547C10.6731 15.8358 10.5394 15.7576 10.3916 15.7372C10.2439 15.7168 10.094 15.756 9.97513 15.8461L7.98894 17.3519L7.20257 17.0049C7.06606 16.9447 6.91124 16.9412 6.77215 16.9951C6.63306 17.0491 6.5211 17.1561 6.46091 17.2926C6.40071 17.4291 6.39721 17.5839 6.45117 17.723C6.50512 17.8621 6.61212 17.9746 6.74863 18.0348ZM6.74863 22.5348C7.17219 22.7464 7.61242 22.9229 8.06488 23.0624C8.18754 23.0624 8.30684 23.0223 8.40463 22.9483L10.6546 21.2428C10.7735 21.1526 10.8518 21.019 10.8721 20.8712C10.8925 20.7234 10.8533 20.5736 10.7632 20.4547C10.6731 20.3358 10.5394 20.2576 10.3916 20.2372C10.2439 20.2168 10.094 20.256 9.97513 20.3461L7.98894 21.8519L7.20257 21.5049C7.06606 21.4447 6.91124 21.4412 6.77215 21.4951C6.63306 21.5491 6.5211 21.6561 6.46091 21.7926C6.40071 21.9291 6.39721 22.0839 6.45117 22.223C6.50512 22.3621 6.61212 22.4746 6.74863 22.5348Z" fill="white"/>
</svg>
