<svg width="36" height="36" viewBox="0 0 36 36" fill="none" xmlns="http://www.w3.org/2000/svg">
<path d="M29.7395 11.5539C30.3751 10.9239 30.9376 10.5133 30.9376 9.56264C30.9416 9.1698 30.8276 8.7848 30.6104 8.45744C30.3932 8.13008 30.0828 7.87542 29.7193 7.72639C29.3558 7.57735 28.9559 7.54081 28.5715 7.62148C28.187 7.70215 27.8355 7.89632 27.5626 8.17889L27.0001 8.74139C24.8868 7.08403 22.3557 6.04435 19.6876 5.73764V5.06264C20.2097 5.02534 20.6957 4.78215 21.0385 4.38657C21.3814 3.99098 21.553 3.47541 21.5157 2.95326C21.4784 2.43112 21.2352 1.94517 20.8396 1.60233C20.4441 1.25949 19.9285 1.08784 19.4063 1.12514H16.5938C16.0717 1.08784 15.5561 1.25949 15.1605 1.60233C14.765 1.94517 14.5218 2.43112 14.4845 2.95326C14.4472 3.47541 14.6188 3.99098 14.9617 4.38657C15.3045 4.78215 15.7904 5.02534 16.3126 5.06264V5.73764C13.6433 6.04763 11.1122 7.09124 9.00009 8.75264L8.43759 8.19014C8.07209 7.81718 7.5734 7.60469 7.05123 7.59941C6.52906 7.59414 6.02618 7.79651 5.65322 8.16201C5.28026 8.52751 5.06777 9.0262 5.06249 9.54837C5.05722 10.0705 5.25959 10.5734 5.62509 10.9464L6.23822 11.5539C-0.877408 21.1389 5.98509 34.8751 18.0001 34.8751C30.0151 34.8751 36.8663 21.1164 29.7395 11.5539ZM28.3838 9.00014C28.4983 8.88261 28.6449 8.80151 28.8053 8.76702C28.9656 8.73253 29.1326 8.74619 29.2853 8.80629C29.4379 8.86638 29.5694 8.97023 29.6632 9.10479C29.757 9.23935 29.809 9.39864 29.8126 9.56264C29.8125 9.66841 29.7904 9.77301 29.7478 9.86983C29.7052 9.96665 29.643 10.0536 29.5651 10.1251C29.0026 10.6876 29.0757 10.6876 29.0026 10.6089C28.6489 10.2025 28.2734 9.81566 27.8776 9.45014L28.3838 9.00014ZM16.5938 2.25014H19.4063C19.6301 2.25014 19.8447 2.33903 20.003 2.49727C20.1612 2.6555 20.2501 2.87011 20.2501 3.09389C20.2501 3.31766 20.1612 3.53227 20.003 3.69051C19.8447 3.84874 19.6301 3.93764 19.4063 3.93764H16.5938C16.3701 3.93764 16.1555 3.84874 15.9972 3.69051C15.839 3.53227 15.7501 3.31766 15.7501 3.09389C15.7501 2.87011 15.839 2.6555 15.9972 2.49727C16.1555 2.33903 16.3701 2.25014 16.5938 2.25014ZM17.4376 5.62514V5.06264H18.5626V5.62514H17.4376ZM7.61634 9.00014C8.17884 9.56264 8.13384 9.48389 8.07759 9.53451C7.68205 9.88839 7.30647 10.264 6.95259 10.6595L6.44634 10.1251C6.34234 9.96396 6.29761 9.77165 6.31981 9.58113C6.34201 9.3906 6.42975 9.21373 6.56802 9.08078C6.70628 8.94783 6.88646 8.86709 7.07771 8.85238C7.26896 8.83767 7.45937 8.8899 7.61634 9.00014ZM28.3163 28.9745C27.0491 30.4768 25.4691 31.6843 23.6868 32.5126C21.9044 33.3409 19.9627 33.7701 17.9973 33.7701C16.0319 33.7701 14.0901 33.3409 12.3078 32.5126C10.5255 31.6843 8.94546 30.4768 7.67822 28.9745C0.253217 20.1714 6.58134 6.75014 18.0001 6.75014C29.4188 6.75014 35.747 20.1658 28.3163 28.952V28.9745Z" fill="white"/>
<path d="M27.242 12.8981C26.1356 11.5083 24.7301 10.3859 23.13 9.61445C21.5299 8.84301 19.7764 8.44238 18.0001 8.44238C16.2237 8.44238 14.4702 8.84301 12.8701 9.61445C11.27 10.3859 9.86452 11.5083 8.7582 12.8981C2.6157 20.5931 8.11133 32.0624 18.0001 32.0624C27.8888 32.0624 33.3957 20.5987 27.242 12.8981ZM26.1676 27.1406C25.1643 28.3254 23.9149 29.2774 22.5064 29.9304C21.0978 30.5834 19.5639 30.9217 18.0113 30.9217C16.4588 30.9217 14.9249 30.5834 13.5163 29.9304C12.1077 29.2774 10.8584 28.3254 9.85508 27.1406C3.93758 20.1881 8.9607 9.56243 18.0001 9.56243C27.0395 9.56243 32.0626 20.1824 26.1676 27.1406Z" fill="white"/>
<path d="M18 11.8125C18.1492 11.8125 18.2923 11.7532 18.3977 11.6477C18.5032 11.5423 18.5625 11.3992 18.5625 11.25C18.5625 11.1008 18.5032 10.9577 18.3977 10.8523C18.2923 10.7468 18.1492 10.6875 18 10.6875C17.8508 10.6875 17.7077 10.7468 17.6023 10.8523C17.4968 10.9577 17.4375 11.1008 17.4375 11.25C17.4375 11.3992 17.4968 11.5423 17.6023 11.6477C17.7077 11.7532 17.8508 11.8125 18 11.8125ZM18 28.6875C17.8508 28.6875 17.7077 28.7468 17.6023 28.8523C17.4968 28.9577 17.4375 29.1008 17.4375 29.25C17.4375 29.3992 17.4968 29.5423 17.6023 29.6477C17.7077 29.7532 17.8508 29.8125 18 29.8125C18.1492 29.8125 18.2923 29.7532 18.3977 29.6477C18.5032 29.5423 18.5625 29.3992 18.5625 29.25C18.5625 29.1008 18.5032 28.9577 18.3977 28.8523C18.2923 28.7468 18.1492 28.6875 18 28.6875ZM27 19.6875C26.8508 19.6875 26.7077 19.7468 26.6023 19.8523C26.4968 19.9577 26.4375 20.1008 26.4375 20.25C26.4375 20.3992 26.4968 20.5423 26.6023 20.6477C26.7077 20.7532 26.8508 20.8125 27 20.8125C27.1492 20.8125 27.2923 20.7532 27.3977 20.6477C27.5032 20.5423 27.5625 20.3992 27.5625 20.25C27.5625 20.1008 27.5032 19.9577 27.3977 19.8523C27.2923 19.7468 27.1492 19.6875 27 19.6875ZM9 19.6875C8.85082 19.6875 8.70774 19.7468 8.60225 19.8523C8.49676 19.9577 8.4375 20.1008 8.4375 20.25C8.4375 20.3992 8.49676 20.5423 8.60225 20.6477C8.70774 20.7532 8.85082 20.8125 9 20.8125C9.14918 20.8125 9.29226 20.7532 9.39775 20.6477C9.50324 20.5423 9.5625 20.3992 9.5625 20.25C9.5625 20.1008 9.50324 19.9577 9.39775 19.8523C9.29226 19.7468 9.14918 19.6875 9 19.6875ZM11.25 13.5C11.1578 13.6076 11.1097 13.746 11.1152 13.8876C11.1206 14.0292 11.1793 14.1635 11.2795 14.2636C11.3797 14.3638 11.514 14.4225 11.6555 14.428C11.7971 14.4334 11.9355 14.3853 12.0431 14.2931C12.1353 14.1855 12.1834 14.0471 12.178 13.9055C12.1725 13.764 12.1138 13.6297 12.0136 13.5295C11.9135 13.4293 11.7792 13.3706 11.6376 13.3652C11.496 13.3597 11.3576 13.4078 11.25 13.5ZM23.9681 26.2181C23.894 26.3264 23.8601 26.4572 23.8723 26.5878C23.8844 26.7185 23.9418 26.8407 24.0346 26.9335C24.1274 27.0263 24.2497 27.0837 24.3803 27.0959C24.5109 27.108 24.6417 27.0741 24.75 27C24.8241 26.8917 24.858 26.7609 24.8459 26.6303C24.8337 26.4997 24.7763 26.3774 24.6835 26.2846C24.5907 26.1918 24.4685 26.1344 24.3378 26.1223C24.2072 26.1101 24.0764 26.144 23.9681 26.2181ZM23.9681 13.5C23.894 13.6083 23.8601 13.7391 23.8723 13.8697C23.8844 14.0003 23.9418 14.1226 24.0346 14.2154C24.1274 14.3082 24.2497 14.3656 24.3803 14.3777C24.5109 14.3899 24.6417 14.356 24.75 14.2819C24.8241 14.1736 24.858 14.0428 24.8459 13.9122C24.8337 13.7815 24.7763 13.6593 24.6835 13.5665C24.5907 13.4737 24.4685 13.4163 24.3378 13.4041C24.2072 13.392 24.0764 13.4259 23.9681 13.5ZM11.25 26.2181C11.1759 26.3264 11.142 26.4572 11.1541 26.5878C11.1663 26.7185 11.2237 26.8407 11.3165 26.9335C11.4093 27.0263 11.5315 27.0837 11.6622 27.0959C11.7928 27.108 11.9236 27.0741 12.0319 27C12.106 26.8917 12.1399 26.7609 12.1277 26.6303C12.1156 26.4997 12.0582 26.3774 11.9654 26.2846C11.8726 26.1918 11.7503 26.1344 11.6197 26.1223C11.4891 26.1101 11.3583 26.144 11.25 26.2181ZM18.5625 18.6638V14.0625C18.5625 13.9133 18.5032 13.7702 18.3977 13.6648C18.2923 13.5593 18.1492 13.5 18 13.5C17.8508 13.5 17.7077 13.5593 17.6023 13.6648C17.4968 13.7702 17.4375 13.9133 17.4375 14.0625V18.6638C17.0622 18.7964 16.7459 19.0575 16.5445 19.4009C16.343 19.7443 16.2695 20.1478 16.3368 20.5401C16.4041 20.9324 16.608 21.2884 16.9123 21.5449C17.2167 21.8015 17.6019 21.9422 18 21.9422C18.3981 21.9422 18.7833 21.8015 19.0877 21.5449C19.392 21.2884 19.5959 20.9324 19.6632 20.5401C19.7305 20.1478 19.657 19.7443 19.4555 19.4009C19.2541 19.0575 18.9378 18.7964 18.5625 18.6638ZM18 20.8125C17.8508 20.8125 17.7077 20.7532 17.6023 20.6477C17.4968 20.5423 17.4375 20.3992 17.4375 20.25C17.4375 20.1008 17.4968 19.9577 17.6023 19.8523C17.7077 19.7468 17.8508 19.6875 18 19.6875C18.1492 19.6875 18.2923 19.7468 18.3977 19.8523C18.5032 19.9577 18.5625 20.1008 18.5625 20.25C18.5625 20.3992 18.5032 20.5423 18.3977 20.6477C18.2923 20.7532 18.1492 20.8125 18 20.8125Z" fill="white"/>
</svg>
