<svg width="24" height="12" viewBox="0 0 24 12" fill="none" xmlns="http://www.w3.org/2000/svg">
<path d="M4.10911 11.293H1.10306C0.688031 11.293 0.351562 10.9661 0.351562 10.5629V3.99183C0.351562 3.58861 0.688031 3.26172 1.10306 3.26172H4.10911C4.52414 3.26172 4.86061 3.58861 4.86061 3.99183V10.5629C4.86066 10.9661 4.52419 11.293 4.10911 11.293Z" fill="#00C3FF"/>
<path d="M4.03828 9.53488C4.12795 9.26587 4.13953 8.96357 4.03177 8.64429C3.86944 8.16319 3.4486 7.78343 2.93911 7.67718C2.52745 7.59134 2.13745 7.67039 1.82344 7.85839C1.67217 7.94897 1.47881 7.84527 1.47881 7.67263V3.26172H1.10306C0.688031 3.26172 0.351562 3.58861 0.351562 3.99183V10.5629C0.351562 10.9661 0.688031 11.293 1.10306 11.293H4.10911C4.52414 11.293 4.86061 10.9661 4.86061 10.5629V9.83281H4.25002C4.09135 9.83281 3.98939 9.68153 4.03828 9.53488Z" fill="#00AAF0"/>
<path d="M22.2581 2.16712H15.3811V1.80207C15.3811 0.995582 14.7081 0.341797 13.878 0.341797H12.3807C11.3948 0.341797 10.4287 0.610944 9.59255 1.11863L4.85986 3.99245V10.5635L7.82804 11.35C8.60134 11.5549 9.39931 11.6587 10.2009 11.6587H15.1254C15.8377 11.6587 16.4708 11.1373 16.5066 10.4461C16.5269 10.0537 16.3625 9.70045 16.0934 9.45375C16.7488 9.38107 17.2598 8.84674 17.2598 8.19063C17.2598 7.82435 17.0991 7.49636 16.8449 7.26342C17.5003 7.19074 18.0113 6.6564 18.0113 6.0003C18.0113 5.29464 17.4225 4.7226 16.6961 4.7226H22.3325C23.0822 4.7226 23.6855 4.11304 23.6458 3.37619C23.6086 2.68519 22.9703 2.16712 22.2581 2.16712Z" fill="#F0C087"/>
<path d="M2.60639 9.83358C3.02138 9.83358 3.35779 9.50673 3.35779 9.10356C3.35779 8.70038 3.02138 8.37354 2.60639 8.37354C2.1914 8.37354 1.85498 8.70038 1.85498 9.10356C1.85498 9.50673 2.1914 9.83358 2.60639 9.83358Z" fill="#E4EAF8"/>
<path d="M17.2422 8.3725H15.1932C14.8819 8.3725 14.6296 8.61769 14.6296 8.92008C14.6296 9.22247 14.8819 9.46766 15.1932 9.46766H16.1064C16.1017 9.4632 16.0983 9.45751 16.0935 9.45309C16.6865 9.38738 17.1572 8.94244 17.2422 8.3725ZM17.9937 6.18212H15.5689C15.2576 6.18212 15.0053 6.42731 15.0053 6.7297C15.0053 7.03209 15.2576 7.27728 15.5689 7.27728H16.8581C16.8533 7.27277 16.8498 7.26713 16.845 7.26271C17.438 7.19704 17.9087 6.75206 17.9937 6.18212ZM15.5689 3.62673C15.2576 3.62673 15.0053 3.87187 15.0053 4.17431C15.0053 4.4767 15.2576 4.72189 15.5689 4.72189H22.3328C22.9951 4.72176 23.5412 4.24558 23.6325 3.62673H15.5689ZM15.3811 1.8014C15.3811 1.53403 15.3017 1.28679 15.1726 1.07129H13.3144C13.0031 1.07129 12.7508 1.31644 12.7508 1.61887C12.7508 1.92126 13.0031 2.16646 13.3144 2.16646H15.3811V1.8014ZM16.4877 10.5629H10.3456C9.44904 10.5629 8.55748 10.433 7.70035 10.1775C6.68218 9.87403 5.98711 8.96048 5.98711 7.92579V3.53546L4.85986 3.99178V10.5629L7.82804 11.3493C8.60139 11.5542 9.3994 11.658 10.201 11.658H15.1254C15.796 11.658 16.3899 11.1937 16.4877 10.5629Z" fill="#E6AF78"/>
<path d="M23.9976 3.358C23.9513 2.4985 23.1875 1.82528 22.2588 1.82528L15.7333 1.82532V1.80178C15.7333 0.808258 14.9014 2.32479e-07 13.8788 2.32479e-07H12.3815C11.3296 -0.000298283 10.2989 0.286891 9.40705 0.828752L5.06802 3.46342C4.87804 3.13949 4.51954 2.92044 4.10915 2.92044H1.10306C0.494859 2.92044 0 3.40121 0 3.99215V10.5632C0 11.1542 0.494859 11.6349 1.10306 11.6349H4.1091C4.56267 11.6349 4.95299 11.3676 5.12231 10.9866L7.73629 11.6792C8.53974 11.8921 9.36882 12 10.2016 12H15.1262C16.053 12 16.8139 11.3249 16.8585 10.463C16.8732 10.178 16.8097 9.89426 16.6744 9.64094C17.234 9.37758 17.6121 8.82303 17.6121 8.19033C17.6121 7.92802 17.5481 7.67613 17.427 7.45002C17.9861 7.18643 18.3636 6.6322 18.3636 5.99995C18.364 5.66439 18.2565 5.3371 18.0561 5.06377H22.3332C22.7883 5.06377 23.229 4.87979 23.5424 4.559C23.8602 4.2337 24.0219 3.80717 23.9976 3.358ZM23.0323 4.08884C22.8485 4.27706 22.6002 4.38071 22.3332 4.38071H16.6969C16.5027 4.38071 16.3454 4.53359 16.3454 4.72226C16.3454 4.91094 16.5027 5.06382 16.6969 5.06382C17.2282 5.06382 17.6605 5.4838 17.6605 6C17.6605 6.47262 17.2931 6.86978 16.8059 6.9238C16.7393 6.93118 16.6763 6.95689 16.6243 6.99789C16.5723 7.0389 16.5334 7.09349 16.5122 7.15525C16.491 7.21701 16.4885 7.28335 16.5048 7.34648C16.5212 7.4096 16.5557 7.46687 16.6045 7.51155C16.8008 7.69157 16.909 7.93266 16.909 8.19033C16.909 8.66295 16.5416 9.06011 16.0544 9.11413C15.9878 9.12151 15.9248 9.14722 15.8728 9.18822C15.8208 9.22923 15.7819 9.28382 15.7607 9.34558C15.7395 9.40734 15.737 9.47368 15.7533 9.53681C15.7697 9.59993 15.8042 9.6572 15.853 9.70187C16.0629 9.89428 16.1705 10.1524 16.1563 10.4287C16.1309 10.9184 15.6689 11.3168 15.1262 11.3168H10.2016C9.43134 11.3168 8.66449 11.2171 7.92135 11.0201L5.21221 10.3023V6.18253C5.21221 5.99385 5.05485 5.84097 4.86065 5.84097C4.66645 5.84097 4.50909 5.99385 4.50909 6.18253V10.5632C4.50909 10.7775 4.3297 10.9518 4.10915 10.9518H1.10306C0.882514 10.9518 0.703124 10.7775 0.703124 10.5632V3.99211C0.703124 3.77784 0.882514 3.60355 1.10306 3.60355H4.1091C4.32965 3.60355 4.50904 3.77784 4.50904 3.99211V4.72222C4.50904 4.91089 4.6664 5.06377 4.8606 5.06377C5.05481 5.06377 5.21216 4.91089 5.21216 4.72222V4.18142L9.77961 1.40803C10.5597 0.934035 11.4613 0.68281 12.3814 0.683066H13.8787C14.5137 0.683066 15.0302 1.18493 15.0302 1.80173V1.82528H13.5029C13.3087 1.82528 13.1514 1.97816 13.1514 2.16683C13.1514 2.35551 13.3087 2.50839 13.5029 2.50839L22.2587 2.50834C22.804 2.50834 23.2691 2.9055 23.2953 3.39366C23.3095 3.65388 23.216 3.90075 23.0323 4.08884Z" fill="black"/>
<path d="M15.3823 6.93532H14.6308C14.4366 6.93532 14.2792 7.0882 14.2792 7.27688C14.2792 7.46555 14.4366 7.61843 14.6308 7.61843H15.3823C15.5765 7.61843 15.7338 7.46555 15.7338 7.27688C15.7338 7.0882 15.5764 6.93532 15.3823 6.93532ZM15.3823 4.37988H14.6308C14.4366 4.37988 14.2792 4.53276 14.2792 4.72144C14.2792 4.91012 14.4366 5.063 14.6308 5.063H15.3823C15.5765 5.063 15.7338 4.91012 15.7338 4.72144C15.7338 4.53276 15.5764 4.37988 15.3823 4.37988ZM3.4335 9.17165C3.35278 9.1263 3.25684 9.11396 3.16676 9.13732C3.07668 9.16069 2.99983 9.21785 2.95312 9.29625C2.9179 9.35529 2.86735 9.40432 2.80652 9.43845C2.7457 9.47258 2.67672 9.49061 2.60648 9.49075C2.38593 9.49075 2.20654 9.31647 2.20654 9.1022C2.20654 8.88793 2.38593 8.71365 2.60648 8.71365C2.80068 8.71365 2.95804 8.56076 2.95804 8.37209C2.95804 8.18341 2.80068 8.03053 2.60648 8.03053C1.99823 8.03053 1.50342 8.51131 1.50342 9.1022C1.50342 9.69309 1.99828 10.1739 2.60648 10.1739C2.99901 10.1739 3.36506 9.96866 3.56175 9.63835C3.58487 9.59953 3.59989 9.55666 3.60596 9.51219C3.61203 9.46772 3.60903 9.42253 3.59712 9.37919C3.58521 9.33586 3.56463 9.29522 3.53655 9.25961C3.50848 9.224 3.47346 9.19411 3.4335 9.17165Z" fill="black"/>
<path d="M14.6328 9.80958C14.827 9.80958 14.9844 9.65666 14.9844 9.46802C14.9844 9.27938 14.827 9.12646 14.6328 9.12646C14.4387 9.12646 14.2812 9.27938 14.2812 9.46802C14.2812 9.65666 14.4387 9.80958 14.6328 9.80958Z" fill="black"/>
</svg>
