<svg width="15" height="15" viewBox="0 0 15 15" fill="none" xmlns="http://www.w3.org/2000/svg">
<mask id="mask0_532_4346" style="mask-type:alpha" maskUnits="userSpaceOnUse" x="0" y="0" width="15" height="15">
<rect width="15" height="15" fill="#D9D9D9"/>
</mask>
<g mask="url(#mask0_532_4346)">
<path d="M5.84176 8.46873C5.78731 8.46873 4.6451 8.46911 4.11829 8.46855C3.84709 8.46836 3.75033 8.36298 3.75033 8.06786C3.74998 7.3098 3.74981 6.55174 3.75033 5.79367C3.7505 5.5023 3.85281 5.39111 4.12055 5.39092C4.64735 5.39055 5.78333 5.39074 5.84176 5.39074C5.84176 5.3388 5.84159 4.24436 5.84176 3.74036C5.84211 2.99524 5.96505 2.28199 6.31516 1.62893C6.67359 0.96049 7.19519 0.502615 7.86366 0.237865C8.2918 0.0681781 8.73624 0.000490696 9.19056 0.000115696C9.75898 -0.000259303 10.3274 0.000303191 10.896 0.00142819C11.1403 0.00180319 11.2487 0.118616 11.2492 0.384678C11.2503 1.09774 11.2503 1.8108 11.2492 2.52368C11.2489 2.79255 11.145 2.90055 10.8951 2.90355C10.4292 2.90899 9.9629 2.90561 9.49748 2.92586C9.02738 2.92586 8.78011 3.17411 8.78011 3.70024C8.76884 4.25674 8.77543 4.8138 8.77543 5.39055C8.81947 5.39055 10.1573 5.39036 10.7826 5.39055C11.0666 5.39055 11.1637 5.49611 11.1637 5.80492C11.1637 6.55886 11.1636 7.31298 11.163 8.06692C11.1629 8.37123 11.0717 8.46836 10.7859 8.46855C10.1606 8.46892 8.82797 8.46873 8.7697 8.46873V14.5709C8.7697 14.8962 8.67502 14.9999 8.37816 14.9999C7.65436 14.9999 6.9304 15.0001 6.20661 14.9999C5.94425 14.9999 5.84194 14.8897 5.84194 14.606C5.84176 12.6187 5.84176 8.53848 5.84176 8.46873Z" fill="#3D6AD6"/>
</g>
</svg>
