<svg width="15" height="15" viewBox="0 0 15 15" fill="none" xmlns="http://www.w3.org/2000/svg">
<g clip-path="url(#clip0_532_4351)">
<path d="M14.4337 6.19609L8.31534 6.1958C8.04517 6.1958 7.82617 6.41477 7.82617 6.68494V8.63948C7.82617 8.9096 8.04517 9.12862 8.31531 9.12862H11.7608C11.3835 10.1078 10.6793 10.9277 9.78092 11.4488L11.2501 13.992C13.6068 12.629 15.0001 10.2375 15.0001 7.56045C15.0001 7.17927 14.972 6.90678 14.9158 6.59995C14.8731 6.36684 14.6707 6.19609 14.4337 6.19609Z" fill="#167EE6"/>
<path d="M7.49968 12.0653C5.81353 12.0653 4.34153 11.144 3.55096 9.78076L1.00781 11.2466C2.302 13.4896 4.72644 15.0001 7.49968 15.0001C8.86014 15.0001 10.1438 14.6338 11.2497 13.9954V13.992L9.78053 11.4487C9.10851 11.8385 8.33086 12.0653 7.49968 12.0653Z" fill="#12B347"/>
<path d="M11.25 13.9955V13.992L9.78085 11.4487C9.10884 11.8385 8.33124 12.0653 7.5 12.0653V15.0001C8.86046 15.0001 10.1442 14.6338 11.25 13.9955Z" fill="#0F993E"/>
<path d="M2.93479 7.49993C2.93479 6.66881 3.1616 5.89124 3.55128 5.21926L1.00813 3.75342C0.366269 4.85577 0 6.13599 0 7.49993C0 8.86388 0.366269 10.1441 1.00813 11.2464L3.55128 9.7806C3.1616 9.10862 2.93479 8.33105 2.93479 7.49993Z" fill="#FFD500"/>
<path d="M7.49968 2.93479C8.59922 2.93479 9.6092 3.32549 10.3981 3.97538C10.5927 4.13569 10.8756 4.12412 11.0538 3.94585L12.4387 2.56099C12.641 2.35872 12.6265 2.02764 12.4105 1.8402C11.0887 0.693545 9.36902 0 7.49968 0C4.72644 0 2.302 1.51046 1.00781 3.75349L3.55096 5.21933C4.34153 3.85605 5.81353 2.93479 7.49968 2.93479Z" fill="#FF4B26"/>
<path d="M10.3984 3.97538C10.593 4.13569 10.8759 4.12412 11.0542 3.94585L12.439 2.56099C12.6412 2.35872 12.6268 2.02764 12.4108 1.8402C11.0891 0.693516 9.36935 0 7.5 0V2.93479C8.59951 2.93479 9.60952 3.32549 10.3984 3.97538Z" fill="#D93F21"/>
</g>
<defs>
<clipPath id="clip0_532_4351">
<rect width="15" height="15" fill="white"/>
</clipPath>
</defs>
</svg>
