<svg width="36" height="36" viewBox="0 0 36 36" fill="none" xmlns="http://www.w3.org/2000/svg">
<g clip-path="url(#clip0_72_1666)">
<path d="M18 0C8.07472 0 0 8.07472 0 18C0 27.9253 8.07472 36 18 36C27.9253 36 36.0001 27.9252 36.0001 18C36.0001 8.07481 27.9253 0 18 0ZM18 34.9411C8.6586 34.9411 1.05888 27.3413 1.05888 18C1.05888 8.65869 8.6586 1.05888 18 1.05888C27.3414 1.05888 34.9411 8.6586 34.9411 18C34.9411 27.3414 27.3414 34.9411 18 34.9411Z" fill="white"/>
<path d="M22.5596 18C22.5596 15.4859 20.5141 13.4404 18 13.4404C15.4859 13.4404 13.4404 15.4859 13.4404 18C13.4404 20.5142 15.4858 22.5597 18 22.5597C20.5142 22.5597 22.5596 20.5142 22.5596 18ZM18 21.5009C16.0698 21.5009 14.4993 19.9304 14.4993 18C14.4993 16.0697 16.0697 14.4993 18 14.4993C19.9303 14.4993 21.5007 16.0697 21.5007 18C21.5007 19.9304 19.9302 21.5009 18 21.5009ZM32.157 21.2706C32.1566 21.2705 32.1563 21.2704 32.1559 21.2704C28.5803 20.3162 24.7346 21.3471 22.1205 23.9612C19.8702 26.2114 18.7854 29.3172 19.1442 32.4824L19.1443 32.4826V32.4831C19.1603 32.6226 19.2311 32.75 19.341 32.8373C19.4509 32.9246 19.5911 32.9647 19.7306 32.9487C22.7461 32.6028 25.5559 31.3652 27.8559 29.3694C30.1347 27.3923 31.7513 24.816 32.5307 21.9193C32.5671 21.7837 32.5482 21.6392 32.4781 21.5176C32.4081 21.396 32.2925 21.3071 32.157 21.2706ZM27.162 28.5697C25.1621 30.305 22.7479 31.4233 20.1508 31.8238C20.0019 29.17 20.9764 26.6029 22.8693 24.71C25.0889 22.4902 28.2972 21.5425 31.3552 22.17C30.5835 24.6481 29.1419 26.8519 27.162 28.5697ZM3.84389 21.2704L3.84372 21.2705L3.84292 21.2706C3.77578 21.2887 3.71286 21.3198 3.65774 21.3622C3.60263 21.4046 3.5564 21.4574 3.5217 21.5177C3.487 21.5779 3.4645 21.6444 3.4555 21.7133C3.4465 21.7823 3.45116 21.8523 3.46923 21.9195C4.24865 24.8162 5.8652 27.3924 8.14399 29.3696C10.444 31.3653 13.2538 32.603 16.2693 32.9489C16.4088 32.9649 16.5489 32.9248 16.6588 32.8375C16.7688 32.7501 16.8396 32.6227 16.8556 32.4832V32.4828L16.8557 32.4825C17.2145 29.3175 16.1297 26.2116 13.8795 23.9614C11.2652 21.3471 7.41989 20.316 3.84389 21.2704ZM15.8491 31.8238C13.2519 31.4234 10.8378 30.305 8.8379 28.5697C6.85798 26.8519 5.41632 24.6481 4.64467 22.17C7.70252 21.5425 10.9109 22.4903 13.1307 24.71C15.0235 26.6028 15.998 29.1701 15.8491 31.8238Z" fill="white"/>
<path d="M28.5671 7.28872C25.7337 4.49294 21.9808 2.95325 17.9999 2.95325C14.0191 2.95325 10.2662 4.49294 7.4326 7.28872C4.60187 10.0817 3.01171 13.8078 2.95506 17.7805C2.9535 17.8902 2.98604 17.9976 3.04817 18.088C3.11031 18.1784 3.19898 18.2472 3.30193 18.285C3.40488 18.3228 3.51703 18.3277 3.62289 18.299C3.72874 18.2704 3.82308 18.2095 3.89287 18.1249C7.0484 14.2988 12.322 12.0146 17.9998 12.0146C23.6776 12.0146 28.9512 14.2988 32.1068 18.1249C32.1766 18.2095 32.2709 18.2704 32.3768 18.299C32.4826 18.3277 32.5948 18.3228 32.6978 18.285C32.8007 18.2472 32.8894 18.1783 32.9515 18.0879C33.0136 17.9975 33.0462 17.8901 33.0446 17.7804C32.9881 13.8078 31.3979 10.0817 28.5671 7.28872ZM17.9999 10.9558C12.5901 10.9558 7.51563 12.9362 4.11232 16.3157C4.48619 13.1842 5.89961 10.2889 8.17637 8.04247C10.8105 5.44346 14.2992 4.01212 18 4.01212C21.7008 4.01212 25.1895 5.44346 27.8235 8.04247C30.1003 10.2889 31.5137 13.1842 31.8877 16.3157C28.4842 12.9362 23.4097 10.9558 17.9999 10.9558Z" fill="white"/>
</g>
<defs>
<clipPath id="clip0_72_1666">
<rect width="36" height="36" fill="white"/>
</clipPath>
</defs>
</svg>
