<svg width="36" height="36" viewBox="0 0 36 36" fill="none" xmlns="http://www.w3.org/2000/svg">
<path d="M28.1462 5.75309L18.8097 1.16414C18.5067 1.02767 18.168 1.02352 17.8997 1.14656L8.28345 5.08772C7.8724 5.25985 7.60669 5.64192 7.59017 6.08602C7.57308 6.53222 7.81193 6.93596 8.21988 7.14331L10.3596 8.19356L10.2368 11.8828C10.2019 11.8993 10.1689 11.9195 10.1384 11.9432C6.97282 14.3969 5.15714 18.0986 5.15714 22.0992C5.15714 29.1806 10.9186 34.9421 18 34.9421C25.0814 34.9421 30.8429 29.1806 30.8429 22.0992C30.8429 18.0987 28.9505 14.2984 25.7682 11.8751L25.8734 8.7117L27.7538 7.9417L27.7501 10.0675C27.7498 10.2079 27.8054 10.3426 27.9044 10.4421C28.0035 10.5416 28.1381 10.5976 28.2785 10.5979H28.2795C28.4198 10.598 28.5543 10.5423 28.6536 10.4433C28.7529 10.3442 28.8087 10.2097 28.8089 10.0695L28.8146 6.73331C28.7855 6.52847 28.7096 6.33309 28.5926 6.16238C28.4769 5.99378 28.3242 5.8538 28.1462 5.75309ZM27.6783 6.82845L25.1671 7.85775C25.163 7.8593 25.1589 7.86028 25.1549 7.86197L18.0703 10.7664L8.69189 6.19563C8.67945 6.18945 8.6464 6.17236 8.64795 6.12532C8.64949 6.08243 8.6779 6.07055 8.68824 6.06584L18.3588 2.12215C18.3588 2.12215 25.0312 5.4281 27.7161 6.74006C27.7191 6.74154 27.7324 6.76263 27.7261 6.78724C27.7231 6.79804 27.7169 6.80771 27.7084 6.81503C27.6999 6.82236 27.6894 6.82702 27.6783 6.82845ZM18.4715 11.7467L24.7996 9.15192L24.672 12.9932C24.6606 13.275 24.5691 13.5506 24.4062 13.8034C24.3752 13.8295 24.3472 13.8592 24.323 13.8918C24.1312 14.1492 23.8592 14.3292 23.5346 14.4129C22.2555 14.7505 20.9149 14.9573 19.5479 15.0286L19.4347 15.0333C18.7668 15.07 18.0574 15.0695 17.3233 15.0317C16.9609 15.0142 16.6083 14.9836 16.2603 14.9485C15.7495 14.889 15.276 14.8162 14.8081 14.7252C13.9482 14.5653 13.1017 14.3404 12.2758 14.0526C12.0653 13.9804 11.8736 13.8621 11.7148 13.7061C11.6337 13.626 11.5587 13.5278 11.4832 13.4027C11.3534 13.1798 11.2847 12.943 11.2795 12.699L11.2728 12.5786L11.4024 8.70551L17.5466 11.7214C17.6875 11.7993 17.8449 11.8423 18.0058 11.8469C18.1668 11.8512 18.3265 11.8168 18.4715 11.7467ZM10.2177 20.8362H15.1322C15.1317 20.8452 15.1318 20.8547 15.1314 20.8638C15.1286 20.9149 15.1272 20.966 15.127 21.0172C15.127 22.6028 16.4138 23.8927 17.9954 23.8927C19.5805 23.8927 20.8704 22.6028 20.8704 21.0172C20.8704 20.965 20.8686 20.9137 20.866 20.8626C20.8656 20.8539 20.8658 20.8449 20.8652 20.8362H25.7796C25.8412 21.1767 25.8778 21.5213 25.8891 21.8672C25.9052 22.3664 25.8687 22.866 25.7802 23.3576H23.9714C21.3735 23.3576 19.2594 25.4716 19.2594 28.0696V29.8782C18.4269 30.0416 17.5705 30.0415 16.738 29.8779V28.0696C16.738 25.4717 14.624 23.3576 12.026 23.3576H10.2171C10.0705 22.5235 10.0707 21.6702 10.2177 20.8362ZM10.4678 24.4164H12.026C14.0403 24.4164 15.6792 26.0553 15.6792 28.0696V29.6283C13.1945 28.8638 11.235 26.9048 10.4678 24.4164ZM19.7273 20.4841C19.7826 20.6392 19.8116 20.8237 19.8116 21.0171C19.8116 22.019 18.9968 22.8338 17.9954 22.8338C16.9976 22.8338 16.1859 22.019 16.1859 21.0171C16.1859 20.8237 16.2148 20.6392 16.2769 20.4639C16.5064 19.724 17.2131 19.2075 17.9954 19.2075C18.7936 19.2076 19.4869 19.7122 19.7273 20.4841ZM20.3183 28.0696C20.3183 26.0553 21.9572 24.4164 23.9714 24.4164H25.5303C24.7658 26.9023 22.8068 28.8615 20.3183 29.628L20.3183 28.0696ZM20.5866 19.7773C20.1207 18.7892 19.1237 18.1488 17.9954 18.1488C16.8647 18.1488 15.8662 18.7954 15.4087 19.7773H10.4669C10.9965 18.0569 12.0968 16.5735 13.6152 15.5514C13.9449 15.6321 14.2768 15.7035 14.6106 15.7654C15.1007 15.8605 15.6001 15.9375 16.1451 16.0011C16.5194 16.0394 16.8906 16.071 17.2706 16.0895C17.6609 16.1091 18.0451 16.119 18.4209 16.119C18.7859 16.119 19.1431 16.1097 19.489 16.0911L19.6043 16.0859C20.6145 16.0334 21.6195 15.9081 22.6116 15.7109C24.0085 16.7243 25.0274 18.1496 25.5299 19.7773H20.5866V19.7773ZM18 33.8833C11.5023 33.8833 6.21591 28.5969 6.21591 22.0992C6.21591 18.6481 7.68903 15.4395 10.279 13.1963C10.3377 13.4587 10.4368 13.7104 10.5727 13.9424C10.6973 14.1492 10.8281 14.3188 10.9713 14.4599C11.2391 14.7251 11.5715 14.9303 11.9298 15.0534C12.0632 15.0998 12.1973 15.1442 12.3317 15.1875C10.7731 16.465 9.69546 18.2141 9.26353 20.1919C9.12649 20.8076 9.05724 21.4503 9.05724 22.1007C9.05724 22.1841 9.05843 22.2674 9.06075 22.3504C9.07629 22.9167 9.14442 23.4712 9.26304 23.9997C10.0049 27.4103 12.6871 30.0925 16.0921 30.8314C16.7017 30.9684 17.3438 31.0382 18.002 31.0382C18.0856 31.0382 18.1689 31.037 18.252 31.0346C18.8187 31.0191 19.3729 30.951 19.901 30.8324C23.3116 30.092 25.9938 27.4098 26.7332 24.0033C26.8702 23.3937 26.94 22.7537 26.94 22.1007C26.94 21.4503 26.8707 20.8076 26.7337 20.1919C26.7327 20.1878 26.7314 20.1838 26.7304 20.1797C26.3223 18.3238 25.3357 16.6573 23.9174 15.4026C24.4092 15.2515 24.8301 14.965 25.1412 14.5643C25.1966 14.5092 25.2454 14.4477 25.2865 14.3813C25.5259 14.0246 25.6733 13.6193 25.7172 13.1969C28.2801 15.4251 29.7839 18.6829 29.7839 22.0991C29.7841 28.5969 24.4977 33.8833 18 33.8833Z" fill="white"/>
</svg>
