<svg width="98" height="24" viewBox="0 0 98 24" fill="none" xmlns="http://www.w3.org/2000/svg">
<path d="M25.7577 8.50488H35.6721V10.346H31.7684V20.725H29.6287V10.346H25.7414L25.7577 8.50488ZM35.2474 11.8776H37.0767V13.5884H37.1094C37.1747 13.344 37.2891 13.1159 37.4524 12.8878C37.6157 12.6597 37.8117 12.4479 38.0567 12.2687C38.2854 12.0731 38.5467 11.9265 38.8407 11.8125C39.1184 11.6984 39.4124 11.6332 39.7064 11.6332C39.9351 11.6332 40.0984 11.6495 40.1801 11.6495C40.2617 11.6658 40.3597 11.6821 40.4414 11.6821V13.5559C40.3107 13.5233 40.1637 13.507 40.0167 13.4907C39.8697 13.4744 39.7391 13.4581 39.5921 13.4581C39.2654 13.4581 38.9551 13.5233 38.6611 13.6536C38.3671 13.784 38.1221 13.9795 37.8934 14.2239C37.6811 14.4846 37.5014 14.7942 37.3707 15.1689C37.2401 15.5437 37.1747 15.9836 37.1747 16.4724V20.6761H35.2147L35.2474 11.8776ZM49.4247 20.725H47.4974V19.4867H47.4647C47.2197 19.9429 46.8604 20.285 46.3867 20.562C45.9131 20.839 45.4231 20.9694 44.9331 20.9694C43.7734 20.9694 42.9241 20.6924 42.4014 20.1058C41.8787 19.5355 41.6174 18.6557 41.6174 17.4989V11.8776H43.5774V17.3033C43.5774 18.0854 43.7244 18.6394 44.0347 18.949C44.3287 19.2748 44.7534 19.4378 45.2924 19.4378C45.7007 19.4378 46.0437 19.3726 46.3214 19.2423C46.5991 19.1119 46.8277 18.949 46.9911 18.7372C47.1707 18.5254 47.2851 18.2647 47.3667 17.9714C47.4484 17.6781 47.4811 17.3522 47.4811 17.0101V11.8776H49.4411V20.725H49.4247ZM52.7567 17.8899C52.822 18.4602 53.0344 18.8512 53.41 19.0956C53.7857 19.3237 54.243 19.4378 54.7657 19.4378C54.9454 19.4378 55.1577 19.4215 55.3864 19.3889C55.615 19.3563 55.8437 19.3074 56.0397 19.226C56.252 19.1445 56.4154 19.0304 56.546 18.8675C56.6767 18.7046 56.742 18.5091 56.7257 18.2647C56.7094 18.0203 56.6277 17.8084 56.448 17.6455C56.2684 17.4826 56.056 17.3685 55.7947 17.2545C55.5334 17.1567 55.223 17.0752 54.88 17.0101C54.537 16.9449 54.194 16.8634 53.8347 16.782C53.4754 16.7005 53.116 16.6027 52.7731 16.4887C52.43 16.3746 52.136 16.228 51.8584 16.0162C51.597 15.8206 51.3684 15.5762 51.2214 15.2667C51.0581 14.9571 50.9764 14.5986 50.9764 14.1424C50.9764 13.6536 51.0907 13.2626 51.3357 12.9367C51.5644 12.6108 51.8747 12.3501 52.234 12.1546C52.5934 11.9591 53.0017 11.8125 53.4427 11.731C53.8837 11.6495 54.3084 11.6169 54.7004 11.6169C55.1577 11.6169 55.5987 11.6658 56.007 11.7636C56.4154 11.8613 56.8074 12.008 57.134 12.2361C57.477 12.4479 57.7547 12.7412 57.967 13.0833C58.1957 13.4255 58.3264 13.8491 58.3917 14.3379H56.35C56.252 13.8654 56.0397 13.5559 55.713 13.3929C55.37 13.23 54.9944 13.1485 54.5534 13.1485C54.4227 13.1485 54.243 13.1648 54.0634 13.1811C53.8674 13.2137 53.7041 13.2463 53.5244 13.3115C53.361 13.3766 53.2141 13.4744 53.0997 13.5884C52.9854 13.7025 52.92 13.8654 52.92 14.0609C52.92 14.3053 53.0017 14.4846 53.165 14.6312C53.3284 14.7779 53.5407 14.8919 53.8184 15.006C54.0797 15.1037 54.39 15.1852 54.733 15.2504C55.076 15.3155 55.4354 15.397 55.7947 15.4785C56.154 15.5599 56.497 15.6577 56.84 15.7718C57.183 15.8858 57.4934 16.0325 57.7547 16.2443C58.016 16.4398 58.2447 16.6842 58.408 16.9775C58.5714 17.2708 58.653 17.6455 58.653 18.0691C58.653 18.5905 58.5387 19.0304 58.2937 19.4052C58.0487 19.7637 57.7384 20.0732 57.3627 20.3013C56.987 20.5294 56.546 20.6924 56.0887 20.8064C55.615 20.9042 55.1577 20.9694 54.7004 20.9694C54.145 20.9694 53.6224 20.9042 53.1487 20.7738C52.675 20.6435 52.2504 20.448 51.9074 20.2036C51.5644 19.9429 51.2867 19.6333 51.0907 19.2423C50.8947 18.8675 50.7804 18.4113 50.764 17.8736H52.7404V17.8899H52.7567ZM59.2084 11.8776H60.6947V9.2055H62.6547V11.8613H64.4187V13.3115H62.6547V18.0365C62.6547 18.2484 62.671 18.4113 62.6874 18.5742C62.7037 18.7209 62.7527 18.8512 62.8017 18.949C62.867 19.0467 62.965 19.1282 63.0794 19.1771C63.21 19.226 63.3734 19.2586 63.602 19.2586C63.7327 19.2586 63.8797 19.2586 64.0104 19.2423C64.141 19.226 64.288 19.2097 64.4187 19.1771V20.6924C64.2064 20.725 63.994 20.7413 63.7817 20.7576C63.5694 20.7901 63.3734 20.7901 63.1447 20.7901C62.622 20.7901 62.2137 20.7413 61.9034 20.6435C61.593 20.5457 61.348 20.3991 61.1684 20.2199C60.9887 20.0244 60.8744 19.7962 60.809 19.5192C60.7437 19.2423 60.711 18.9001 60.6947 18.5416V13.3277H59.2084V11.845V11.8776ZM65.7907 11.8776H67.6364V13.0833H67.669C67.9467 12.5619 68.3224 12.2035 68.8124 11.9754C69.3024 11.7473 69.825 11.6332 70.413 11.6332C71.1154 11.6332 71.7197 11.7473 72.2424 12.008C72.765 12.2524 73.1897 12.5782 73.5327 13.0182C73.8757 13.4418 74.137 13.9469 74.3004 14.5172C74.4637 15.0874 74.5617 15.7066 74.5617 16.342C74.5617 16.9449 74.48 17.5152 74.333 18.0691C74.1697 18.6231 73.941 19.1282 73.6307 19.5518C73.3204 19.9755 72.9284 20.3176 72.4384 20.5783C71.9484 20.839 71.393 20.9694 70.7397 20.9694C70.462 20.9694 70.168 20.9368 69.8904 20.8879C69.6127 20.839 69.335 20.7576 69.0737 20.6435C68.8124 20.5294 68.5674 20.3828 68.355 20.2036C68.1264 20.0243 67.9467 19.8125 67.7997 19.5844H67.767V23.9999H65.807V11.8776H65.7907ZM72.6344 16.3094C72.6344 15.9184 72.5854 15.5274 72.471 15.1526C72.373 14.7779 72.2097 14.452 71.9974 14.1587C71.785 13.8654 71.5237 13.6373 71.2297 13.4581C70.9194 13.2789 70.56 13.1974 70.168 13.1974C69.3514 13.1974 68.7307 13.4744 68.306 14.0447C67.8977 14.6149 67.6854 15.3807 67.6854 16.3257C67.6854 16.782 67.7344 17.1893 67.8487 17.564C67.963 17.9388 68.11 18.2647 68.3387 18.5416C68.551 18.8186 68.8124 19.0304 69.1227 19.1934C69.433 19.3563 69.776 19.4378 70.1844 19.4378C70.6417 19.4378 71.001 19.34 71.3114 19.1608C71.6217 18.9816 71.8667 18.7372 72.079 18.4602C72.275 18.1669 72.422 17.841 72.5037 17.4663C72.5854 17.0752 72.6344 16.7005 72.6344 16.3094ZM76.0807 8.50488H78.0407V10.346H76.0807V8.50488ZM76.0807 11.8776H78.0407V20.725H76.0807V11.8776ZM79.7884 8.50488H81.7484V20.725H79.7884V8.50488ZM87.7264 20.9694C87.024 20.9694 86.387 20.8553 85.8317 20.6109C85.2764 20.3665 84.819 20.0569 84.427 19.6496C84.0514 19.2423 83.7574 18.7372 83.5614 18.1669C83.3654 17.5966 83.251 16.9612 83.251 16.2931C83.251 15.6251 83.349 15.006 83.5614 14.4357C83.7574 13.8654 84.0514 13.3766 84.427 12.953C84.8027 12.5457 85.2764 12.2198 85.8317 11.9917C86.387 11.7636 87.024 11.6332 87.7264 11.6332C88.4287 11.6332 89.0657 11.7473 89.621 11.9917C90.1764 12.2198 90.6337 12.5457 91.0257 12.953C91.4014 13.3603 91.6954 13.8654 91.8914 14.4357C92.0874 15.006 92.2017 15.6251 92.2017 16.2931C92.2017 16.9775 92.1037 17.5966 91.8914 18.1669C91.679 18.7372 91.4014 19.226 91.0257 19.6496C90.65 20.0569 90.1764 20.3828 89.621 20.6109C89.0657 20.839 88.445 20.9694 87.7264 20.9694ZM87.7264 19.4215C88.151 19.4215 88.543 19.3237 88.8534 19.1445C89.18 18.9653 89.425 18.7209 89.6374 18.4276C89.8497 18.1343 89.9967 17.7921 90.0947 17.4337C90.1927 17.0589 90.2417 16.6842 90.2417 16.2931C90.2417 15.9184 90.1927 15.5437 90.0947 15.1689C89.9967 14.7942 89.8497 14.4683 89.6374 14.175C89.425 13.8817 89.1637 13.6536 88.8534 13.4744C88.5267 13.2952 88.151 13.1974 87.7264 13.1974C87.3017 13.1974 86.9097 13.2952 86.5994 13.4744C86.2727 13.6536 86.0277 13.898 85.8154 14.175C85.603 14.4683 85.456 14.7942 85.358 15.1689C85.26 15.5437 85.211 15.9184 85.211 16.2931C85.211 16.6842 85.26 17.0589 85.358 17.4337C85.456 17.8084 85.603 18.1343 85.8154 18.4276C86.0277 18.7209 86.289 18.9653 86.5994 19.1445C86.926 19.34 87.3017 19.4215 87.7264 19.4215ZM92.7897 11.8776H94.276V9.2055H96.236V11.8613H98V13.3115H96.236V18.0365C96.236 18.2484 96.2524 18.4113 96.2687 18.5742C96.285 18.7209 96.334 18.8512 96.383 18.949C96.4484 19.0467 96.5464 19.1282 96.6607 19.1771C96.7914 19.226 96.9547 19.2586 97.1834 19.2586C97.314 19.2586 97.461 19.2586 97.5917 19.2423C97.7224 19.226 97.8694 19.2097 98 19.1771V20.6924C97.7877 20.725 97.5754 20.7413 97.363 20.7576C97.1507 20.7901 96.9547 20.7901 96.726 20.7901C96.2034 20.7901 95.795 20.7413 95.4847 20.6435C95.1744 20.5457 94.9294 20.3991 94.7497 20.2199C94.57 20.0244 94.4557 19.7962 94.3904 19.5192C94.325 19.2423 94.2924 18.9001 94.276 18.5416V13.3277H92.7897V11.845V11.8776Z" fill="#201612"/>
<path d="M23.471 8.50469H14.504L11.7437 -0.000488281L8.967 8.50469L0 8.4884L7.252 13.7512L4.47533 22.2564L11.7273 16.9936L18.9793 22.2564L16.219 13.7512L23.471 8.50469Z" fill="#00B67A"/>
<path d="M16.8396 15.6741L16.219 13.7515L11.7437 16.9939L16.8396 15.6741Z" fill="#005128"/>
</svg>
