<svg width="99" height="22" viewBox="0 0 99 22" fill="none" xmlns="http://www.w3.org/2000/svg">
<path d="M26.7534 6.43066H36.6677V8.25057H32.764V18.5097H30.6244V8.25057H26.737L26.7534 6.43066ZM36.243 9.76448H38.0724V11.4556H38.105C38.1704 11.214 38.2847 10.9885 38.448 10.763C38.6114 10.5375 38.8074 10.3282 39.0524 10.151C39.281 9.95775 39.5424 9.8128 39.8364 9.70006C40.114 9.58732 40.408 9.5229 40.702 9.5229C40.9307 9.5229 41.094 9.53901 41.1757 9.53901C41.2574 9.55511 41.3554 9.57122 41.437 9.57122V11.4233C41.3064 11.3911 41.1594 11.375 41.0124 11.3589C40.8654 11.3428 40.7347 11.3267 40.5877 11.3267C40.261 11.3267 39.9507 11.3911 39.6567 11.52C39.3627 11.6488 39.1177 11.8421 38.889 12.0837C38.6767 12.3413 38.497 12.6474 38.3664 13.0178C38.2357 13.3882 38.1704 13.8231 38.1704 14.3062V18.4614H36.2104L36.243 9.76448ZM50.4204 18.5097H48.493V17.2857H48.4604C48.2154 17.7367 47.856 18.0749 47.3824 18.3487C46.9087 18.6225 46.4187 18.7513 45.9287 18.7513C44.769 18.7513 43.9197 18.4775 43.397 17.8977C42.8744 17.334 42.613 16.4643 42.613 15.3209V9.76448H44.573V15.1276C44.573 15.9007 44.72 16.4482 45.0304 16.7542C45.3244 17.0763 45.749 17.2374 46.288 17.2374C46.6964 17.2374 47.0394 17.173 47.317 17.0441C47.5947 16.9153 47.8234 16.7542 47.9867 16.5449C48.1664 16.3355 48.2807 16.0778 48.3624 15.7879C48.444 15.498 48.4767 15.1759 48.4767 14.8377V9.76448H50.4367V18.5097H50.4204ZM53.7524 15.7074C53.8177 16.2711 54.03 16.6576 54.4057 16.8992C54.7814 17.1247 55.2387 17.2374 55.7613 17.2374C55.941 17.2374 56.1534 17.2213 56.382 17.1891C56.6107 17.1569 56.8394 17.1086 57.0354 17.028C57.2477 16.9475 57.411 16.8348 57.5417 16.6737C57.6724 16.5127 57.7377 16.3194 57.7213 16.0778C57.705 15.8362 57.6234 15.6269 57.4437 15.4658C57.264 15.3047 57.0517 15.192 56.7904 15.0793C56.529 14.9826 56.2187 14.9021 55.8757 14.8377C55.5327 14.7733 55.1897 14.6927 54.8304 14.6122C54.471 14.5317 54.1117 14.4351 53.7687 14.3223C53.4257 14.2096 53.1317 14.0646 52.854 13.8553C52.5927 13.662 52.364 13.4204 52.217 13.1144C52.0537 12.8084 51.972 12.4541 51.972 12.0031C51.972 11.52 52.0863 11.1334 52.3314 10.8113C52.56 10.4892 52.8703 10.2315 53.2297 10.0383C53.589 9.84501 53.9974 9.70006 54.4384 9.61953C54.8794 9.53901 55.304 9.50679 55.696 9.50679C56.1533 9.50679 56.5943 9.55512 57.0027 9.65175C57.411 9.74838 57.803 9.89333 58.1297 10.1188C58.4727 10.3282 58.7503 10.6181 58.9627 10.9563C59.1913 11.2945 59.322 11.7132 59.3873 12.1964H57.3457C57.2477 11.7293 57.0354 11.4233 56.7087 11.2623C56.3657 11.1012 55.99 11.0207 55.549 11.0207C55.4184 11.0207 55.2387 11.0368 55.059 11.0529C54.863 11.0851 54.6997 11.1173 54.52 11.1818C54.3567 11.2462 54.2097 11.3428 54.0954 11.4556C53.981 11.5683 53.9157 11.7293 53.9157 11.9226C53.9157 12.1642 53.9974 12.3413 54.1607 12.4863C54.324 12.6312 54.5364 12.744 54.814 12.8567C55.0754 12.9534 55.3857 13.0339 55.7287 13.0983C56.0717 13.1627 56.431 13.2433 56.7904 13.3238C57.1497 13.4043 57.4927 13.5009 57.8357 13.6137C58.1787 13.7264 58.489 13.8714 58.7504 14.0807C59.0117 14.274 59.2403 14.5156 59.4037 14.8055C59.567 15.0954 59.6487 15.4658 59.6487 15.8845C59.6487 16.3999 59.5343 16.8348 59.2893 17.2052C59.0443 17.5595 58.734 17.8655 58.3584 18.091C57.9827 18.3165 57.5417 18.4775 57.0843 18.5903C56.6107 18.6869 56.1533 18.7513 55.696 18.7513C55.1407 18.7513 54.618 18.6869 54.1444 18.558C53.6707 18.4292 53.246 18.2359 52.903 17.9944C52.56 17.7367 52.2824 17.4307 52.0863 17.0441C51.8904 16.6737 51.776 16.2228 51.7597 15.6913H53.736V15.7074H53.7524ZM60.204 9.76448H61.6903V7.1232H63.6503V9.74838H65.4143V11.1818H63.6503V15.8523C63.6503 16.0617 63.6667 16.2228 63.683 16.3838C63.6993 16.5288 63.7483 16.6576 63.7973 16.7542C63.8627 16.8509 63.9607 16.9314 64.075 16.9797C64.2057 17.028 64.369 17.0602 64.5977 17.0602C64.7283 17.0602 64.8753 17.0602 65.006 17.0441C65.1367 17.028 65.2837 17.0119 65.4143 16.9797V18.4775C65.202 18.5097 64.9897 18.5258 64.7773 18.5419C64.565 18.5741 64.369 18.5741 64.1403 18.5741C63.6177 18.5741 63.2093 18.5258 62.899 18.4292C62.5887 18.3326 62.3437 18.1876 62.164 18.0105C61.9843 17.8172 61.87 17.5917 61.8047 17.3179C61.7393 17.0441 61.7067 16.7059 61.6903 16.3516V11.1979H60.204V9.73227V9.76448ZM66.7863 9.76448H68.632V10.9563H68.6647C68.9423 10.4409 69.318 10.0866 69.808 9.86112C70.298 9.63564 70.8207 9.5229 71.4087 9.5229C72.111 9.5229 72.7153 9.63564 73.238 9.89333C73.7607 10.1349 74.1853 10.457 74.5283 10.8919C74.8713 11.3106 75.1327 11.8099 75.296 12.3736C75.4593 12.9373 75.5573 13.5493 75.5573 14.1774C75.5573 14.7733 75.4757 15.337 75.3287 15.8845C75.1653 16.4321 74.9367 16.9314 74.6263 17.3501C74.316 17.7689 73.924 18.1071 73.434 18.3648C72.944 18.6225 72.3887 18.7513 71.7353 18.7513C71.4577 18.7513 71.1637 18.7191 70.886 18.6708C70.6083 18.6225 70.3307 18.5419 70.0693 18.4292C69.808 18.3165 69.563 18.1715 69.3507 17.9944C69.122 17.8172 68.9423 17.6078 68.7953 17.3823H68.7627V21.7469H66.8027V9.76448H66.7863ZM73.63 14.1452C73.63 13.7586 73.581 13.3721 73.4667 13.0017C73.3687 12.6312 73.2053 12.3091 72.993 12.0192C72.7807 11.7293 72.5193 11.5039 72.2253 11.3267C71.915 11.1496 71.5557 11.069 71.1637 11.069C70.347 11.069 69.7263 11.3428 69.3017 11.9065C68.8933 12.4702 68.681 13.2272 68.681 14.1613C68.681 14.6122 68.73 15.0148 68.8443 15.3853C68.9587 15.7557 69.1057 16.0778 69.3343 16.3516C69.5467 16.6254 69.808 16.8348 70.1183 16.9958C70.4287 17.1569 70.7717 17.2374 71.18 17.2374C71.6373 17.2374 71.9967 17.1408 72.307 16.9636C72.6173 16.7864 72.8623 16.5449 73.0747 16.2711C73.2707 15.9812 73.4177 15.6591 73.4993 15.2886C73.581 14.9021 73.63 14.5317 73.63 14.1452ZM77.0763 6.43066H79.0363V8.25057H77.0763V6.43066ZM77.0763 9.76448H79.0363V18.5097H77.0763V9.76448ZM80.784 6.43066H82.744V18.5097H80.784V6.43066ZM88.722 18.7513C88.0197 18.7513 87.3827 18.6386 86.8273 18.397C86.272 18.1554 85.8147 17.8494 85.4227 17.4468C85.047 17.0441 84.753 16.5449 84.557 15.9812C84.361 15.4175 84.2467 14.7894 84.2467 14.1291C84.2467 13.4687 84.3447 12.8567 84.557 12.293C84.753 11.7293 85.047 11.2462 85.4227 10.8274C85.7983 10.4248 86.272 10.1027 86.8273 9.87722C87.3827 9.65175 88.0197 9.5229 88.722 9.5229C89.4243 9.5229 90.0613 9.63564 90.6167 9.87722C91.172 10.1027 91.6293 10.4248 92.0213 10.8274C92.397 11.2301 92.691 11.7293 92.887 12.293C93.083 12.8567 93.1973 13.4687 93.1973 14.1291C93.1973 14.8055 93.0993 15.4175 92.887 15.9812C92.6747 16.5449 92.397 17.028 92.0213 17.4468C91.6457 17.8494 91.172 18.1715 90.6167 18.397C90.0613 18.6225 89.4407 18.7513 88.722 18.7513ZM88.722 17.2213C89.1467 17.2213 89.5387 17.1247 89.849 16.9475C90.1757 16.7703 90.4207 16.5288 90.633 16.2389C90.8453 15.949 90.9923 15.6108 91.0903 15.2564C91.1883 14.886 91.2373 14.5156 91.2373 14.1291C91.2373 13.7586 91.1883 13.3882 91.0903 13.0178C90.9923 12.6474 90.8453 12.3252 90.633 12.0353C90.4207 11.7455 90.1593 11.52 89.849 11.3428C89.5223 11.1657 89.1467 11.069 88.722 11.069C88.2973 11.069 87.9053 11.1657 87.595 11.3428C87.2683 11.52 87.0233 11.7616 86.811 12.0353C86.5987 12.3252 86.4517 12.6474 86.3537 13.0178C86.2557 13.3882 86.2067 13.7586 86.2067 14.1291C86.2067 14.5156 86.2557 14.886 86.3537 15.2564C86.4517 15.6269 86.5987 15.949 86.811 16.2389C87.0233 16.5288 87.2847 16.7703 87.595 16.9475C87.9217 17.1408 88.2973 17.2213 88.722 17.2213ZM93.7853 9.76448H95.2717V7.1232H97.2317V9.74838H98.9957V11.1818H97.2317V15.8523C97.2317 16.0617 97.248 16.2228 97.2643 16.3838C97.2807 16.5288 97.3297 16.6576 97.3787 16.7542C97.444 16.8509 97.542 16.9314 97.6563 16.9797C97.787 17.028 97.9503 17.0602 98.179 17.0602C98.3097 17.0602 98.4567 17.0602 98.5873 17.0441C98.718 17.028 98.865 17.0119 98.9957 16.9797V18.4775C98.7833 18.5097 98.571 18.5258 98.3587 18.5419C98.1463 18.5741 97.9503 18.5741 97.7217 18.5741C97.199 18.5741 96.7907 18.5258 96.4803 18.4292C96.17 18.3326 95.925 18.1876 95.7453 18.0105C95.5657 17.8172 95.4513 17.5917 95.386 17.3179C95.3207 17.0441 95.288 16.7059 95.2717 16.3516V11.1979H93.7853V9.73227V9.76448Z" fill="white"/>
<path d="M24.4668 8.40703H15.4998L12.7395 0L9.96278 8.40703L0.995789 8.39092L8.24779 13.593L5.47112 22L12.7231 16.7979L19.9751 22L17.2148 13.593L24.4668 8.40703Z" fill="#00B67A"/>
<path d="M17.8354 15.4932L17.2147 13.5928L12.7394 16.7978L17.8354 15.4932Z" fill="#005128"/>
</svg>
