<svg width="15" height="15" viewBox="0 0 15 15" fill="none" xmlns="http://www.w3.org/2000/svg">
<mask id="mask0_532_4340" style="mask-type:alpha" maskUnits="userSpaceOnUse" x="0" y="0" width="15" height="15">
<rect width="15" height="15" fill="#D9D9D9"/>
</mask>
<g mask="url(#mask0_532_4340)">
<path d="M15 2.7303C14.4422 2.98126 13.8478 3.1476 13.2281 3.22837C13.8656 2.83799 14.3522 2.22453 14.5809 1.4851C13.9866 1.84857 13.3303 2.1053 12.6309 2.24857C12.0666 1.63222 11.2622 1.25049 10.3847 1.25049C8.68219 1.25049 7.31156 2.6678 7.31156 4.4053C7.31156 4.6553 7.33219 4.89568 7.38281 5.12453C4.82625 4.99664 2.56406 3.73991 1.04437 1.82549C0.779062 2.2976 0.623438 2.83799 0.623438 3.41972C0.623438 4.51203 1.17188 5.4803 1.98937 6.04087C1.49531 6.03126 1.01063 5.88414 0.6 5.65241C0.6 5.66203 0.6 5.67453 0.6 5.68703C0.6 7.21972 1.66594 8.49279 3.06375 8.78606C2.81344 8.85626 2.54063 8.88991 2.2575 8.88991C2.06063 8.88991 1.86187 8.87837 1.67531 8.83606C2.07375 10.0851 3.20438 11.0034 4.54875 11.0332C3.5025 11.8726 2.17406 12.3784 0.735938 12.3784C0.48375 12.3784 0.241875 12.3668 0 12.3351C1.36219 13.2361 2.97656 13.7505 4.7175 13.7505C10.3763 13.7505 13.47 8.9428 13.47 4.77549C13.47 4.63606 13.4653 4.50145 13.4587 4.3678C14.0691 3.92357 14.5819 3.36876 15 2.7303Z" fill="#03A9F4"/>
</g>
</svg>
