<svg width="168" height="40" viewBox="0 0 168 40" fill="none" xmlns="http://www.w3.org/2000/svg">
<path d="M94.7654 27.5076C95.4365 25.8228 95.772 24.0601 95.772 22.2205C95.772 20.4832 95.4491 18.785 94.8042 17.1269C94.185 15.4696 93.2951 13.9674 92.1349 12.6211C90.9971 11.2712 89.6141 10.1942 87.9872 9.39041C86.3799 8.58357 84.5936 8.18164 82.6315 8.18164C80.7455 8.18164 78.986 8.57089 77.3552 9.35054C75.7536 10.1028 74.3583 11.1407 73.1698 12.4633C71.9828 13.7593 71.0538 15.2493 70.3835 16.932C69.712 18.5919 69.3765 20.3426 69.3765 22.1822C69.3765 23.9442 69.6863 25.6672 70.3052 27.3505L70.3063 27.3534C70.9509 29.0105 71.8538 30.5127 73.014 31.8592L73.0151 31.8603C74.1782 33.1839 75.5612 34.2349 77.1624 35.013C78.7701 35.794 80.5687 36.1824 82.555 36.1824C84.4399 36.1824 86.1864 35.8063 87.7919 35.0523C89.4188 34.3005 90.8272 33.2758 92.016 31.9784L92.0171 31.9769C93.2037 30.6559 94.1201 29.1657 94.7654 27.5076ZM94.7654 27.5076C94.7651 27.508 94.7651 27.5083 94.7651 27.5083L94.5969 27.4405L94.7654 27.5076ZM50.0542 8.46721L50.0024 8.37355H49.8959H45.1938H44.8793L45.037 8.64723L55.0664 26.0313V35.8085V35.9907H55.2476H59.5293H59.7105V35.8085V26.1082L69.8164 8.64745L69.9747 8.37355H69.6595H64.9575H64.8517L64.7999 8.46651L57.3894 21.7318L50.0542 8.46721ZM88.7952 28.9037L88.7948 28.9044C88.0977 29.8294 87.2263 30.567 86.1791 31.1176C85.1381 31.665 83.9442 31.9412 82.5931 31.9412C81.293 31.9412 80.1234 31.6777 79.0806 31.1544C78.0335 30.6286 77.1363 29.9157 76.3881 29.0149C75.6634 28.0856 75.1 27.0298 74.6985 25.8465C74.2974 24.6629 74.0967 23.4417 74.0967 22.1822C74.0967 20.9738 74.2847 19.7908 74.6605 18.6323C75.0619 17.4741 75.6257 16.4306 76.3519 15.5006C77.0747 14.5743 77.9595 13.8361 79.0074 13.2849C80.0484 12.7374 81.2423 12.4612 82.5931 12.4612C83.8674 12.4612 85.011 12.7245 86.0277 13.2473L86.0291 13.2481C87.0763 13.7738 87.9734 14.4993 88.722 15.4262L88.7235 15.4281C89.4724 16.3303 90.0348 17.3712 90.4105 18.5529H90.4101L90.4119 18.5572C90.8127 19.7147 91.0134 20.9224 91.0134 22.1822C91.0134 23.3648 90.8254 24.5488 90.4485 25.7343C90.0728 26.8917 89.5217 27.9482 88.7952 28.9037ZM99.8421 35.8085V35.9907H100.023H118.87H119.051V35.8085V32.0083V31.8261H118.87H104.486V8.55576V8.37355H104.305H100.023H99.8421V8.55576V35.8085ZM141.146 32.0083V31.8261H140.965H126.81V23.8611H138.748H138.929V23.6789V20.1093V19.9271H138.748H126.81V12.538H140.621H140.802V12.3558V8.55576V8.37355H140.621H122.348H122.167V8.55576V35.8085V35.9907H122.348H140.965H141.146V35.8085V32.0083ZM145.2 35.8085V35.9907H145.382H149.663H149.844V35.8085V26.5098H155.871L161.704 35.9047L161.757 35.9907H161.858H166.675H167L166.829 35.7123L160.563 25.5419C161.57 25.1716 162.452 24.6067 163.208 23.8476C164.042 23.0357 164.681 22.0674 165.123 20.9442C165.565 19.8222 165.785 18.6476 165.785 17.4225C165.785 16.298 165.564 15.2002 165.122 14.1302C164.707 13.0611 164.109 12.0962 163.331 11.2362C162.576 10.3743 161.678 9.68228 160.639 9.16042C159.593 8.6351 158.443 8.37355 157.194 8.37355H145.382H145.2V8.55576V35.8085ZM160.475 14.975L160.476 14.9773C160.867 15.6893 161.065 16.5028 161.065 17.4225C161.065 18.3193 160.892 19.1505 160.546 19.9187C160.201 20.6614 159.735 21.2504 159.15 21.6906C158.571 22.1268 157.908 22.3455 157.156 22.3455H149.844V12.538H156.926C157.652 12.538 158.316 12.7557 158.923 13.1947L158.926 13.1966C159.563 13.6395 160.08 14.231 160.475 14.975Z" fill="white"/>
<path d="M94.7654 27.5076C95.4365 25.8228 95.772 24.0601 95.772 22.2205C95.772 20.4832 95.4491 18.785 94.8042 17.1269C94.185 15.4696 93.2951 13.9674 92.1349 12.6211C90.9971 11.2712 89.6141 10.1942 87.9872 9.39041C86.3799 8.58357 84.5936 8.18164 82.6315 8.18164C80.7455 8.18164 78.986 8.57089 77.3552 9.35054C75.7536 10.1028 74.3583 11.1407 73.1698 12.4633C71.9828 13.7593 71.0538 15.2493 70.3835 16.932C69.712 18.5919 69.3765 20.3426 69.3765 22.1822C69.3765 23.9442 69.6863 25.6672 70.3052 27.3505L70.3063 27.3534C70.9509 29.0105 71.8538 30.5127 73.014 31.8592L73.0151 31.8603C74.1782 33.1839 75.5612 34.2349 77.1624 35.013C78.7701 35.794 80.5687 36.1824 82.5551 36.1824C84.4399 36.1824 86.1864 35.8063 87.7919 35.0523C89.4188 34.3005 90.8272 33.2758 92.016 31.9784L92.0171 31.9769C93.2037 30.6559 94.1201 29.1657 94.7654 27.5076ZM94.7654 27.5076C94.7651 27.508 94.7651 27.5083 94.7651 27.5083L94.5969 27.4405L94.7654 27.5076ZM50.0542 8.46721L50.0024 8.37355H49.8959H45.1938H44.8793L45.037 8.64723L55.0664 26.0313V35.8085V35.9907H55.2476H59.5293H59.7105V35.8085V26.1082L69.8164 8.64745L69.9747 8.37355H69.6595H64.9575H64.8517L64.7999 8.46651L57.3894 21.7318L50.0542 8.46721ZM88.7952 28.9037L88.7948 28.9044C88.0977 29.8294 87.2263 30.567 86.1791 31.1176C85.1381 31.665 83.9442 31.9412 82.5931 31.9412C81.293 31.9412 80.1234 31.6777 79.0806 31.1544C78.0335 30.6286 77.1363 29.9157 76.3881 29.0149C75.6634 28.0856 75.1 27.0298 74.6985 25.8465C74.2974 24.6629 74.0967 23.4417 74.0967 22.1822C74.0967 20.9738 74.2847 19.7908 74.6605 18.6323C75.0619 17.4741 75.6257 16.4306 76.3519 15.5006C77.0747 14.5743 77.9595 13.8361 79.0074 13.2849C80.0484 12.7374 81.2423 12.4612 82.5931 12.4612C83.8674 12.4612 85.011 12.7245 86.0277 13.2473L86.0291 13.2481C87.0763 13.7738 87.9734 14.4993 88.722 15.4263L88.7235 15.4281C89.4724 16.3303 90.0348 17.3712 90.4105 18.5529H90.4101L90.4119 18.5572C90.8127 19.7147 91.0134 20.9224 91.0134 22.1822C91.0134 23.3648 90.8254 24.5488 90.4485 25.7343C90.0728 26.8917 89.5217 27.9482 88.7952 28.9037ZM99.8421 35.8085V35.9907H100.023H118.87H119.051V35.8085V32.0083V31.8261H118.87H104.486V8.55576V8.37355H104.305H100.023H99.8421V8.55576V35.8085ZM141.146 32.0083V31.8261H140.965H126.81V23.8611H138.748H138.929V23.6789V20.1093V19.9271H138.748H126.81V12.538H140.621H140.802V12.3558V8.55576V8.37355H140.621H122.348H122.167V8.55576V35.8085V35.9907H122.348H140.965H141.146V35.8085V32.0083ZM145.2 35.8085V35.9907H145.382H149.663H149.844V35.8085V26.5098H155.871L161.704 35.9047L161.757 35.9907H161.858H166.675H167L166.829 35.7123L160.563 25.5419C161.57 25.1716 162.452 24.6067 163.208 23.8476C164.042 23.0357 164.681 22.0674 165.123 20.9442C165.565 19.8222 165.785 18.6476 165.785 17.4225C165.785 16.298 165.564 15.2002 165.122 14.1302C164.707 13.0611 164.109 12.0962 163.331 11.2362C162.576 10.3743 161.678 9.68228 160.639 9.16042C159.593 8.6351 158.443 8.37355 157.194 8.37355H145.382H145.2V8.55576V35.8085ZM160.475 14.975L160.476 14.9773C160.867 15.6893 161.065 16.5028 161.065 17.4225C161.065 18.3193 160.892 19.1505 160.546 19.9187C160.201 20.6614 159.735 21.2504 159.15 21.6906C158.571 22.1268 157.908 22.3455 157.156 22.3455H149.844V12.538H156.926C157.652 12.538 158.316 12.7557 158.923 13.1947L158.926 13.1966C159.563 13.6395 160.08 14.231 160.475 14.975Z" stroke="white"/>
<path d="M33.5444 5.46482L28.6776 8.3493C26.235 6.48092 23.1893 5.37291 19.8844 5.37291C16.6343 5.37291 13.6318 6.44582 11.2108 8.25739L6.4021 5.30105C9.94633 2.01044 14.6819 0 19.8844 0C25.175 0 29.9819 2.07731 33.5444 5.46482Z" fill="#FC968B"/>
<path d="M39.7704 20.0008C39.7704 29.0452 33.8005 36.6876 25.607 39.1577V33.4522C30.7946 31.2179 34.4285 26.0354 34.4285 20.0008C34.4285 19.4709 34.4002 18.9498 34.3455 18.4348L39.307 15.6958C39.611 17.0829 39.7704 18.5234 39.7704 20.0008Z" fill="#FF4856"/>
<path d="M14.0888 39.1362C5.93358 36.6424 0 29.0186 0 20.0008C0 18.5336 0.15787 17.1046 0.456942 15.7275L5.41519 18.5067C5.36533 18.9979 5.3404 19.4961 5.3404 20.0008C5.3404 25.9436 8.86466 31.059 13.9259 33.3487L14.0888 39.1362Z" fill="white"/>
<path d="M38.2852 12.4038L33.6028 15.1329L29.1645 17.7198C29.1645 17.7198 22.558 20.7482 22.4799 26.8028C22.4483 29.263 22.4416 32.0086 22.4466 34.4018C22.4499 36.7531 22.4632 38.7651 22.4715 39.8315C21.6258 39.9433 20.7617 40.0002 19.8844 40.0002C18.9772 40.0002 18.0832 39.9386 17.2076 39.8198L17.2691 34.3916L17.3588 26.5674C17.3588 26.5674 17.515 21.7307 13.0187 19.1757C11.2873 18.1913 8.68686 16.6821 6.14297 15.1997V15.198C4.46974 14.2221 2.82306 13.2578 1.46387 12.4623C2.1468 10.7661 3.05902 9.18676 4.159 7.76123L8.86799 10.4518L16.2239 14.6533C16.2239 14.6533 20.446 16.9328 24.2395 14.6533C25.9825 13.6054 28.661 12.0228 31.0439 10.6223C33.0495 9.44245 34.8488 8.38958 35.7079 7.88656C36.7529 9.26362 37.6222 10.7794 38.2852 12.4038Z" fill="#00A06E"/>
</svg>
