<svg width="168" height="40" viewBox="0 0 168 40" fill="none" xmlns="http://www.w3.org/2000/svg">
<path d="M94.7654 27.5074C95.4365 25.8227 95.772 24.0599 95.772 22.2203C95.772 20.4831 95.4491 18.7848 94.8042 17.1267C94.185 15.4694 93.2951 13.9673 92.1349 12.6209C90.9971 11.271 89.6141 10.194 87.9872 9.39023C86.3799 8.58338 84.5936 8.18146 82.6315 8.18146C80.7455 8.18146 78.986 8.5707 77.3552 9.35036C75.7536 10.1026 74.3583 11.1405 73.1698 12.4632C71.9828 13.7591 71.0538 15.2491 70.3835 16.9318C69.712 18.5917 69.3765 20.3424 69.3765 22.182C69.3765 23.944 69.6863 25.667 70.3052 27.3503L70.3063 27.3533C70.9509 29.0103 71.8538 30.5125 73.014 31.859L73.0151 31.8601C74.1782 33.1837 75.5612 34.2347 77.1624 35.0128C78.7701 35.7938 80.5687 36.1823 82.555 36.1823C84.4399 36.1823 86.1864 35.8062 87.7919 35.0522C89.4188 34.3003 90.8272 33.2756 92.016 31.9782L92.0171 31.9767C93.2037 30.6557 94.1201 29.1656 94.7654 27.5074ZM94.7654 27.5074C94.7651 27.5078 94.7651 27.5081 94.7651 27.5081L94.5969 27.4403L94.7654 27.5074ZM50.0542 8.46702L50.0024 8.37336H49.8959H45.1938H44.8793L45.037 8.64705L55.0664 26.0311V35.8083V35.9906H55.2476H59.5293H59.7105V35.8083V26.108L69.8164 8.64727L69.9747 8.37336H69.6595H64.9575H64.8517L64.7999 8.46633L57.3894 21.7316L50.0542 8.46702ZM88.7952 28.9035L88.7948 28.9043C88.0977 29.8292 87.2263 30.5668 86.1791 31.1174C85.1381 31.6648 83.9442 31.941 82.5931 31.941C81.293 31.941 80.1234 31.6776 79.0806 31.1542C78.0335 30.6284 77.1363 29.9155 76.3881 29.0147C75.6634 28.0854 75.1 27.0296 74.6985 25.8463C74.2974 24.6627 74.0967 23.4415 74.0967 22.182C74.0967 20.9736 74.2847 19.7906 74.6605 18.6321C75.0619 17.4739 75.6257 16.4304 76.3519 15.5004C77.0747 14.5741 77.9595 13.8359 79.0074 13.2848C80.0484 12.7372 81.2423 12.461 82.5931 12.461C83.8674 12.461 85.011 12.7243 86.0277 13.2472L86.0291 13.2479C87.0763 13.7736 87.9734 14.4991 88.722 15.4261L88.7235 15.4279C89.4724 16.3301 90.0348 17.3711 90.4105 18.5527H90.4101L90.4119 18.5571C90.8127 19.7145 91.0134 20.9222 91.0134 22.182C91.0134 23.3646 90.8254 24.5486 90.4485 25.7341C90.0728 26.8915 89.5217 27.948 88.7952 28.9035ZM99.8421 35.8083V35.9906H100.023H118.87H119.051V35.8083V32.0081V31.8259H118.87H104.486V8.55558V8.37336H104.305H100.023H99.8421V8.55558V35.8083ZM141.146 32.0081V31.8259H140.965H126.81V23.8609H138.748H138.929V23.6787V20.1092V19.9269H138.748H126.81V12.5378H140.621H140.802V12.3556V8.55558V8.37336H140.621H122.348H122.167V8.55558V35.8083V35.9906H122.348H140.965H141.146V35.8083V32.0081ZM145.2 35.8083V35.9906H145.382H149.663H149.844V35.8083V26.5096H155.871L161.704 35.9046L161.757 35.9906H161.858H166.675H167L166.829 35.7121L160.563 25.5417C161.57 25.1714 162.452 24.6066 163.208 23.8475C164.042 23.0355 164.681 22.0672 165.123 20.9441C165.565 19.822 165.785 18.6474 165.785 17.4223C165.785 16.2978 165.564 15.2 165.122 14.1301C164.707 13.0609 164.109 12.096 163.331 11.2361C162.576 10.3741 161.678 9.6821 160.639 9.16024C159.593 8.63491 158.443 8.37336 157.194 8.37336H145.382H145.2V8.55558V35.8083ZM160.475 14.9748L160.476 14.9771C160.867 15.6891 161.065 16.5027 161.065 17.4223C161.065 18.3191 160.892 19.1503 160.546 19.9186C160.201 20.6613 159.735 21.2502 159.15 21.6904C158.571 22.1266 157.908 22.3453 157.156 22.3453H149.844V12.5378H156.926C157.652 12.5378 158.316 12.7555 158.923 13.1945L158.926 13.1964C159.563 13.6393 160.08 14.2308 160.475 14.9748Z" fill="#052D39"/>
<path d="M94.7654 27.5074C95.4365 25.8227 95.772 24.0599 95.772 22.2203C95.772 20.4831 95.4491 18.7848 94.8042 17.1267C94.185 15.4694 93.2951 13.9673 92.1349 12.6209C90.9971 11.271 89.6141 10.194 87.9872 9.39023C86.3799 8.58338 84.5936 8.18146 82.6315 8.18146C80.7455 8.18146 78.986 8.5707 77.3552 9.35036C75.7536 10.1026 74.3583 11.1405 73.1698 12.4632C71.9828 13.7591 71.0538 15.2491 70.3835 16.9318C69.712 18.5917 69.3765 20.3424 69.3765 22.182C69.3765 23.944 69.6863 25.667 70.3052 27.3503L70.3063 27.3533C70.9509 29.0103 71.8538 30.5125 73.014 31.859L73.0151 31.8601C74.1782 33.1837 75.5612 34.2347 77.1624 35.0128C78.7701 35.7938 80.5687 36.1823 82.5551 36.1823C84.4399 36.1823 86.1864 35.8062 87.7919 35.0522C89.4188 34.3003 90.8272 33.2756 92.016 31.9782L92.0171 31.9767C93.2037 30.6557 94.1201 29.1656 94.7654 27.5074ZM94.7654 27.5074C94.7651 27.5078 94.7651 27.5081 94.7651 27.5081L94.5969 27.4403L94.7654 27.5074ZM50.0542 8.46702L50.0024 8.37336H49.8959H45.1938H44.8793L45.037 8.64705L55.0664 26.0311V35.8083V35.9906H55.2476H59.5293H59.7105V35.8083V26.108L69.8164 8.64727L69.9747 8.37336H69.6595H64.9575H64.8517L64.7999 8.46633L57.3894 21.7316L50.0542 8.46702ZM88.7952 28.9035L88.7948 28.9043C88.0977 29.8292 87.2263 30.5668 86.1791 31.1174C85.1381 31.6648 83.9442 31.941 82.5931 31.941C81.293 31.941 80.1234 31.6776 79.0806 31.1542C78.0335 30.6284 77.1363 29.9155 76.3881 29.0147C75.6634 28.0854 75.1 27.0296 74.6985 25.8463C74.2974 24.6627 74.0967 23.4415 74.0967 22.182C74.0967 20.9736 74.2847 19.7906 74.6605 18.6321C75.0619 17.4739 75.6257 16.4304 76.3519 15.5004C77.0747 14.5741 77.9595 13.8359 79.0074 13.2848C80.0484 12.7372 81.2423 12.461 82.5931 12.461C83.8674 12.461 85.011 12.7243 86.0277 13.2472L86.0291 13.2479C87.0763 13.7736 87.9734 14.4991 88.722 15.4261L88.7235 15.4279C89.4724 16.3301 90.0348 17.3711 90.4105 18.5527H90.4101L90.4119 18.5571C90.8127 19.7145 91.0134 20.9222 91.0134 22.182C91.0134 23.3646 90.8254 24.5486 90.4485 25.7341C90.0728 26.8915 89.5217 27.948 88.7952 28.9035ZM99.8421 35.8083V35.9906H100.023H118.87H119.051V35.8083V32.0081V31.8259H118.87H104.486V8.55558V8.37336H104.305H100.023H99.8421V8.55558V35.8083ZM141.146 32.0081V31.8259H140.965H126.81V23.8609H138.748H138.929V23.6787V20.1092V19.9269H138.748H126.81V12.5378H140.621H140.802V12.3556V8.55558V8.37336H140.621H122.348H122.167V8.55558V35.8083V35.9906H122.348H140.965H141.146V35.8083V32.0081ZM145.2 35.8083V35.9906H145.382H149.663H149.844V35.8083V26.5096H155.871L161.704 35.9046L161.757 35.9906H161.858H166.675H167L166.829 35.7121L160.563 25.5417C161.57 25.1714 162.452 24.6066 163.208 23.8475C164.042 23.0355 164.681 22.0672 165.123 20.9441C165.565 19.822 165.785 18.6474 165.785 17.4223C165.785 16.2978 165.564 15.2 165.122 14.1301C164.707 13.0609 164.109 12.096 163.331 11.2361C162.576 10.3741 161.678 9.6821 160.639 9.16024C159.593 8.63491 158.443 8.37336 157.194 8.37336H145.382H145.2V8.55558V35.8083ZM160.475 14.9748L160.476 14.9771C160.867 15.6891 161.065 16.5027 161.065 17.4223C161.065 18.3191 160.892 19.1503 160.546 19.9186C160.201 20.6613 159.735 21.2502 159.15 21.6904C158.571 22.1266 157.908 22.3453 157.156 22.3453H149.844V12.5378H156.926C157.652 12.5378 158.316 12.7555 158.923 13.1945L158.926 13.1964C159.563 13.6393 160.08 14.2308 160.475 14.9748Z" stroke="#052D39"/>
<path d="M33.5444 5.46482L28.6776 8.3493C26.235 6.48092 23.1893 5.37291 19.8844 5.37291C16.6343 5.37291 13.6318 6.44582 11.2108 8.25739L6.4021 5.30105C9.94633 2.01044 14.6819 0 19.8844 0C25.175 0 29.9819 2.07731 33.5444 5.46482Z" fill="#FC968B"/>
<path d="M39.7704 20.0009C39.7704 29.0453 33.8005 36.6877 25.607 39.1578V33.4523C30.7946 31.218 34.4285 26.0355 34.4285 20.0009C34.4285 19.471 34.4002 18.9499 34.3455 18.435L39.307 15.6959C39.611 17.083 39.7704 18.5235 39.7704 20.0009Z" fill="#FF4856"/>
<path d="M14.0888 39.1363C5.93358 36.6425 0 29.0187 0 20.0009C0 18.5337 0.15787 17.1047 0.456942 15.7276L5.41519 18.5067C5.36533 18.998 5.3404 19.4962 5.3404 20.0009C5.3404 25.9436 8.86466 31.0591 13.9259 33.3488L14.0888 39.1363Z" fill="#052D39"/>
<path d="M38.2852 12.4036L33.6028 15.1327L29.1645 17.7196C29.1645 17.7196 22.558 20.748 22.4799 26.8026C22.4483 29.2628 22.4416 32.0085 22.4466 34.4017C22.4499 36.7529 22.4632 38.765 22.4715 39.8313C21.6258 39.9431 20.7617 40 19.8844 40C18.9772 40 18.0832 39.9384 17.2076 39.8196L17.2691 34.3914L17.3588 26.5672C17.3588 26.5672 17.515 21.7305 13.0187 19.1755C11.2873 18.1912 8.68686 16.6819 6.14297 15.1995V15.1979C4.46974 14.2219 2.82306 13.2576 1.46387 12.4621C2.1468 10.7659 3.05902 9.18658 4.159 7.76105L8.86799 10.4517L16.2239 14.6531C16.2239 14.6531 20.446 16.9326 24.2395 14.6531C25.9825 13.6052 28.661 12.0226 31.0439 10.6221C33.0495 9.44226 34.8488 8.3894 35.7079 7.88638C36.7529 9.26344 37.6222 10.7792 38.2852 12.4036Z" fill="#00A06E"/>
</svg>
