<svg width="40" height="40" viewBox="0 0 40 40" fill="none" xmlns="http://www.w3.org/2000/svg">
<path d="M33.5444 5.46482L28.6776 8.3493C26.235 6.48092 23.1893 5.37291 19.8844 5.37291C16.6343 5.37291 13.6318 6.44582 11.2108 8.25739L6.4021 5.30105C9.94633 2.01044 14.6819 0 19.8844 0C25.175 0 29.9819 2.07731 33.5444 5.46482Z" fill="#FC968B"/>
<path d="M39.7703 20.0013C39.7703 29.0457 33.8005 36.6881 25.6069 39.1582V33.4527C30.7945 31.2184 34.4284 26.0358 34.4284 20.0013C34.4284 19.4714 34.4001 18.9503 34.3454 18.4353L39.3069 15.6963C39.6109 17.0834 39.7703 18.5239 39.7703 20.0013Z" fill="#FF4856"/>
<path d="M14.0888 39.1362C5.93358 36.6424 0 29.0186 0 20.0008C0 18.5336 0.15787 17.1046 0.456942 15.7275L5.41519 18.5067C5.36533 18.9979 5.3404 19.4961 5.3404 20.0008C5.3404 25.9436 8.86466 31.059 13.9259 33.3487L14.0888 39.1362Z" fill="#052D39"/>
<path d="M38.2852 12.4033L33.6028 15.1324L29.1645 17.7193C29.1645 17.7193 22.558 20.7477 22.4799 26.8023C22.4483 29.2625 22.4416 32.0081 22.4466 34.4013C22.4499 36.7526 22.4632 38.7646 22.4715 39.831C21.6258 39.9428 20.7617 39.9997 19.8844 39.9997C18.9772 39.9997 18.0832 39.9381 17.2076 39.8193L17.2691 34.3911L17.3588 26.5669C17.3588 26.5669 17.515 21.7302 13.0187 19.1752C11.2873 18.1909 8.68686 16.6816 6.14297 15.1992V15.1976C4.46974 14.2216 2.82306 13.2573 1.46387 12.4618C2.1468 10.7656 3.05902 9.18628 4.159 7.76074L8.86799 10.4514L16.2239 14.6528C16.2239 14.6528 20.446 16.9323 24.2395 14.6528C25.9825 13.6049 28.661 12.0223 31.0439 10.6218C33.0495 9.44196 34.8488 8.38909 35.7079 7.88607C36.7529 9.26313 37.6222 10.7789 38.2852 12.4033Z" fill="#00A06E"/>
</svg>
