<svg width="612" height="604" viewBox="0 0 612 604" fill="none" xmlns="http://www.w3.org/2000/svg">
<path d="M393.19 302.9C332.757 302.321 278.073 301.804 238.435 301.427C218.66 301.339 202.646 301.251 191.538 301.2C186.028 301.213 181.751 301.225 178.782 301.225C177.348 301.251 176.254 301.263 175.461 301.276C174.719 301.288 174.329 301.314 174.329 301.339C174.329 301.364 174.706 301.389 175.461 301.414C176.254 301.427 177.348 301.465 178.782 301.49C181.738 301.528 186.028 301.578 191.538 301.653C202.658 301.716 218.66 301.804 238.435 301.905C278.073 301.93 332.77 301.968 393.202 302.006C453.61 301.993 508.306 302.081 547.907 302.371C567.707 302.509 583.734 302.698 594.804 302.912C600.339 303.013 604.641 303.126 607.559 303.24C610.478 303.353 612 303.466 612 303.567C612 303.68 610.465 303.768 607.547 303.857C604.628 303.945 600.326 304.008 594.791 304.058C583.721 304.159 567.695 304.184 547.894 304.121C508.293 303.995 453.597 303.517 393.19 302.9Z" fill="#EBEBEB"/>
<path d="M391.994 316.358C332.392 306.514 278.45 297.613 239.353 291.155C219.829 288.032 204.029 285.502 193.06 283.739C187.613 282.909 183.386 282.266 180.455 281.813C179.046 281.612 177.951 281.461 177.171 281.347C176.429 281.247 176.052 281.209 176.039 281.234C176.039 281.259 176.404 281.347 177.146 281.486C177.926 281.624 179.008 281.826 180.404 282.078C183.323 282.569 187.55 283.286 192.972 284.193C203.941 285.955 219.741 288.498 239.265 291.633C278.425 297.739 332.442 306.148 392.133 315.452C451.81 324.705 505.827 333.165 544.9 339.523C564.436 342.695 580.236 345.339 591.143 347.253C596.59 348.21 600.829 348.977 603.685 349.531C606.54 350.085 608.037 350.438 608.025 350.551C608.012 350.664 606.477 350.526 603.584 350.161C600.691 349.796 596.426 349.204 590.954 348.411C579.997 346.812 564.159 344.382 544.61 341.285C505.513 335.104 451.559 326.241 391.994 316.358Z" fill="#EBEBEB"/>
<path d="M388.661 329.464C331.373 310.479 279.52 293.295 241.944 280.844C223.163 274.725 207.967 269.765 197.412 266.328C192.167 264.666 188.091 263.37 185.273 262.476C183.914 262.06 182.858 261.746 182.103 261.507C181.386 261.293 181.021 261.204 181.008 261.217C180.996 261.242 181.361 261.381 182.052 261.632C182.795 261.897 183.839 262.249 185.185 262.715C187.99 263.659 192.041 265.019 197.261 266.756C207.816 270.206 223.012 275.166 241.781 281.297C279.482 293.408 331.486 310.114 388.95 328.57C446.401 346.976 498.406 363.72 535.968 376.082C554.75 382.251 569.933 387.325 580.4 390.9C585.633 392.688 589.684 394.11 592.426 395.105C595.168 396.099 596.577 396.679 596.552 396.779C596.514 396.88 595.03 396.515 592.225 395.709C589.419 394.903 585.318 393.657 580.035 392.02C569.468 388.735 554.221 383.875 535.415 377.782C497.777 365.621 445.911 348.486 388.661 329.464Z" fill="#EBEBEB"/>
<path d="M383.29 341.876C329.738 314.23 281.269 289.228 246.146 271.099C228.573 262.135 214.358 254.884 204.483 249.848C199.576 247.393 195.752 245.479 193.111 244.158C191.827 243.528 190.846 243.05 190.142 242.71C189.462 242.395 189.123 242.244 189.11 242.257C189.098 242.282 189.425 242.471 190.079 242.836C190.771 243.201 191.739 243.73 192.997 244.397C195.614 245.756 199.4 247.733 204.281 250.263C214.156 255.312 228.371 262.576 245.932 271.539C281.231 289.353 329.914 313.928 383.717 341.096C437.521 368.201 486.191 392.825 521.326 410.853C538.9 419.867 553.077 427.22 562.839 432.381C567.72 434.962 571.494 436.989 574.048 438.399C576.589 439.809 577.897 440.602 577.847 440.69C577.796 440.791 576.387 440.187 573.746 438.953C571.116 437.719 567.255 435.843 562.298 433.401C552.385 428.516 538.107 421.353 520.496 412.402C485.286 394.525 436.791 369.548 383.29 341.876Z" fill="#EBEBEB"/>
<path d="M376.017 353.308C327.498 317.744 283.595 285.565 251.768 262.237C235.83 250.68 222.936 241.313 213.979 234.817C209.513 231.632 206.041 229.152 203.651 227.44C202.481 226.622 201.588 226.005 200.946 225.552C200.33 225.136 200.016 224.922 199.99 224.947C199.978 224.96 200.267 225.212 200.858 225.665C201.487 226.143 202.355 226.798 203.488 227.654C205.852 229.404 209.287 231.934 213.702 235.195C222.659 241.704 235.54 251.07 251.466 262.64C283.507 285.678 327.699 317.467 376.546 352.591C425.393 387.665 469.572 419.491 501.424 442.718C517.35 454.326 530.194 463.793 539.025 470.39C543.44 473.688 546.849 476.281 549.139 478.056C551.428 479.844 552.598 480.826 552.535 480.914C552.472 481.002 551.177 480.197 548.761 478.56C546.359 476.936 542.836 474.494 538.333 471.321C529.313 464.976 516.343 455.685 500.38 444.141C468.415 421.039 424.474 388.886 376.017 353.308Z" fill="#EBEBEB"/>
<path d="M367.023 363.48C324.705 320.903 286.4 282.38 258.637 254.444C244.724 240.583 233.452 229.353 225.628 221.561C221.728 217.733 218.684 214.75 216.583 212.685C215.564 211.703 214.772 210.948 214.206 210.406C213.665 209.903 213.375 209.651 213.363 209.664C213.35 209.676 213.602 209.966 214.105 210.507C214.646 211.074 215.413 211.854 216.394 212.874C218.458 214.964 221.451 217.998 225.301 221.888C233.113 229.681 244.372 240.923 258.285 254.796C286.3 282.48 324.957 320.664 367.665 362.851C410.385 404.988 449.017 443.209 476.806 471.057C490.706 484.968 501.902 496.286 509.588 504.167C513.425 508.107 516.394 511.179 518.369 513.294C520.344 515.409 521.35 516.554 521.275 516.63C521.199 516.706 520.042 515.711 517.916 513.734C515.79 511.758 512.708 508.812 508.758 504.972C500.858 497.318 489.499 486.151 475.548 472.29C447.621 444.568 409.291 406.058 367.023 363.48Z" fill="#EBEBEB"/>
<path d="M356.532 372.141C321.435 323.584 289.671 279.647 266.65 247.796C255.09 231.959 245.73 219.143 239.227 210.242C235.969 205.861 233.44 202.449 231.691 200.082C230.836 198.949 230.169 198.081 229.704 197.464C229.251 196.885 229.012 196.583 228.987 196.595C228.962 196.608 229.176 196.922 229.591 197.539C230.044 198.181 230.66 199.075 231.478 200.233C233.188 202.613 235.667 206.062 238.849 210.506C245.34 219.407 254.7 232.236 266.248 248.073C289.558 279.71 321.724 323.37 357.274 371.612C392.837 419.805 424.978 463.49 448.036 495.253C459.572 511.128 468.856 524.032 475.196 532.983C478.366 537.465 480.806 540.965 482.429 543.357C484.052 545.749 484.857 547.033 484.769 547.096C484.681 547.159 483.7 546 481.913 543.722C480.127 541.443 477.536 538.056 474.24 533.663C467.635 524.888 458.188 512.11 446.577 496.285C423.38 464.623 391.579 420.698 356.532 372.141Z" fill="#EBEBEB"/>
<path d="M344.808 379.091C317.837 325.712 293.432 277.419 275.733 242.408C266.814 224.985 259.606 210.885 254.599 201.09C252.083 196.256 250.121 192.492 248.762 189.898C248.095 188.652 247.58 187.695 247.215 187.003C246.863 186.361 246.661 186.033 246.649 186.033C246.624 186.046 246.774 186.386 247.089 187.066C247.429 187.771 247.907 188.74 248.523 190.011C249.831 192.63 251.731 196.419 254.171 201.292C259.178 211.086 266.374 225.199 275.28 242.622C293.294 277.47 318.151 325.549 345.613 378.676C373.112 431.752 397.932 479.869 415.681 514.792C424.563 532.253 431.683 546.429 436.526 556.249C438.954 561.158 440.803 564.998 442.023 567.604C443.243 570.223 443.835 571.62 443.747 571.658C443.646 571.708 442.866 570.412 441.457 567.881C440.061 565.351 438.036 561.612 435.469 556.765C430.337 547.071 423.028 533.009 414.071 515.572C396.17 480.75 371.728 432.457 344.808 379.091Z" fill="#EBEBEB"/>
<path d="M332.128 384.127C314 327.223 297.596 275.745 285.709 238.417C279.683 219.823 274.802 204.778 271.418 194.329C269.695 189.168 268.361 185.152 267.443 182.369C266.978 181.035 266.625 180.003 266.374 179.272C266.122 178.58 265.984 178.228 265.959 178.228C265.933 178.24 266.034 178.605 266.235 179.31C266.462 180.053 266.776 181.098 267.179 182.445C268.059 185.24 269.33 189.268 270.965 194.468C274.349 204.917 279.205 219.974 285.218 238.568C297.458 275.783 314.34 327.122 332.996 383.85C351.689 440.539 368.533 491.904 380.496 529.156C386.484 547.788 391.252 562.883 394.472 573.345C396.083 578.569 397.303 582.648 398.095 585.418C398.888 588.188 399.253 589.661 399.139 589.698C399.039 589.736 398.46 588.326 397.479 585.619C396.498 582.913 395.101 578.897 393.34 573.71C389.818 563.349 384.836 548.317 378.773 529.71C366.646 492.496 350.192 441.018 332.128 384.127Z" fill="#EBEBEB"/>
<path d="M318.794 387.136C309.963 328.13 301.975 274.738 296.175 236.038C293.194 216.752 290.779 201.128 289.093 190.276C288.225 184.913 287.546 180.733 287.08 177.85C286.841 176.466 286.653 175.395 286.514 174.628C286.376 173.897 286.3 173.532 286.275 173.532C286.25 173.532 286.288 173.91 286.376 174.64C286.476 175.408 286.627 176.491 286.816 177.888C287.244 180.784 287.848 184.963 288.64 190.339C290.313 201.191 292.716 216.802 295.685 236.101C301.836 274.751 310.315 328.067 319.699 386.997C329.122 445.878 337.562 499.219 343.437 537.868C346.381 557.193 348.683 572.842 350.192 583.668C350.947 589.082 351.501 593.287 351.84 596.145C352.18 599.002 352.306 600.513 352.193 600.526C352.079 600.538 351.752 599.065 351.211 596.233C350.67 593.4 349.941 589.22 349.023 583.832C347.198 573.056 344.683 557.432 341.651 538.12C335.6 499.521 327.574 446.117 318.794 387.136Z" fill="#EBEBEB"/>
<path d="M305.131 388.054C305.672 328.418 306.162 274.435 306.527 235.32C306.615 215.807 306.678 200.007 306.728 189.029C306.716 183.59 306.703 179.36 306.691 176.44C306.665 175.03 306.653 173.947 306.64 173.166C306.628 172.424 306.602 172.046 306.577 172.046C306.552 172.046 306.527 172.424 306.502 173.166C306.489 173.947 306.464 175.03 306.426 176.44C306.389 179.36 306.338 183.59 306.275 189.029C306.225 199.994 306.15 215.794 306.049 235.32C306.049 274.448 306.049 328.418 306.049 388.067C306.087 447.677 306.049 501.661 305.772 540.751C305.647 560.289 305.458 576.102 305.257 587.029C305.156 592.493 305.043 596.736 304.93 599.618C304.817 602.501 304.703 604.012 304.59 604C304.477 604 304.377 602.489 304.301 599.606C304.213 596.723 304.15 592.48 304.087 587.017C303.987 576.089 303.949 560.277 303.999 540.725C304.1 501.648 304.553 447.665 305.131 388.054Z" fill="#EBEBEB"/>
<path d="M291.496 386.871C301.434 328.041 310.416 274.801 316.932 236.202C320.089 216.94 322.643 201.342 324.417 190.502C325.26 185.127 325.901 180.947 326.354 178.064C326.555 176.667 326.706 175.597 326.819 174.829C326.92 174.098 326.958 173.721 326.933 173.721C326.908 173.721 326.819 174.086 326.681 174.816C326.543 175.584 326.341 176.654 326.09 178.039C325.599 180.922 324.882 185.089 323.951 190.452C322.165 201.279 319.611 216.877 316.441 236.139C310.29 274.788 301.786 328.104 292.402 387.022C283.067 445.915 274.526 499.244 268.11 537.805C264.902 557.092 262.236 572.678 260.311 583.442C259.342 588.83 258.575 592.997 258.009 595.817C257.443 598.637 257.09 600.11 256.977 600.097C256.864 600.085 257.002 598.574 257.367 595.716C257.732 592.858 258.336 588.654 259.141 583.253C260.751 572.438 263.204 556.815 266.336 537.516C272.576 498.929 281.533 445.676 291.496 386.871Z" fill="#EBEBEB"/>
<path d="M278.224 383.598C297.42 327.047 314.793 275.871 327.385 238.77C333.574 220.239 338.581 205.232 342.065 194.808C343.751 189.634 345.059 185.605 345.965 182.823C346.38 181.476 346.707 180.444 346.946 179.688C347.16 178.983 347.261 178.618 347.235 178.606C347.21 178.593 347.072 178.946 346.808 179.638C346.544 180.368 346.179 181.401 345.701 182.723C344.757 185.492 343.374 189.496 341.612 194.645C338.128 205.069 333.109 220.063 326.907 238.594C314.667 275.808 297.772 327.135 279.104 383.863C260.486 440.578 243.554 491.905 231.062 528.993C224.823 547.537 219.69 562.518 216.08 572.854C214.269 578.016 212.834 582.019 211.828 584.726C210.822 587.433 210.23 588.83 210.13 588.792C210.029 588.755 210.394 587.294 211.212 584.525C212.029 581.755 213.287 577.701 214.948 572.489C218.269 562.065 223.188 547.008 229.352 528.439C241.654 491.313 258.989 440.112 278.224 383.598Z" fill="#EBEBEB"/>
<path d="M265.645 378.311C293.622 325.435 318.932 277.596 337.273 242.912C346.343 225.564 353.677 211.527 358.772 201.783C361.262 196.936 363.2 193.159 364.533 190.553C365.162 189.281 365.653 188.312 365.992 187.62C366.319 186.952 366.47 186.613 366.445 186.6C366.42 186.587 366.231 186.915 365.867 187.557C365.489 188.237 364.973 189.193 364.294 190.44C362.91 193.021 360.923 196.772 358.357 201.581C353.249 211.325 345.903 225.363 336.82 242.698C318.794 277.546 293.924 325.612 266.437 378.726C239.013 431.841 214.093 479.894 195.84 514.578C186.72 531.926 179.273 545.925 174.052 555.569C171.436 560.391 169.385 564.117 167.964 566.635C166.542 569.14 165.737 570.437 165.636 570.387C165.536 570.336 166.139 568.951 167.397 566.345C168.643 563.739 170.542 559.937 173.008 555.04C177.952 545.258 185.21 531.158 194.255 513.772C212.357 479 237.642 431.136 265.645 378.311Z" fill="#EBEBEB"/>
<path d="M254.046 371.134C290.049 323.232 322.63 279.874 346.242 248.451C357.941 232.714 367.414 219.986 373.993 211.136C377.226 206.73 379.729 203.306 381.465 200.939C382.283 199.781 382.924 198.899 383.377 198.27C383.805 197.666 384.006 197.338 383.994 197.326C383.968 197.313 383.73 197.603 383.264 198.182C382.786 198.799 382.119 199.667 381.251 200.788C379.478 203.129 376.911 206.516 373.628 210.872C367.049 219.709 357.564 232.437 345.852 248.161C322.529 279.798 290.351 323.433 254.788 371.663C219.288 419.893 187.059 463.515 163.548 494.963C151.786 510.687 142.213 523.365 135.533 532.089C132.187 536.445 129.57 539.819 127.771 542.073C125.96 544.339 124.966 545.484 124.878 545.421C124.79 545.359 125.608 544.074 127.256 541.695C128.904 539.316 131.369 535.841 134.59 531.397C141.018 522.496 150.415 509.693 162.114 493.918C185.474 462.369 218.03 418.986 254.046 371.134Z" fill="#EBEBEB"/>
<path d="M243.743 362.259C286.854 320.462 325.876 282.643 354.155 255.224C368.194 241.476 379.566 230.36 387.453 222.63C391.34 218.778 394.359 215.769 396.435 213.704C397.429 212.697 398.196 211.916 398.75 211.35C399.265 210.821 399.517 210.532 399.504 210.519C399.492 210.506 399.202 210.758 398.649 211.262C398.083 211.803 397.278 212.546 396.246 213.515C394.133 215.555 391.063 218.513 387.126 222.303C379.226 230.02 367.854 241.136 353.802 254.871C325.775 282.543 287.105 320.714 244.385 362.888C201.715 405.075 163.007 443.221 134.816 470.678C120.727 484.401 109.267 495.467 101.291 503.045C97.3034 506.835 94.1836 509.756 92.0451 511.72C89.9066 513.671 88.7367 514.665 88.6612 514.59C88.5857 514.514 89.5921 513.369 91.5922 511.279C93.5924 509.189 96.5864 506.13 100.461 502.227C108.21 494.422 119.519 483.217 133.558 469.432C161.623 441.861 200.62 404.005 243.743 362.259Z" fill="#EBEBEB"/>
<path d="M234.95 351.924C284.124 317.253 328.63 285.88 360.885 263.144C376.924 251.725 389.906 242.472 398.913 236.051C403.354 232.841 406.813 230.336 409.203 228.611C410.348 227.767 411.228 227.113 411.857 226.647C412.449 226.194 412.751 225.955 412.738 225.942C412.725 225.929 412.398 226.131 411.782 226.534C411.128 226.974 410.235 227.591 409.052 228.397C406.637 230.084 403.14 232.539 398.649 235.674C389.629 242.094 376.647 251.322 360.595 262.741C328.555 285.767 284.338 317.542 235.478 352.654C186.669 387.778 142.426 419.529 110.26 442.315C94.1835 453.709 81.1133 462.874 72.0434 469.143C67.5021 472.278 63.9672 474.683 61.5393 476.294C59.1115 477.893 57.8158 478.699 57.7529 478.611C57.69 478.522 58.8725 477.553 61.1745 475.79C63.4766 474.028 66.9109 471.472 71.3641 468.212C80.2579 461.69 93.1897 452.349 109.229 440.893C141.294 417.942 185.776 386.532 234.95 351.924Z" fill="#EBEBEB"/>
<path d="M227.905 340.353C281.972 313.702 330.895 289.58 366.357 272.094C384.006 263.281 398.284 256.156 408.209 251.208C413.103 248.715 416.914 246.777 419.543 245.442C420.801 244.787 421.783 244.271 422.474 243.906C423.129 243.554 423.456 243.365 423.456 243.34C423.443 243.314 423.091 243.466 422.412 243.78C421.707 244.12 420.713 244.586 419.418 245.203C416.763 246.5 412.927 248.375 407.995 250.793C398.07 255.74 383.779 262.853 366.13 271.653C330.832 289.454 282.136 314.016 228.32 341.159C174.555 368.327 125.821 392.851 90.4347 410.4C72.7477 419.175 58.3943 426.213 48.4312 430.997C43.4497 433.389 39.5751 435.227 36.9208 436.435C34.2791 437.644 32.8576 438.236 32.8073 438.135C32.757 438.034 34.0778 437.266 36.6315 435.881C39.1852 434.497 42.9842 432.507 47.8903 429.964C57.7024 424.891 71.9552 417.665 89.6044 408.827C124.941 391.114 173.85 366.955 227.905 340.353Z" fill="#EBEBEB"/>
<path d="M222.797 327.84C280.437 309.913 332.605 293.698 370.407 281.939C389.239 275.984 404.485 271.163 415.065 267.814C420.298 266.114 424.361 264.792 427.179 263.886C428.525 263.433 429.569 263.08 430.311 262.829C431.016 262.577 431.368 262.451 431.368 262.426C431.356 262.4 430.991 262.501 430.274 262.703C429.519 262.929 428.462 263.231 427.091 263.634C424.261 264.503 420.172 265.762 414.914 267.373C404.322 270.709 389.075 275.531 370.244 281.473C332.542 293.572 280.538 310.265 223.062 328.709C165.648 347.177 113.606 363.833 75.8672 375.667C56.9977 381.584 41.7008 386.305 31.1088 389.49C25.8127 391.076 21.6866 392.285 18.8813 393.078C16.0761 393.859 14.5791 394.224 14.5539 394.11C14.5162 394.01 15.9503 393.443 18.6927 392.474C21.435 391.504 25.5108 390.12 30.7565 388.382C41.2605 384.895 56.4819 379.973 75.3262 373.98C113.002 361.97 165.17 345.704 222.797 327.84Z" fill="#EBEBEB"/>
<path d="M219.728 314.671C279.507 305.921 333.612 298.003 372.823 292.262C392.372 289.304 408.197 286.912 419.179 285.25C424.613 284.381 428.853 283.714 431.771 283.248C433.18 283.009 434.262 282.82 435.042 282.694C435.771 282.556 436.149 282.48 436.149 282.455C436.149 282.43 435.759 282.468 435.017 282.556C434.237 282.656 433.142 282.807 431.733 282.984C428.802 283.399 424.563 284.016 419.116 284.797C408.121 286.446 392.296 288.838 372.747 291.784C333.587 297.877 279.57 306.287 219.867 315.578C160.202 324.906 106.172 333.278 67.0115 339.094C47.4376 342.015 31.5747 344.294 20.6052 345.792C15.1205 346.547 10.856 347.089 7.96267 347.429C5.06935 347.769 3.53463 347.894 3.52205 347.781C3.50947 347.668 5.00645 347.341 7.87461 346.812C10.7428 346.283 14.9821 345.553 20.4417 344.646C31.3608 342.834 47.186 340.341 66.7599 337.345C105.87 331.339 159.975 323.383 219.728 314.671Z" fill="#EBEBEB"/>
<path d="M218.798 301.201C279.231 301.705 333.914 302.158 373.553 302.485C393.328 302.561 409.342 302.611 420.45 302.649C425.96 302.624 430.237 302.611 433.205 302.598C434.64 302.573 435.734 302.561 436.526 302.548C437.269 302.536 437.659 302.51 437.659 302.485C437.659 302.46 437.281 302.435 436.526 302.41C435.734 302.397 434.64 302.372 433.205 302.334C430.249 302.296 425.96 302.259 420.45 302.196C409.329 302.145 393.328 302.082 373.553 302.007C333.914 302.032 279.218 302.057 218.785 302.095C158.378 302.17 103.681 302.158 64.0807 301.919C44.2804 301.805 28.2539 301.642 17.1838 301.44C11.6488 301.34 7.34652 301.239 4.42804 301.125C1.53472 301.037 0 300.924 0 300.811C0 300.697 1.53472 300.609 4.4532 300.521C7.37168 300.433 11.6739 300.358 17.209 300.307C28.2791 300.194 44.3055 300.156 64.1059 300.181C103.694 300.257 158.403 300.66 218.798 301.201Z" fill="#EBEBEB"/>
<path d="M219.98 287.743C279.595 297.512 333.549 306.35 372.659 312.746C392.182 315.842 407.983 318.36 418.965 320.098C424.412 320.916 428.638 321.558 431.569 321.999C432.978 322.2 434.073 322.351 434.853 322.452C435.595 322.553 435.972 322.59 435.985 322.565C435.985 322.54 435.62 322.464 434.878 322.313C434.098 322.175 433.016 321.986 431.62 321.734C428.701 321.243 424.474 320.538 419.053 319.632C408.083 317.882 392.271 315.364 372.76 312.242C333.599 306.186 279.569 297.84 219.854 288.612C160.176 279.434 106.134 271.037 67.0614 264.73C47.5252 261.582 31.7126 258.951 20.806 257.063C15.3465 256.119 11.1197 255.351 8.26413 254.797C5.39597 254.243 3.91157 253.89 3.92415 253.79C3.93673 253.676 5.47145 253.815 8.36477 254.18C11.2581 254.545 15.5226 255.124 20.9947 255.917C31.9516 257.503 47.7894 259.921 67.3382 262.992C106.436 269.149 160.402 277.936 219.98 287.743Z" fill="#EBEBEB"/>
<path d="M223.288 274.637C280.601 293.546 332.467 310.668 370.068 323.068C388.849 329.162 404.058 334.097 414.625 337.521C419.87 339.183 423.946 340.467 426.764 341.361C428.135 341.776 429.179 342.091 429.934 342.318C430.651 342.532 431.016 342.62 431.029 342.595C431.041 342.569 430.676 342.431 429.972 342.179C429.23 341.915 428.186 341.562 426.84 341.096C424.034 340.165 419.971 338.805 414.763 337.068C404.209 333.631 389 328.683 370.219 322.578C332.505 310.517 280.475 293.874 222.986 275.493C165.51 257.163 113.493 240.47 75.905 228.17C57.111 222.026 41.9274 216.978 31.4611 213.403C26.228 211.615 22.1773 210.205 19.435 209.21C16.6926 208.216 15.2711 207.637 15.3088 207.536C15.3466 207.435 16.831 207.8 19.6362 208.606C22.4415 209.412 26.555 210.645 31.8385 212.282C42.4054 215.555 57.6645 220.39 76.4837 226.47C114.135 238.606 166.026 255.69 223.288 274.637Z" fill="#EBEBEB"/>
<path d="M228.648 262.211C282.237 289.781 330.732 314.734 365.879 332.824C383.465 341.763 397.693 349.002 407.568 354.025C412.487 356.48 416.311 358.393 418.953 359.703C420.236 360.32 421.217 360.798 421.934 361.151C422.613 361.465 422.966 361.616 422.966 361.604C422.978 361.579 422.651 361.39 421.997 361.037C421.305 360.672 420.336 360.156 419.078 359.476C416.462 358.117 412.663 356.153 407.794 353.622C397.919 348.586 383.692 341.347 366.118 332.396C330.807 314.62 282.073 290.109 228.245 263.016C174.417 235.975 125.696 211.425 90.5483 193.435C72.9745 184.446 58.7721 177.107 49.0103 171.958C44.1294 169.389 40.3429 167.362 37.8018 165.952C35.2607 164.542 33.9398 163.762 33.9902 163.661C34.0405 163.56 35.4494 164.165 38.0911 165.399C40.7328 166.632 44.5948 168.496 49.5512 170.925C59.4639 175.797 73.7544 182.948 91.3785 191.874C126.589 209.701 175.109 234.615 228.648 262.211Z" fill="#EBEBEB"/>
<path d="M235.919 250.78C284.476 286.282 328.429 318.41 360.281 341.701C376.232 353.245 389.139 362.586 398.108 369.07C402.574 372.255 406.046 374.723 408.449 376.435C409.618 377.24 410.512 377.87 411.166 378.323C411.782 378.739 412.109 378.953 412.122 378.927C412.134 378.915 411.845 378.663 411.254 378.21C410.625 377.731 409.757 377.077 408.612 376.221C406.234 374.471 402.8 371.953 398.385 368.692C389.428 362.196 376.521 352.842 360.583 341.298C328.517 318.297 284.275 286.572 235.39 251.498C186.506 216.487 142.276 184.711 110.399 161.522C94.4604 149.927 81.604 140.485 72.7731 133.901C68.3576 130.602 64.9486 128.021 62.6465 126.246C60.357 124.471 59.1871 123.489 59.25 123.401C59.3129 123.313 60.6086 124.119 63.0239 125.743C65.4392 127.367 68.9489 129.809 73.465 132.969C82.4846 139.314 95.4668 148.58 111.456 160.112C143.42 183.163 187.399 215.253 235.919 250.78Z" fill="#EBEBEB"/>
<path d="M244.9 240.596C287.281 283.123 325.624 321.596 353.425 349.494C367.363 363.342 378.635 374.547 386.472 382.339C390.384 386.167 393.428 389.15 395.529 391.202C396.561 392.184 397.34 392.94 397.907 393.481C398.447 393.985 398.737 394.236 398.749 394.224C398.762 394.211 398.51 393.922 398.007 393.38C397.466 392.814 396.699 392.033 395.718 391.013C393.655 388.924 390.648 385.902 386.811 382.012C378.987 374.219 367.715 363.002 353.79 349.154C325.737 321.508 287.042 283.374 244.271 241.225C201.488 199.139 162.818 160.968 134.992 133.158C121.041 119.272 109.833 107.967 102.146 100.098C98.2971 96.1706 95.3408 93.0862 93.3533 90.9837C91.3657 88.8687 90.3719 87.7231 90.4474 87.6476C90.5228 87.572 91.6802 88.5666 93.8061 90.5431C95.9321 92.5196 99.0267 95.4656 102.977 99.2927C110.889 106.934 122.249 118.089 136.225 131.937C164.189 159.608 202.57 198.056 244.9 240.596Z" fill="#EBEBEB"/>
<path d="M255.366 231.921C290.527 280.428 322.341 324.34 345.399 356.153C356.985 371.965 366.357 384.781 372.873 393.669C376.131 398.05 378.672 401.462 380.421 403.816C381.276 404.937 381.943 405.805 382.408 406.435C382.861 407.014 383.113 407.316 383.125 407.303C383.151 407.291 382.937 406.964 382.522 406.359C382.069 405.717 381.44 404.823 380.635 403.665C378.924 401.286 376.433 397.836 373.25 393.405C366.747 384.504 357.375 371.701 345.802 355.876C322.441 324.264 290.225 280.654 254.624 232.45C218.999 184.308 186.807 140.661 163.699 108.923C152.138 93.0603 142.841 80.1688 136.489 71.2178C133.306 66.7359 130.866 63.2487 129.243 60.8567C127.62 58.4647 126.802 57.1806 126.903 57.1177C126.991 57.0547 127.972 58.2129 129.759 60.4916C131.545 62.7703 134.136 66.1568 137.445 70.5379C144.062 79.3127 153.522 92.0657 165.145 107.891C188.405 139.515 220.269 183.402 255.366 231.921Z" fill="#EBEBEB"/>
<path d="M267.078 224.959C294.112 278.3 318.592 326.568 336.329 361.554C345.261 378.965 352.494 393.065 357.526 402.847C360.055 407.681 362.017 411.433 363.376 414.026C364.042 415.272 364.558 416.229 364.935 416.922C365.288 417.564 365.489 417.891 365.514 417.891C365.539 417.878 365.388 417.538 365.061 416.859C364.722 416.154 364.244 415.184 363.627 413.913C362.306 411.294 360.407 407.505 357.954 402.645C352.934 392.851 345.714 378.751 336.795 361.339C318.73 326.517 293.823 278.464 266.286 225.374C238.724 172.323 213.841 124.257 196.041 89.3463C187.135 71.8974 180.002 57.7344 175.146 47.9147C172.718 43.0049 170.857 39.1777 169.624 36.5591C168.391 33.9531 167.8 32.5557 167.9 32.5053C168.001 32.455 168.781 33.7517 170.19 36.2821C171.599 38.8 173.624 42.5516 176.19 47.3859C181.335 57.0672 188.669 71.1295 197.639 88.5532C215.59 123.363 240.095 171.618 267.078 224.959Z" fill="#EBEBEB"/>
<path d="M279.759 219.898C297.962 276.777 314.429 328.243 326.367 365.545C332.417 384.127 337.311 399.171 340.707 409.608C342.431 414.769 343.777 418.785 344.695 421.555C345.161 422.889 345.513 423.922 345.777 424.652C346.029 425.344 346.167 425.697 346.192 425.697C346.217 425.684 346.117 425.319 345.915 424.614C345.689 423.871 345.374 422.826 344.959 421.479C344.079 418.697 342.796 414.656 341.16 409.469C337.764 399.02 332.883 383.976 326.845 365.394C314.554 328.192 297.61 276.878 278.891 220.175C260.122 163.511 243.215 112.171 231.202 74.932C225.188 56.3123 220.396 41.2177 217.163 30.7685C215.552 25.5439 214.32 21.4775 213.527 18.7079C212.735 15.9382 212.37 14.4653 212.47 14.4275C212.571 14.3897 213.15 15.7997 214.131 18.5065C215.112 21.2132 216.521 25.2292 218.282 30.4034C221.817 40.7644 226.811 55.7836 232.9 74.378C245.102 111.567 261.619 163.032 279.759 219.898Z" fill="#EBEBEB"/>
<path d="M293.092 216.877C301.999 275.871 310.062 329.25 315.899 367.95C318.906 387.237 321.346 402.86 323.044 413.699C323.925 419.063 324.604 423.242 325.082 426.125C325.321 427.51 325.51 428.58 325.648 429.348C325.787 430.078 325.862 430.443 325.887 430.443C325.913 430.443 325.875 430.066 325.787 429.336C325.686 428.568 325.535 427.485 325.346 426.087C324.919 423.192 324.302 419.012 323.51 413.637C321.824 402.797 319.396 387.174 316.402 367.887C310.201 329.25 301.646 275.934 292.199 217.028C282.701 158.161 274.198 104.832 268.273 66.1827C265.304 46.8581 262.977 31.2095 261.454 20.3826C260.687 14.9692 260.134 10.7644 259.781 7.90657C259.442 5.04878 259.316 3.53806 259.416 3.52547C259.53 3.51288 259.869 4.98584 260.41 7.81844C260.951 10.6511 261.693 14.8307 262.612 20.219C264.448 30.9955 266.989 46.6189 270.034 65.9184C276.135 104.517 284.236 157.896 293.092 216.877Z" fill="#EBEBEB"/>
<path d="M306.742 215.933C306.276 275.569 305.849 329.552 305.547 368.667C305.484 388.18 305.446 403.98 305.409 414.958C305.434 420.397 305.446 424.627 305.459 427.547C305.484 428.957 305.497 430.04 305.509 430.821C305.534 431.563 305.547 431.941 305.572 431.941C305.597 431.941 305.622 431.563 305.648 430.821C305.66 430.04 305.685 428.957 305.723 427.547C305.761 424.627 305.799 420.397 305.861 414.958C305.899 403.993 305.962 388.193 306.025 368.667C305.975 329.539 305.912 275.569 305.836 215.92C305.723 156.31 305.698 102.326 305.912 63.2364C306.012 43.6977 306.176 27.8854 306.364 16.9579C306.465 11.4941 306.566 7.25147 306.679 4.36851C306.779 1.51072 306.893 0 306.993 0C307.106 0 307.207 1.51072 307.295 4.39369C307.383 7.27665 307.459 11.5193 307.521 16.9831C307.647 27.9106 307.698 43.7229 307.672 63.2741C307.635 102.339 307.257 156.322 306.742 215.933Z" fill="#EBEBEB"/>
<path d="M320.378 217.104C310.528 275.946 301.609 329.199 295.143 367.798C292.011 387.073 289.483 402.671 287.721 413.498C286.891 418.873 286.25 423.053 285.797 425.936C285.595 427.333 285.444 428.403 285.331 429.171C285.231 429.902 285.193 430.279 285.218 430.279C285.243 430.279 285.331 429.914 285.47 429.184C285.608 428.416 285.809 427.346 286.061 425.961C286.551 423.078 287.268 418.911 288.187 413.548C289.948 402.721 292.502 387.123 295.647 367.849C301.748 329.187 310.176 275.858 319.485 216.927C328.744 158.022 337.21 104.681 343.575 66.1067C346.758 46.8198 349.399 31.2216 351.311 20.4577C352.268 15.0694 353.035 10.9024 353.601 8.06976C354.167 5.24974 354.507 3.7642 354.62 3.78938C354.733 3.80197 354.595 5.31269 354.23 8.17048C353.865 11.0283 353.274 15.2331 352.481 20.6339C350.884 31.4482 348.443 47.0842 345.349 66.3837C339.16 105.02 330.278 158.299 320.378 217.104Z" fill="#EBEBEB"/>
<path d="M333.662 220.364C314.541 276.941 297.231 328.142 284.69 365.255C278.526 383.799 273.531 398.806 270.072 409.23C268.399 414.404 267.091 418.432 266.185 421.215C265.77 422.562 265.443 423.594 265.216 424.349C265.002 425.054 264.914 425.419 264.927 425.432C264.952 425.445 265.09 425.092 265.342 424.4C265.606 423.67 265.971 422.637 266.437 421.315C267.38 418.546 268.751 414.542 270.512 409.393C273.984 398.969 278.991 383.963 285.168 365.419C297.37 328.192 314.189 276.84 332.782 220.087C351.324 163.347 368.193 111.995 380.635 74.8939C386.849 56.3371 391.956 41.3558 395.567 31.0199C397.366 25.8583 398.8 21.8549 399.806 19.1482C400.812 16.4415 401.391 15.044 401.504 15.0818C401.605 15.1196 401.24 16.5799 400.422 19.3496C399.605 22.1193 398.359 26.173 396.699 31.385C393.39 41.8216 388.497 56.8785 382.358 75.4604C370.093 112.599 352.834 163.825 333.662 220.364Z" fill="#EBEBEB"/>
<path d="M346.254 225.639C318.352 278.539 293.092 326.417 274.801 361.126C265.756 378.486 258.435 392.536 253.353 402.293C250.875 407.14 248.937 410.917 247.604 413.523C246.975 414.794 246.484 415.763 246.145 416.456C245.818 417.123 245.667 417.463 245.692 417.476C245.717 417.488 245.906 417.161 246.271 416.519C246.648 415.839 247.164 414.882 247.843 413.636C249.214 411.055 251.214 407.303 253.768 402.494C258.863 392.737 266.197 378.7 275.254 361.352C293.23 326.492 318.05 278.388 345.461 225.236C372.822 172.084 397.679 123.992 415.882 89.2961C424.977 71.9353 432.412 57.9234 437.62 48.2799C440.224 43.4582 442.274 39.7192 443.696 37.2139C445.117 34.696 445.91 33.3993 446.01 33.4497C446.111 33.5 445.507 34.8974 444.262 37.4908C443.016 40.0968 441.129 43.9114 438.664 48.7961C433.733 58.5906 426.499 72.6907 417.467 90.0892C399.403 124.874 374.18 172.776 346.254 225.639Z" fill="#EBEBEB"/>
<path d="M357.853 232.803C321.912 280.756 289.382 324.139 265.807 355.6C254.121 371.349 244.673 384.089 238.094 392.94C234.874 397.346 232.371 400.783 230.635 403.15C229.817 404.308 229.175 405.189 228.722 405.831C228.295 406.436 228.093 406.763 228.106 406.775C228.119 406.788 228.37 406.499 228.836 405.919C229.314 405.303 229.98 404.434 230.848 403.313C232.622 400.972 235.176 397.585 238.459 393.217C245.038 384.366 254.498 371.626 266.197 355.889C289.482 324.227 321.611 280.542 357.098 232.274C392.535 184.007 424.701 140.334 448.187 108.861C459.924 93.124 469.484 80.434 476.152 71.7095C479.485 67.3536 482.102 63.9797 483.901 61.7136C485.7 59.4475 486.693 58.2893 486.781 58.3648C486.869 58.4277 486.052 59.7119 484.404 62.0913C482.756 64.4706 480.29 67.9453 477.082 72.4019C470.667 81.3152 461.282 94.1312 449.609 109.918C426.311 141.48 393.818 184.901 357.853 232.803Z" fill="#EBEBEB"/>
<path d="M368.169 241.653C325.109 283.5 286.137 321.369 257.896 348.826C243.869 362.586 232.522 373.728 224.635 381.47C220.76 385.335 217.741 388.332 215.666 390.409C214.672 391.416 213.905 392.197 213.364 392.763C212.848 393.304 212.596 393.581 212.609 393.594C212.621 393.607 212.911 393.355 213.464 392.851C214.03 392.31 214.835 391.567 215.867 390.585C217.98 388.546 221.05 385.587 224.975 381.785C232.862 374.055 244.222 362.926 258.248 349.166C286.238 321.457 324.857 283.248 367.527 241.011C410.147 198.761 448.804 160.565 476.958 133.082C491.034 119.347 502.469 108.269 510.432 100.677C514.42 96.8753 517.527 93.9546 519.666 91.9906C521.804 90.0267 522.961 89.0447 523.037 89.1203C523.112 89.1958 522.106 90.3414 520.106 92.4313C518.106 94.5337 515.124 97.5803 511.25 101.496C503.501 109.314 492.217 120.531 478.203 134.341C450.188 161.95 411.242 199.856 368.169 241.653Z" fill="#EBEBEB"/>
<path d="M376.974 251.988C327.838 286.723 283.382 318.146 251.152 340.932C235.139 352.376 222.169 361.642 213.162 368.075C208.721 371.298 205.275 373.803 202.884 375.528C201.74 376.371 200.859 377.026 200.23 377.492C199.639 377.945 199.337 378.184 199.349 378.197C199.362 378.222 199.689 378.008 200.306 377.593C200.947 377.152 201.853 376.535 203.035 375.729C205.451 374.042 208.935 371.587 213.426 368.427C222.433 362.007 235.415 352.754 251.442 341.323C283.457 318.259 327.624 286.42 376.433 251.258C425.192 216.071 469.397 184.27 501.538 161.446C517.602 150.027 530.647 140.85 539.717 134.567C544.246 131.433 547.793 129.016 550.209 127.404C552.624 125.793 553.932 125 553.995 125.088C554.058 125.176 552.888 126.145 550.573 127.908C548.271 129.67 544.837 132.238 540.396 135.499C531.515 142.033 518.596 151.387 502.569 162.868C470.554 185.844 426.11 217.317 376.974 251.988Z" fill="#EBEBEB"/>
<path d="M384.032 263.545C330.002 290.26 281.105 314.444 245.668 331.969C228.031 340.794 213.754 347.944 203.841 352.905C198.947 355.397 195.136 357.336 192.507 358.683C191.249 359.35 190.267 359.854 189.575 360.219C188.921 360.572 188.594 360.76 188.594 360.786C188.607 360.811 188.959 360.66 189.638 360.345C190.343 360.005 191.337 359.539 192.62 358.922C195.274 357.626 199.111 355.737 204.042 353.32C213.955 348.36 228.245 341.222 245.882 332.409C281.155 314.557 329.826 289.945 383.604 262.74C437.332 235.509 486.027 210.922 521.389 193.322C539.063 184.522 553.404 177.472 563.355 172.663C568.324 170.258 572.211 168.42 574.852 167.212C577.494 166.003 578.916 165.411 578.966 165.512C579.016 165.613 577.695 166.393 575.142 167.778C572.588 169.163 568.789 171.165 563.883 173.708C554.071 178.794 539.831 186.033 522.194 194.908C486.933 212.659 438.061 236.881 384.032 263.545Z" fill="#EBEBEB"/>
<path d="M389.164 276.06C331.549 294.063 279.407 310.341 241.617 322.149C222.798 328.129 207.552 332.976 196.972 336.338C191.739 338.037 187.676 339.372 184.858 340.291C183.512 340.744 182.468 341.096 181.726 341.348C181.021 341.6 180.669 341.738 180.669 341.751C180.682 341.776 181.046 341.676 181.763 341.474C182.518 341.247 183.575 340.933 184.946 340.53C187.764 339.661 191.865 338.39 197.111 336.766C207.69 333.417 222.937 328.583 241.768 322.615C279.457 310.467 331.436 293.71 388.887 275.191C446.288 256.634 498.305 239.916 536.019 228.031C554.876 222.089 570.173 217.343 580.765 214.145C586.061 212.546 590.187 211.338 592.992 210.545C595.797 209.764 597.294 209.399 597.32 209.5C597.357 209.601 595.923 210.167 593.181 211.149C590.439 212.118 586.375 213.503 581.13 215.253C570.638 218.753 555.417 223.688 536.572 229.718C498.909 241.779 446.766 258.107 389.164 276.06Z" fill="#EBEBEB"/>
<path d="M392.246 289.216C332.48 298.041 278.388 306.035 239.19 311.826C219.641 314.81 203.828 317.227 192.846 318.901C187.412 319.77 183.185 320.45 180.254 320.916C178.845 321.155 177.763 321.344 176.983 321.482C176.254 321.621 175.876 321.696 175.876 321.721C175.876 321.747 176.266 321.709 177.008 321.621C177.788 321.52 178.883 321.369 180.292 321.18C183.223 320.752 187.462 320.148 192.909 319.355C203.891 317.68 219.716 315.276 239.265 312.317C278.413 306.174 332.43 297.701 392.108 288.334C451.761 278.93 505.778 270.495 544.925 264.616C564.499 261.67 580.35 259.366 591.319 257.856C596.804 257.1 601.068 256.546 603.962 256.206C606.855 255.866 608.39 255.741 608.402 255.841C608.415 255.955 606.918 256.282 604.062 256.823C601.194 257.365 596.955 258.095 591.495 259.001C580.576 260.827 564.751 263.345 545.19 266.366C506.079 272.396 451.987 280.428 392.246 289.216Z" fill="#EBEBEB"/>
<path d="M470.378 454.828C463.258 446.444 453.42 441.395 446.577 439.469C440.174 437.669 430.463 436.02 420.562 438.437C414.423 439.935 409.039 442.831 404.574 447.048C399.278 452.033 395.239 458.92 392.573 467.506C392.17 468.79 392.308 470.162 392.95 471.345C393.592 472.541 394.673 473.397 395.982 473.763L412.776 478.496C415.141 479.163 417.682 477.967 418.675 475.714C420.902 470.653 426.525 462.659 439.155 465.982C448.778 468.525 450.779 476.57 451.194 479.906C451.861 485.345 449.722 490.972 445.47 494.95C438.929 501.069 430.387 499.886 425.871 498.627C420.688 497.191 415.291 500.213 413.845 505.362L408.763 523.453C408.02 526.097 409.568 528.854 412.197 529.596L428.563 534.204C431.205 534.947 433.96 533.398 434.702 530.767L435.771 526.965C435.796 526.877 435.872 526.814 435.972 526.802C440.048 526.55 448.112 525.417 456.402 520.809C466.981 514.917 474.152 505.488 477.724 492.773C482.844 474.593 476.554 462.105 470.378 454.828Z" fill="#E0E0E0"/>
<path d="M419.921 536.684L418.487 536.281C411.643 534.355 404.511 538.358 402.573 545.207C400.649 552.056 404.649 559.194 411.492 561.133L412.926 561.536C419.77 563.462 426.902 559.458 428.84 552.61C430.764 545.761 426.764 538.623 419.921 536.684Z" fill="#E0E0E0"/>
<path d="M506.457 354.629C501.513 351.923 495.877 351.306 492.242 351.646C488.845 351.96 483.889 352.955 479.599 355.913C476.932 357.751 474.882 360.131 473.523 362.963C471.9 366.325 471.234 370.353 471.523 374.961C471.561 375.653 471.875 376.283 472.404 376.736C472.932 377.189 473.599 377.403 474.303 377.34L483.209 376.522C484.467 376.409 485.461 375.364 485.524 374.105C485.662 371.272 486.895 366.413 493.55 365.683C498.62 365.129 501.06 368.616 501.865 370.152C503.186 372.632 503.186 375.716 501.878 378.411C499.865 382.54 495.55 383.534 493.173 383.761C490.43 384.025 488.392 386.455 488.644 389.187L489.524 398.78C489.65 400.178 490.896 401.222 492.292 401.084L500.972 400.291C502.368 400.165 503.412 398.919 503.274 397.521L503.085 395.507C503.085 395.457 503.11 395.419 503.148 395.394C505.048 394.525 508.708 392.511 511.828 388.772C515.816 384.013 517.527 378.171 516.91 371.436C516.042 361.805 510.746 356.983 506.457 354.629Z" fill="#F5F5F5"/>
<path d="M497.273 403.086L496.518 403.161C492.883 403.488 490.203 406.724 490.53 410.35C490.857 413.988 494.09 416.67 497.713 416.342L498.468 416.267C502.103 415.939 504.783 412.704 504.456 409.078C504.129 405.44 500.908 402.758 497.273 403.086Z" fill="#F5F5F5"/>
<path d="M149.597 149.75C146.251 146.452 141.861 144.677 138.88 144.11C136.087 143.581 131.885 143.254 127.759 144.651C125.205 145.52 123.017 146.955 121.268 148.919C119.205 151.248 117.746 154.333 116.928 158.084C116.802 158.651 116.915 159.217 117.23 159.708C117.544 160.187 118.048 160.514 118.614 160.627L125.948 162.012C126.979 162.201 128.023 161.597 128.35 160.602C129.105 158.361 131.206 154.736 136.703 155.68C140.905 156.397 142.05 159.746 142.352 161.156C142.842 163.447 142.138 165.928 140.477 167.791C137.923 170.649 134.238 170.46 132.263 170.095C129.998 169.679 127.809 171.165 127.394 173.418L125.91 181.324C125.696 182.483 126.451 183.59 127.608 183.804L134.753 185.151C135.911 185.366 137.018 184.61 137.232 183.452L137.546 181.79C137.559 181.752 137.584 181.715 137.622 181.715C139.345 181.45 142.741 180.67 146.1 178.391C150.377 175.483 153.082 171.19 154.126 165.638C155.648 157.707 152.503 152.621 149.597 149.75Z" fill="#F5F5F5"/>
<path d="M131.193 186.536L130.564 186.423C127.57 185.857 124.69 187.833 124.124 190.829C123.558 193.826 125.533 196.709 128.527 197.275L129.156 197.388C132.149 197.955 135.03 195.978 135.596 192.982C136.15 189.998 134.175 187.103 131.193 186.536Z" fill="#F5F5F5"/>
<path d="M493.186 152.281C488.255 149.549 482.619 148.919 478.984 149.234C475.587 149.536 470.631 150.506 466.316 153.452C463.637 155.29 461.586 157.656 460.215 160.476C458.58 163.825 457.888 167.866 458.165 172.462C458.202 173.154 458.517 173.783 459.045 174.237C459.574 174.69 460.24 174.904 460.932 174.854L469.851 174.073C471.109 173.96 472.103 172.927 472.178 171.668C472.329 168.836 473.575 163.976 480.242 163.284C485.324 162.755 487.739 166.255 488.544 167.778C489.853 170.271 489.84 173.355 488.519 176.037C486.494 180.154 482.179 181.136 479.789 181.362C477.047 181.614 474.996 184.044 475.235 186.776L476.078 196.381C476.204 197.779 477.437 198.824 478.846 198.698L487.525 197.942C488.922 197.817 489.966 196.583 489.84 195.173L489.664 193.158C489.664 193.108 489.689 193.07 489.727 193.045C491.639 192.176 495.3 190.175 498.445 186.461C502.445 181.715 504.181 175.886 503.59 169.151C502.747 159.494 497.463 154.648 493.186 152.281Z" fill="#EBEBEB"/>
<path d="M483.814 200.7L483.059 200.763C479.424 201.077 476.732 204.3 477.046 207.926C477.361 211.564 480.581 214.258 484.204 213.944L484.959 213.881C488.594 213.566 491.286 210.343 490.972 206.717C490.657 203.079 487.45 200.372 483.814 200.7Z" fill="#EBEBEB"/>
<path d="M225.176 442.378C218.999 439.47 212.143 439.142 207.778 439.809C203.689 440.439 197.777 442 192.808 445.903C189.726 448.332 187.424 451.341 185.977 454.879C184.266 459.059 183.751 463.981 184.443 469.52C184.543 470.351 184.971 471.081 185.638 471.598C186.304 472.101 187.135 472.315 187.965 472.189L198.67 470.553C200.18 470.326 201.312 468.992 201.287 467.468C201.249 464.031 202.369 458.077 210.369 456.704C216.458 455.672 219.653 459.701 220.747 461.488C222.521 464.396 222.76 468.123 221.376 471.472C219.251 476.608 214.118 478.131 211.25 478.585C207.954 479.101 205.677 482.198 206.18 485.484L207.941 497.015C208.193 498.702 209.778 499.861 211.464 499.596L221.892 497.997C223.578 497.746 224.735 496.159 224.471 494.472L224.106 492.055C224.094 491.992 224.131 491.942 224.182 491.917C226.421 490.721 230.698 488.014 234.195 483.28C238.661 477.238 240.296 470.062 239.051 461.954C237.277 450.347 230.522 444.908 225.176 442.378Z" fill="#EBEBEB"/>
<path d="M217.641 501.61L216.723 501.749C212.357 502.416 209.351 506.52 210.018 510.876C210.684 515.244 214.785 518.253 219.138 517.586L220.056 517.448C224.421 516.78 227.428 512.676 226.761 508.32C226.107 503.952 222.006 500.943 217.641 501.61Z" fill="#EBEBEB"/>
<path d="M131.269 224.154C122.589 220.088 112.953 219.647 106.826 220.591C101.09 221.485 92.7876 223.701 85.8185 229.19C81.4911 232.601 78.2707 236.857 76.2454 241.817C73.8552 247.696 73.1382 254.62 74.1194 262.4C74.2704 263.571 74.8616 264.604 75.8051 265.309C76.7486 266.026 77.9185 266.316 79.0884 266.127L94.1336 263.798C96.2596 263.47 97.832 261.607 97.8069 259.454C97.744 254.633 99.3165 246.248 110.537 244.309C119.092 242.836 123.595 248.502 125.13 250.994C127.633 255.073 127.973 260.311 126.036 265.006C123.054 272.233 115.846 274.385 111.821 275.028C107.191 275.758 103.996 280.114 104.713 284.734L107.216 300.936C107.581 303.303 109.808 304.927 112.173 304.562L126.828 302.283C129.193 301.918 130.816 299.69 130.451 297.323L129.923 293.924C129.91 293.849 129.948 293.76 130.023 293.723C133.168 292.048 139.156 288.234 144.062 281.561C150.327 273.051 152.604 262.967 150.843 251.586C148.302 235.308 138.791 227.679 131.269 224.154Z" fill="#EBEBEB"/>
<path d="M120.841 307.382L119.558 307.584C113.432 308.54 109.217 314.294 110.161 320.437C111.104 326.568 116.866 330.786 123.005 329.842L124.288 329.64C130.414 328.683 134.628 322.93 133.685 316.786C132.729 310.655 126.967 306.438 120.841 307.382Z" fill="#EBEBEB"/>
</svg>
