<svg width="66" height="66" viewBox="0 0 66 66" fill="none" xmlns="http://www.w3.org/2000/svg">
<circle cx="33" cy="33" r="33" fill="#F5F5F5"/>
<mask id="mask0_1974_2" style="mask-type:alpha" maskUnits="userSpaceOnUse" x="0" y="0" width="66" height="66">
<circle cx="33" cy="33" r="33" fill="white"/>
</mask>
<g mask="url(#mask0_1974_2)">
<path d="M41.2986 58.6793C38.2421 58.6793 35.7556 56.1928 35.7556 53.1363C35.7556 50.0799 38.2421 47.5938 41.2986 47.5938C44.3546 47.5938 46.8411 50.08 46.8411 53.1363C46.8411 56.1928 44.3549 58.6793 41.2986 58.6793ZM41.2986 49.0623C39.0519 49.0623 37.2241 50.89 37.2241 53.1363C37.2241 55.3831 39.0519 57.2108 41.2985 57.2108C43.5449 57.2108 45.3727 55.3831 45.3727 53.1363C45.3727 50.8901 43.5449 49.0623 41.2986 49.0623Z" fill="#FFA70A"/>
<path d="M38.3471 61.8802V68.0003H11.5134V61.8802C11.5134 59.2505 13.6447 57.1191 16.2734 57.1191H33.586C36.2157 57.1191 38.3471 59.2505 38.3471 61.8802Z" fill="#052D39"/>
<path d="M38.345 61.8802L40.5477 68.0003H13.1423V61.8802C13.1423 59.2505 15.2736 57.1191 17.9034 57.1191H33.5839C36.2136 57.1191 38.345 59.2505 38.345 61.8802Z" fill="#33445F"/>
<path d="M16.4056 57.1201L16.1167 64.4414L19.1943 65.2112L16.4312 67.9743H33.4246L30.6615 65.2112L33.7391 64.4415L33.4502 57.1201" fill="#052D39"/>
<path d="M30.796 57.1191L27.696 67.9993H22.1619L19.0623 57.1191" fill="#F2F2F2"/>
<path d="M21.1365 59.7911L24.9282 64.5376L28.6826 59.809L24.9282 59.1074L21.1365 59.7911Z" fill="#FF4856"/>
<path d="M20.8039 63.2316L24.9289 59.1065L29.0543 63.2316L30.796 57.1191H19.0623L20.8039 63.2316Z" fill="#E6E6E6"/>
<path d="M28.4557 51.0066V57.1201L24.9287 59.1073L23.8392 58.4935L21.4021 57.1201V51.0029L23.8392 51.0041L28.4557 51.0066Z" fill="#F9C2AF"/>
<path d="M22.1814 67.9996L24.929 64.5371L27.6961 67.9996" fill="#FF4856"/>
<path d="M23.8388 51.0039L21.4017 51.0028V57.1196L23.8388 58.4933V55.6647C24.1991 55.7002 24.5638 55.7204 24.9333 55.7204C26.1645 55.7204 27.3493 55.5193 28.4552 55.148V51.0065L23.8388 51.0039ZM13.8621 44.5703C12.0255 44.5703 10.5369 43.2377 10.5369 41.5938C10.5369 39.9498 12.0255 38.6172 13.8621 38.6172H32.1452C33.9818 38.6172 33.9818 44.5703 32.1452 44.5703" fill="#EA9E8F"/>
<path d="M36.004 32.1016V43.1735C36.004 49.2878 31.0474 54.2448 24.932 54.2448C21.8756 54.2448 19.1067 53.0052 17.1035 51.002C15.1003 48.9988 13.8611 46.2303 13.8611 43.1735V32.1016H36.004Z" fill="#F9C2AF"/>
<path d="M24.8537 54.2451C21.8272 54.2246 19.0906 52.9894 17.1035 51.003C15.1 48.9987 13.8611 46.2317 13.8611 43.1741V32.1025H18.8456V43.1741C18.8456 46.2316 19.5263 48.9987 20.6282 51.0029C21.7127 52.9754 23.2038 54.2066 24.8536 54.245L24.8537 54.2451Z" fill="#EA9E8F"/>
<path d="M31.81 43.0538C31.7136 43.0538 31.6181 43.0348 31.529 42.9979C31.4399 42.9611 31.359 42.907 31.2908 42.8388C31.2226 42.7706 31.1685 42.6897 31.1316 42.6006C31.0947 42.5115 31.0758 42.416 31.0758 42.3196V40.7811C31.0758 40.5864 31.1532 40.3997 31.2909 40.262C31.4286 40.1243 31.6153 40.0469 31.81 40.0469C31.9064 40.0469 32.0019 40.0658 32.091 40.1027C32.1801 40.1396 32.2611 40.1937 32.3292 40.2619C32.3974 40.3301 32.4515 40.411 32.4884 40.5001C32.5253 40.5892 32.5443 40.6847 32.5443 40.7811V42.3196C32.5443 42.416 32.5253 42.5115 32.4884 42.6006C32.4516 42.6897 32.3975 42.7707 32.3293 42.8388C32.2611 42.907 32.1801 42.9611 32.091 42.998C32.0019 43.0349 31.9064 43.0539 31.81 43.0538ZM23.9332 43.0538C23.8368 43.0538 23.7413 43.0348 23.6522 42.9979C23.5631 42.9611 23.4822 42.907 23.414 42.8388C23.3458 42.7706 23.2917 42.6897 23.2548 42.6006C23.2179 42.5115 23.199 42.416 23.199 42.3196V40.7811C23.199 40.5864 23.2764 40.3997 23.4141 40.262C23.5518 40.1243 23.7385 40.0469 23.9332 40.0469C24.1279 40.0469 24.3147 40.1243 24.4524 40.262C24.5901 40.3997 24.6674 40.5864 24.6675 40.7811V42.3196C24.6675 42.416 24.6485 42.5115 24.6116 42.6006C24.5747 42.6897 24.5206 42.7706 24.4524 42.8388C24.3843 42.907 24.3033 42.9611 24.2142 42.9979C24.1251 43.0348 24.0297 43.0538 23.9332 43.0538Z" fill="#293544"/>
<path d="M36.004 32.1016V34.8763C35.2452 35.4198 34.3378 35.8966 33.2599 36.2852C29.2478 37.7302 25.3638 37.2435 22.6175 36.4781C22.6175 36.4781 22.6164 36.4781 22.6164 36.4771C20.2239 35.8113 18.6947 34.9321 18.6947 34.9321C18.6947 34.9321 17.685 39.7912 13.8611 39.7912V32.1016H36.004Z" fill="#EA9E8F"/>
<path d="M33.2609 35.111C29.2493 36.5565 25.3657 36.0697 22.6187 35.3043C22.6187 35.3043 22.6176 35.3043 22.6176 35.3032C20.2256 34.6367 18.6962 33.7575 18.6962 33.7575C18.6962 33.7575 17.6865 38.6167 13.8623 38.6167C13.8623 38.6167 11.3186 34.1163 11.3981 29.9525C11.4393 27.7934 13.2199 26.1787 15.2437 26.1787C15.6215 26.1787 16.0082 26.2344 16.3928 26.3545C17.4768 23.4442 20.3401 21.6022 23.4402 21.7907C23.9228 21.8207 24.4084 21.8593 24.8962 21.9032C24.9896 21.9113 25.0837 21.9197 25.1771 21.9285C25.1866 21.9292 25.1961 21.9303 25.206 21.9311C30.2659 22.4064 35.3914 23.3318 38.4028 20C38.4028 20 43.38 31.4656 33.2609 35.111Z" fill="#33445F"/>
<path d="M23.4402 21.7906C23.9228 21.8206 24.4088 21.8591 24.8962 21.903C20.4318 21.7148 16.8843 31.5471 22.6176 35.303C20.2256 34.6365 18.6962 33.7573 18.6962 33.7573C18.6962 33.7573 17.6865 38.6165 13.8623 38.6165C13.8623 38.6165 11.3186 34.1161 11.3981 29.9523C11.4393 27.7932 13.2199 26.1785 15.2437 26.1785C15.6215 26.1785 16.0082 26.2342 16.3928 26.3543C17.4768 23.444 20.3401 21.6025 23.4402 21.7906Z" fill="#052D39"/>
<path d="M25.2094 21.9326C25.1984 21.9307 25.1886 21.9299 25.1775 21.9287C25.1874 21.9299 25.1976 21.9307 25.2076 21.9318L25.2094 21.9326Z" fill="#F4AF9D"/>
<path d="M29.7364 46.8364C29.7364 47.8095 28.9472 48.5987 27.9742 48.5987H27.9006C27.6691 48.5991 27.4398 48.5537 27.2259 48.4652C27.012 48.3766 26.8178 48.2466 26.6543 48.0827C26.4905 47.9192 26.3605 47.7249 26.272 47.511C26.1835 47.2972 26.1381 47.0679 26.1384 46.8364C26.1384 46.6424 26.1696 46.4555 26.2284 46.2813C26.4603 45.5803 27.1213 45.0742 27.9006 45.0742H27.9742C28.4605 45.0742 28.9011 45.2709 29.2205 45.5898C29.414 45.7843 29.5598 46.0209 29.6463 46.2813C29.7049 46.4556 29.7364 46.6423 29.7364 46.8364Z" fill="#052D39"/>
<path d="M29.644 46.2813H26.2261C26.4583 45.5803 27.1189 45.0742 27.8982 45.0742H27.9719C28.4585 45.0742 28.8991 45.2709 29.2181 45.5898C29.4116 45.7843 29.5574 46.0209 29.6439 46.2813H29.644Z" fill="white"/>
<path d="M49.4566 39.832V53.7755L32.9761 49.857V43.7508L49.4566 39.832Z" fill="#FFA70A"/>
<path d="M49.4566 48.5238V53.7761L32.9761 49.8576V47.6279L49.4566 48.5238Z" fill="#D69D14"/>
<path d="M43.8525 55.3588V59.9485H38.3455V55.3588C38.3454 55.2383 38.3691 55.119 38.4152 55.0077C38.4613 54.8964 38.5289 54.7952 38.6141 54.71C38.6993 54.6248 38.8004 54.5573 38.9117 54.5112C39.023 54.4651 39.1423 54.4414 39.2628 54.4414H42.9352C43.4413 54.4414 43.8525 54.8516 43.8525 55.3588Z" fill="#F4AF9D"/>
<path d="M43.8542 55.3588V59.9485H40.5664V55.3588C40.5663 55.2383 40.59 55.1189 40.6361 55.0076C40.6821 54.8963 40.7497 54.7951 40.8349 54.7099C40.9201 54.6247 41.0213 54.5571 41.1326 54.5111C41.2439 54.465 41.3633 54.4413 41.4838 54.4414H42.9369C43.443 54.4414 43.8542 54.8516 43.8542 55.3588Z" fill="#F9C2AF"/>
<path d="M38.3455 59.9473H43.8522V67.9991H38.3455V59.9473Z" fill="#33445F"/>
<path d="M38.3455 59.9473H40.5482V67.9991H38.3455V59.9473Z" fill="#052D39"/>
<path d="M57.0808 46.7754H53.4586C53.2639 46.7754 53.0772 46.698 52.9395 46.5603C52.8018 46.4226 52.7244 46.2359 52.7244 46.0412C52.7244 45.8465 52.8018 45.6597 52.9395 45.522C53.0772 45.3843 53.2639 45.307 53.4586 45.3069H57.0808C57.2756 45.307 57.4623 45.3843 57.6 45.522C57.7377 45.6597 57.815 45.8465 57.8151 46.0412C57.815 46.2359 57.7377 46.4226 57.6 46.5603C57.4623 46.698 57.2756 46.7754 57.0808 46.7754ZM53.4594 41.3621C53.3373 41.3623 53.2172 41.332 53.1098 41.274C53.0025 41.216 52.9112 41.1321 52.8445 41.0299C52.7378 40.8671 52.7001 40.6685 52.7398 40.4778C52.7795 40.2872 52.8933 40.1202 53.0562 40.0134L55.8954 38.1534C55.976 38.1005 56.0663 38.0641 56.161 38.0461C56.2558 38.0281 56.3531 38.029 56.4476 38.0486C56.542 38.0683 56.6316 38.1063 56.7113 38.1606C56.791 38.215 56.8592 38.2844 56.912 38.3651C57.0187 38.528 57.0563 38.7266 57.0166 38.9172C56.9769 39.1078 56.8632 39.2749 56.7003 39.3816L53.8611 41.2416C53.7419 41.3203 53.6022 41.3622 53.4594 41.3621ZM56.2972 54.0491C56.1544 54.0492 56.0147 54.0075 55.8954 53.9291L53.0562 52.0691C52.8933 51.9624 52.7795 51.7953 52.7398 51.6046C52.7001 51.414 52.7377 51.2154 52.8445 51.0525C52.8973 50.9718 52.9655 50.9023 53.0451 50.8479C53.1248 50.7936 53.2144 50.7555 53.3088 50.7358C53.4033 50.7161 53.5006 50.7152 53.5954 50.7332C53.6901 50.7511 53.7804 50.7876 53.8611 50.8404L56.7003 52.7008C56.8325 52.7875 56.9331 52.9146 56.9873 53.0631C57.0415 53.2116 57.0463 53.3737 57.001 53.5251C56.9557 53.6766 56.8628 53.8094 56.736 53.9038C56.6092 53.9982 56.4553 54.0492 56.2972 54.0491Z" fill="#FF4856"/>
</g>
</svg>
